<?xml version="1.0" encoding="utf-8"?>
<svg xmlns="http://www.w3.org/2000/svg" xmlns:xlink="http://www.w3.org/1999/xlink" width="600" height="400" viewBox="0 0 2400 1600">
<defs>
  <clipPath id="clip480">
    <rect x="0" y="0" width="2400" height="1600"/>
  </clipPath>
</defs>
<path clip-path="url(#clip480)" d="
M0 1600 L2400 1600 L2400 0 L0 0  Z
  " fill="#ffffff" fill-rule="evenodd" fill-opacity="1"/>
<defs>
  <clipPath id="clip481">
    <rect x="480" y="0" width="1681" height="1600"/>
  </clipPath>
</defs>
<path clip-path="url(#clip480)" d="
M193.936 1486.45 L2352.76 1486.45 L2352.76 47.2441 L193.936 47.2441  Z
  " fill="#ffffff" fill-rule="evenodd" fill-opacity="1"/>
<defs>
  <clipPath id="clip482">
    <rect x="193" y="47" width="2160" height="1440"/>
  </clipPath>
</defs>
<polyline clip-path="url(#clip482)" style="stroke:#000000; stroke-linecap:butt; stroke-linejoin:round; stroke-width:2; stroke-opacity:0.1; fill:none" points="
  403.002,1486.45 403.002,47.2441 
  "/>
<polyline clip-path="url(#clip482)" style="stroke:#000000; stroke-linecap:butt; stroke-linejoin:round; stroke-width:2; stroke-opacity:0.1; fill:none" points="
  911.727,1486.45 911.727,47.2441 
  "/>
<polyline clip-path="url(#clip482)" style="stroke:#000000; stroke-linecap:butt; stroke-linejoin:round; stroke-width:2; stroke-opacity:0.1; fill:none" points="
  1420.45,1486.45 1420.45,47.2441 
  "/>
<polyline clip-path="url(#clip482)" style="stroke:#000000; stroke-linecap:butt; stroke-linejoin:round; stroke-width:2; stroke-opacity:0.1; fill:none" points="
  1929.18,1486.45 1929.18,47.2441 
  "/>
<polyline clip-path="url(#clip480)" style="stroke:#000000; stroke-linecap:butt; stroke-linejoin:round; stroke-width:4; stroke-opacity:1; fill:none" points="
  193.936,1486.45 2352.76,1486.45 
  "/>
<polyline clip-path="url(#clip480)" style="stroke:#000000; stroke-linecap:butt; stroke-linejoin:round; stroke-width:4; stroke-opacity:1; fill:none" points="
  403.002,1486.45 403.002,1467.55 
  "/>
<polyline clip-path="url(#clip480)" style="stroke:#000000; stroke-linecap:butt; stroke-linejoin:round; stroke-width:4; stroke-opacity:1; fill:none" points="
  911.727,1486.45 911.727,1467.55 
  "/>
<polyline clip-path="url(#clip480)" style="stroke:#000000; stroke-linecap:butt; stroke-linejoin:round; stroke-width:4; stroke-opacity:1; fill:none" points="
  1420.45,1486.45 1420.45,1467.55 
  "/>
<polyline clip-path="url(#clip480)" style="stroke:#000000; stroke-linecap:butt; stroke-linejoin:round; stroke-width:4; stroke-opacity:1; fill:none" points="
  1929.18,1486.45 1929.18,1467.55 
  "/>
<path clip-path="url(#clip480)" d="M380.386 1517.37 Q376.775 1517.37 374.946 1520.93 Q373.141 1524.47 373.141 1531.6 Q373.141 1538.71 374.946 1542.27 Q376.775 1545.82 380.386 1545.82 Q384.02 1545.82 385.826 1542.27 Q387.655 1538.71 387.655 1531.6 Q387.655 1524.47 385.826 1520.93 Q384.02 1517.37 380.386 1517.37 M380.386 1513.66 Q386.196 1513.66 389.252 1518.27 Q392.33 1522.85 392.33 1531.6 Q392.33 1540.33 389.252 1544.94 Q386.196 1549.52 380.386 1549.52 Q374.576 1549.52 371.497 1544.94 Q368.442 1540.33 368.442 1531.6 Q368.442 1522.85 371.497 1518.27 Q374.576 1513.66 380.386 1513.66 Z" fill="#000000" fill-rule="evenodd" fill-opacity="1" /><path clip-path="url(#clip480)" d="M400.548 1542.97 L405.432 1542.97 L405.432 1548.85 L400.548 1548.85 L400.548 1542.97 Z" fill="#000000" fill-rule="evenodd" fill-opacity="1" /><path clip-path="url(#clip480)" d="M425.617 1517.37 Q422.006 1517.37 420.178 1520.93 Q418.372 1524.47 418.372 1531.6 Q418.372 1538.71 420.178 1542.27 Q422.006 1545.82 425.617 1545.82 Q429.252 1545.82 431.057 1542.27 Q432.886 1538.71 432.886 1531.6 Q432.886 1524.47 431.057 1520.93 Q429.252 1517.37 425.617 1517.37 M425.617 1513.66 Q431.427 1513.66 434.483 1518.27 Q437.562 1522.85 437.562 1531.6 Q437.562 1540.33 434.483 1544.94 Q431.427 1549.52 425.617 1549.52 Q419.807 1549.52 416.728 1544.94 Q413.673 1540.33 413.673 1531.6 Q413.673 1522.85 416.728 1518.27 Q419.807 1513.66 425.617 1513.66 Z" fill="#000000" fill-rule="evenodd" fill-opacity="1" /><path clip-path="url(#clip480)" d="M889.609 1517.37 Q885.998 1517.37 884.169 1520.93 Q882.364 1524.47 882.364 1531.6 Q882.364 1538.71 884.169 1542.27 Q885.998 1545.82 889.609 1545.82 Q893.243 1545.82 895.049 1542.27 Q896.877 1538.71 896.877 1531.6 Q896.877 1524.47 895.049 1520.93 Q893.243 1517.37 889.609 1517.37 M889.609 1513.66 Q895.419 1513.66 898.475 1518.27 Q901.553 1522.85 901.553 1531.6 Q901.553 1540.33 898.475 1544.94 Q895.419 1549.52 889.609 1549.52 Q883.799 1549.52 880.72 1544.94 Q877.664 1540.33 877.664 1531.6 Q877.664 1522.85 880.72 1518.27 Q883.799 1513.66 889.609 1513.66 Z" fill="#000000" fill-rule="evenodd" fill-opacity="1" /><path clip-path="url(#clip480)" d="M909.771 1542.97 L914.655 1542.97 L914.655 1548.85 L909.771 1548.85 L909.771 1542.97 Z" fill="#000000" fill-rule="evenodd" fill-opacity="1" /><path clip-path="url(#clip480)" d="M924.886 1514.29 L943.243 1514.29 L943.243 1518.22 L929.169 1518.22 L929.169 1526.7 Q930.187 1526.35 931.206 1526.19 Q932.224 1526 933.243 1526 Q939.03 1526 942.41 1529.17 Q945.789 1532.34 945.789 1537.76 Q945.789 1543.34 942.317 1546.44 Q938.845 1549.52 932.525 1549.52 Q930.349 1549.52 928.081 1549.15 Q925.836 1548.78 923.428 1548.04 L923.428 1543.34 Q925.511 1544.47 927.734 1545.03 Q929.956 1545.58 932.433 1545.58 Q936.437 1545.58 938.775 1543.48 Q941.113 1541.37 941.113 1537.76 Q941.113 1534.15 938.775 1532.04 Q936.437 1529.94 932.433 1529.94 Q930.558 1529.94 928.683 1530.35 Q926.831 1530.77 924.886 1531.65 L924.886 1514.29 Z" fill="#000000" fill-rule="evenodd" fill-opacity="1" /><path clip-path="url(#clip480)" d="M1387.6 1544.91 L1395.24 1544.91 L1395.24 1518.55 L1386.93 1520.21 L1386.93 1515.95 L1395.2 1514.29 L1399.87 1514.29 L1399.87 1544.91 L1407.51 1544.91 L1407.51 1548.85 L1387.6 1548.85 L1387.6 1544.91 Z" fill="#000000" fill-rule="evenodd" fill-opacity="1" /><path clip-path="url(#clip480)" d="M1416.96 1542.97 L1421.84 1542.97 L1421.84 1548.85 L1416.96 1548.85 L1416.96 1542.97 Z" fill="#000000" fill-rule="evenodd" fill-opacity="1" /><path clip-path="url(#clip480)" d="M1442.03 1517.37 Q1438.41 1517.37 1436.59 1520.93 Q1434.78 1524.47 1434.78 1531.6 Q1434.78 1538.71 1436.59 1542.27 Q1438.41 1545.82 1442.03 1545.82 Q1445.66 1545.82 1447.47 1542.27 Q1449.29 1538.71 1449.29 1531.6 Q1449.29 1524.47 1447.47 1520.93 Q1445.66 1517.37 1442.03 1517.37 M1442.03 1513.66 Q1447.84 1513.66 1450.89 1518.27 Q1453.97 1522.85 1453.97 1531.6 Q1453.97 1540.33 1450.89 1544.94 Q1447.84 1549.52 1442.03 1549.52 Q1436.22 1549.52 1433.14 1544.94 Q1430.08 1540.33 1430.08 1531.6 Q1430.08 1522.85 1433.14 1518.27 Q1436.22 1513.66 1442.03 1513.66 Z" fill="#000000" fill-rule="evenodd" fill-opacity="1" /><path clip-path="url(#clip480)" d="M1896.83 1544.91 L1904.47 1544.91 L1904.47 1518.55 L1896.16 1520.21 L1896.16 1515.95 L1904.42 1514.29 L1909.1 1514.29 L1909.1 1544.91 L1916.73 1544.91 L1916.73 1548.85 L1896.83 1548.85 L1896.83 1544.91 Z" fill="#000000" fill-rule="evenodd" fill-opacity="1" /><path clip-path="url(#clip480)" d="M1926.18 1542.97 L1931.06 1542.97 L1931.06 1548.85 L1926.18 1548.85 L1926.18 1542.97 Z" fill="#000000" fill-rule="evenodd" fill-opacity="1" /><path clip-path="url(#clip480)" d="M1941.29 1514.29 L1959.65 1514.29 L1959.65 1518.22 L1945.58 1518.22 L1945.58 1526.7 Q1946.6 1526.35 1947.61 1526.19 Q1948.63 1526 1949.65 1526 Q1955.44 1526 1958.82 1529.17 Q1962.2 1532.34 1962.2 1537.76 Q1962.2 1543.34 1958.73 1546.44 Q1955.25 1549.52 1948.93 1549.52 Q1946.76 1549.52 1944.49 1549.15 Q1942.24 1548.78 1939.84 1548.04 L1939.84 1543.34 Q1941.92 1544.47 1944.14 1545.03 Q1946.36 1545.58 1948.84 1545.58 Q1952.85 1545.58 1955.18 1543.48 Q1957.52 1541.37 1957.52 1537.76 Q1957.52 1534.15 1955.18 1532.04 Q1952.85 1529.94 1948.84 1529.94 Q1946.97 1529.94 1945.09 1530.35 Q1943.24 1530.77 1941.29 1531.65 L1941.29 1514.29 Z" fill="#000000" fill-rule="evenodd" fill-opacity="1" /><polyline clip-path="url(#clip482)" style="stroke:#000000; stroke-linecap:butt; stroke-linejoin:round; stroke-width:2; stroke-opacity:0.1; fill:none" points="
  193.936,1408.69 2352.76,1408.69 
  "/>
<polyline clip-path="url(#clip482)" style="stroke:#000000; stroke-linecap:butt; stroke-linejoin:round; stroke-width:2; stroke-opacity:0.1; fill:none" points="
  193.936,1078.51 2352.76,1078.51 
  "/>
<polyline clip-path="url(#clip482)" style="stroke:#000000; stroke-linecap:butt; stroke-linejoin:round; stroke-width:2; stroke-opacity:0.1; fill:none" points="
  193.936,748.336 2352.76,748.336 
  "/>
<polyline clip-path="url(#clip482)" style="stroke:#000000; stroke-linecap:butt; stroke-linejoin:round; stroke-width:2; stroke-opacity:0.1; fill:none" points="
  193.936,418.157 2352.76,418.157 
  "/>
<polyline clip-path="url(#clip482)" style="stroke:#000000; stroke-linecap:butt; stroke-linejoin:round; stroke-width:2; stroke-opacity:0.1; fill:none" points="
  193.936,87.9783 2352.76,87.9783 
  "/>
<polyline clip-path="url(#clip480)" style="stroke:#000000; stroke-linecap:butt; stroke-linejoin:round; stroke-width:4; stroke-opacity:1; fill:none" points="
  193.936,1486.45 193.936,47.2441 
  "/>
<polyline clip-path="url(#clip480)" style="stroke:#000000; stroke-linecap:butt; stroke-linejoin:round; stroke-width:4; stroke-opacity:1; fill:none" points="
  193.936,1408.69 212.834,1408.69 
  "/>
<polyline clip-path="url(#clip480)" style="stroke:#000000; stroke-linecap:butt; stroke-linejoin:round; stroke-width:4; stroke-opacity:1; fill:none" points="
  193.936,1078.51 212.834,1078.51 
  "/>
<polyline clip-path="url(#clip480)" style="stroke:#000000; stroke-linecap:butt; stroke-linejoin:round; stroke-width:4; stroke-opacity:1; fill:none" points="
  193.936,748.336 212.834,748.336 
  "/>
<polyline clip-path="url(#clip480)" style="stroke:#000000; stroke-linecap:butt; stroke-linejoin:round; stroke-width:4; stroke-opacity:1; fill:none" points="
  193.936,418.157 212.834,418.157 
  "/>
<polyline clip-path="url(#clip480)" style="stroke:#000000; stroke-linecap:butt; stroke-linejoin:round; stroke-width:4; stroke-opacity:1; fill:none" points="
  193.936,87.9783 212.834,87.9783 
  "/>
<path clip-path="url(#clip480)" d="M50.9921 1409.15 L80.6679 1409.15 L80.6679 1413.08 L50.9921 1413.08 L50.9921 1409.15 Z" fill="#000000" fill-rule="evenodd" fill-opacity="1" /><path clip-path="url(#clip480)" d="M94.7882 1422.04 L111.108 1422.04 L111.108 1425.97 L89.1632 1425.97 L89.1632 1422.04 Q91.8252 1419.28 96.4085 1414.65 Q101.015 1410 102.196 1408.66 Q104.441 1406.14 105.321 1404.4 Q106.223 1402.64 106.223 1400.95 Q106.223 1398.2 104.279 1396.46 Q102.358 1394.72 99.2558 1394.72 Q97.0567 1394.72 94.603 1395.49 Q92.1725 1396.25 89.3947 1397.8 L89.3947 1393.08 Q92.2188 1391.95 94.6724 1391.37 Q97.1261 1390.79 99.1632 1390.79 Q104.534 1390.79 107.728 1393.47 Q110.922 1396.16 110.922 1400.65 Q110.922 1402.78 110.112 1404.7 Q109.325 1406.6 107.219 1409.19 Q106.64 1409.86 103.538 1413.08 Q100.436 1416.27 94.7882 1422.04 Z" fill="#000000" fill-rule="evenodd" fill-opacity="1" /><path clip-path="url(#clip480)" d="M120.922 1420.09 L125.807 1420.09 L125.807 1425.97 L120.922 1425.97 L120.922 1420.09 Z" fill="#000000" fill-rule="evenodd" fill-opacity="1" /><path clip-path="url(#clip480)" d="M145.992 1394.49 Q142.381 1394.49 140.552 1398.06 Q138.746 1401.6 138.746 1408.73 Q138.746 1415.83 140.552 1419.4 Q142.381 1422.94 145.992 1422.94 Q149.626 1422.94 151.431 1419.4 Q153.26 1415.83 153.26 1408.73 Q153.26 1401.6 151.431 1398.06 Q149.626 1394.49 145.992 1394.49 M145.992 1390.79 Q151.802 1390.79 154.857 1395.4 Q157.936 1399.98 157.936 1408.73 Q157.936 1417.46 154.857 1422.06 Q151.802 1426.65 145.992 1426.65 Q140.181 1426.65 137.103 1422.06 Q134.047 1417.46 134.047 1408.73 Q134.047 1399.98 137.103 1395.4 Q140.181 1390.79 145.992 1390.79 Z" fill="#000000" fill-rule="evenodd" fill-opacity="1" /><path clip-path="url(#clip480)" d="M51.9875 1078.97 L81.6633 1078.97 L81.6633 1082.9 L51.9875 1082.9 L51.9875 1078.97 Z" fill="#000000" fill-rule="evenodd" fill-opacity="1" /><path clip-path="url(#clip480)" d="M92.566 1091.86 L100.205 1091.86 L100.205 1065.49 L91.8947 1067.16 L91.8947 1062.9 L100.159 1061.23 L104.834 1061.23 L104.834 1091.86 L112.473 1091.86 L112.473 1095.79 L92.566 1095.79 L92.566 1091.86 Z" fill="#000000" fill-rule="evenodd" fill-opacity="1" /><path clip-path="url(#clip480)" d="M121.918 1089.92 L126.802 1089.92 L126.802 1095.79 L121.918 1095.79 L121.918 1089.92 Z" fill="#000000" fill-rule="evenodd" fill-opacity="1" /><path clip-path="url(#clip480)" d="M137.033 1061.23 L155.39 1061.23 L155.39 1065.17 L141.316 1065.17 L141.316 1073.64 Q142.334 1073.3 143.353 1073.13 Q144.371 1072.95 145.39 1072.95 Q151.177 1072.95 154.556 1076.12 Q157.936 1079.29 157.936 1084.71 Q157.936 1090.29 154.464 1093.39 Q150.992 1096.47 144.672 1096.47 Q142.496 1096.47 140.228 1096.1 Q137.982 1095.73 135.575 1094.98 L135.575 1090.29 Q137.658 1091.42 139.881 1091.98 Q142.103 1092.53 144.58 1092.53 Q148.584 1092.53 150.922 1090.42 Q153.26 1088.32 153.26 1084.71 Q153.26 1081.1 150.922 1078.99 Q148.584 1076.88 144.58 1076.88 Q142.705 1076.88 140.83 1077.3 Q138.978 1077.72 137.033 1078.6 L137.033 1061.23 Z" fill="#000000" fill-rule="evenodd" fill-opacity="1" /><path clip-path="url(#clip480)" d="M50.9921 748.787 L80.6679 748.787 L80.6679 752.723 L50.9921 752.723 L50.9921 748.787 Z" fill="#000000" fill-rule="evenodd" fill-opacity="1" /><path clip-path="url(#clip480)" d="M91.5706 761.681 L99.2095 761.681 L99.2095 735.315 L90.8993 736.982 L90.8993 732.723 L99.1632 731.056 L103.839 731.056 L103.839 761.681 L111.478 761.681 L111.478 765.616 L91.5706 765.616 L91.5706 761.681 Z" fill="#000000" fill-rule="evenodd" fill-opacity="1" /><path clip-path="url(#clip480)" d="M120.922 759.736 L125.807 759.736 L125.807 765.616 L120.922 765.616 L120.922 759.736 Z" fill="#000000" fill-rule="evenodd" fill-opacity="1" /><path clip-path="url(#clip480)" d="M145.992 734.135 Q142.381 734.135 140.552 737.7 Q138.746 741.241 138.746 748.371 Q138.746 755.477 140.552 759.042 Q142.381 762.584 145.992 762.584 Q149.626 762.584 151.431 759.042 Q153.26 755.477 153.26 748.371 Q153.26 741.241 151.431 737.7 Q149.626 734.135 145.992 734.135 M145.992 730.431 Q151.802 730.431 154.857 735.037 Q157.936 739.621 157.936 748.371 Q157.936 757.098 154.857 761.704 Q151.802 766.287 145.992 766.287 Q140.181 766.287 137.103 761.704 Q134.047 757.098 134.047 748.371 Q134.047 739.621 137.103 735.037 Q140.181 730.431 145.992 730.431 Z" fill="#000000" fill-rule="evenodd" fill-opacity="1" /><path clip-path="url(#clip480)" d="M51.9875 418.609 L81.6633 418.609 L81.6633 422.544 L51.9875 422.544 L51.9875 418.609 Z" fill="#000000" fill-rule="evenodd" fill-opacity="1" /><path clip-path="url(#clip480)" d="M101.756 403.956 Q98.1447 403.956 96.316 407.521 Q94.5104 411.062 94.5104 418.192 Q94.5104 425.298 96.316 428.863 Q98.1447 432.405 101.756 432.405 Q105.39 432.405 107.196 428.863 Q109.024 425.298 109.024 418.192 Q109.024 411.062 107.196 407.521 Q105.39 403.956 101.756 403.956 M101.756 400.252 Q107.566 400.252 110.621 404.859 Q113.7 409.442 113.7 418.192 Q113.7 426.919 110.621 431.525 Q107.566 436.108 101.756 436.108 Q95.9456 436.108 92.8669 431.525 Q89.8114 426.919 89.8114 418.192 Q89.8114 409.442 92.8669 404.859 Q95.9456 400.252 101.756 400.252 Z" fill="#000000" fill-rule="evenodd" fill-opacity="1" /><path clip-path="url(#clip480)" d="M121.918 429.558 L126.802 429.558 L126.802 435.437 L121.918 435.437 L121.918 429.558 Z" fill="#000000" fill-rule="evenodd" fill-opacity="1" /><path clip-path="url(#clip480)" d="M137.033 400.877 L155.39 400.877 L155.39 404.812 L141.316 404.812 L141.316 413.285 Q142.334 412.937 143.353 412.775 Q144.371 412.59 145.39 412.59 Q151.177 412.59 154.556 415.761 Q157.936 418.933 157.936 424.349 Q157.936 429.928 154.464 433.03 Q150.992 436.108 144.672 436.108 Q142.496 436.108 140.228 435.738 Q137.982 435.368 135.575 434.627 L135.575 429.928 Q137.658 431.062 139.881 431.618 Q142.103 432.173 144.58 432.173 Q148.584 432.173 150.922 430.067 Q153.26 427.96 153.26 424.349 Q153.26 420.738 150.922 418.632 Q148.584 416.525 144.58 416.525 Q142.705 416.525 140.83 416.942 Q138.978 417.359 137.033 418.238 L137.033 400.877 Z" fill="#000000" fill-rule="evenodd" fill-opacity="1" /><path clip-path="url(#clip480)" d="M100.76 73.777 Q97.1493 73.777 95.3206 77.3418 Q93.515 80.8834 93.515 88.013 Q93.515 95.1195 95.3206 98.6843 Q97.1493 102.226 100.76 102.226 Q104.395 102.226 106.2 98.6843 Q108.029 95.1195 108.029 88.013 Q108.029 80.8834 106.2 77.3418 Q104.395 73.777 100.76 73.777 M100.76 70.0733 Q106.571 70.0733 109.626 74.6798 Q112.705 79.2631 112.705 88.013 Q112.705 96.7398 109.626 101.346 Q106.571 105.93 100.76 105.93 Q94.9502 105.93 91.8715 101.346 Q88.816 96.7398 88.816 88.013 Q88.816 79.2631 91.8715 74.6798 Q94.9502 70.0733 100.76 70.0733 Z" fill="#000000" fill-rule="evenodd" fill-opacity="1" /><path clip-path="url(#clip480)" d="M120.922 99.3787 L125.807 99.3787 L125.807 105.258 L120.922 105.258 L120.922 99.3787 Z" fill="#000000" fill-rule="evenodd" fill-opacity="1" /><path clip-path="url(#clip480)" d="M145.992 73.777 Q142.381 73.777 140.552 77.3418 Q138.746 80.8834 138.746 88.013 Q138.746 95.1195 140.552 98.6843 Q142.381 102.226 145.992 102.226 Q149.626 102.226 151.431 98.6843 Q153.26 95.1195 153.26 88.013 Q153.26 80.8834 151.431 77.3418 Q149.626 73.777 145.992 73.777 M145.992 70.0733 Q151.802 70.0733 154.857 74.6798 Q157.936 79.2631 157.936 88.013 Q157.936 96.7398 154.857 101.346 Q151.802 105.93 145.992 105.93 Q140.181 105.93 137.103 101.346 Q134.047 96.7398 134.047 88.013 Q134.047 79.2631 137.103 74.6798 Q140.181 70.0733 145.992 70.0733 Z" fill="#000000" fill-rule="evenodd" fill-opacity="1" /><polyline clip-path="url(#clip482)" style="stroke:#009af9; stroke-linecap:butt; stroke-linejoin:round; stroke-width:4; stroke-opacity:1; fill:none" points="
  2291.66,1445.72 2248.83,1417.79 2206.46,1390.15 2164.97,1363.09 2124.34,1336.6 2084.57,1310.65 2045.62,1285.24 2007.49,1260.36 1970.16,1236 1933.6,1212.15 
  1897.81,1188.78 1862.76,1165.9 1828.44,1143.5 1794.84,1121.56 1761.95,1100.08 1729.74,1079.05 1698.21,1058.46 1667.34,1038.29 1637.11,1018.54 1607.52,999.206 
  1578.55,980.273 1550.19,961.735 1522.41,943.58 1495.21,925.799 1468.58,908.386 1442.51,891.334 1416.98,874.635 1391.98,858.284 1367.51,842.274 1343.56,826.597 
  1320.1,811.247 1297.14,796.217 1274.67,781.5 1252.66,767.09 1231.12,752.98 1210.02,739.162 1189.38,725.636 1169.17,712.394 1149.38,699.422 1130,686.717 
  1111.02,674.273 1092.44,662.086 1074.25,650.15 1056.43,638.462 1038.99,627.017 1021.92,615.811 1005.21,604.838 988.848,594.093 972.834,583.574 957.159,573.274 
  941.814,563.19 926.795,553.316 912.092,543.648 897.7,534.182 883.611,524.913 869.821,515.838 856.327,506.955 843.118,498.257 830.182,489.736 817.512,481.389 
  805.106,473.213 792.959,465.205 781.065,457.361 769.421,449.68 758.021,442.157 746.863,434.791 735.94,427.579 725.25,420.517 714.786,413.602 704.545,406.833 
  694.523,400.205 684.714,393.715 675.115,387.362 665.721,381.142 656.527,375.053 647.529,369.09 638.723,363.252 630.103,357.536 621.671,351.941 613.423,346.466 
  605.346,341.102 597.437,335.847 589.691,330.698 582.106,325.653 574.68,320.712 567.409,315.872 560.292,311.132 553.325,306.489 546.507,301.943 539.833,297.491 
  533.302,293.131 526.912,288.863 520.659,284.684 514.54,280.593 508.554,276.588 502.698,272.666 496.968,268.828 491.363,265.07 485.879,261.391 480.514,257.79 
  475.266,254.264 470.131,250.812 465.108,247.433 460.194,244.124 455.389,240.887 450.689,237.717 446.087,234.611 441.58,231.568 437.167,228.586 432.848,225.664 
  428.619,222.801 424.48,219.997 420.43,217.25 416.466,214.559 412.588,211.924 408.794,209.344 405.082,206.818 401.451,204.344 397.9,201.921 394.427,199.55 
  391.03,197.228 387.709,194.956 384.461,192.731 381.285,190.553 378.18,188.421 375.145,186.334 372.177,184.292 369.275,182.292 366.439,180.335 363.665,178.419 
  360.954,176.544 358.304,174.707 355.714,172.911 353.182,171.152 350.704,169.429 348.279,167.739 345.905,166.083 343.582,164.461 341.31,162.871 339.087,161.313 
  336.912,159.787 334.786,158.292 332.706,156.828 330.673,155.394 328.686,153.99 326.743,152.614 324.844,151.268 322.988,149.95 321.175,148.659 319.404,147.396 
  317.673,146.159 315.983,144.948 314.332,143.763 312.719,142.603 311.144,141.468 309.607,140.357 308.105,139.269 306.639,138.205 305.208,137.163 303.81,136.144 
  302.446,135.146 301.114,134.169 299.814,133.213 298.545,132.277 297.305,131.36 296.092,130.461 294.906,129.58 293.748,128.716 292.615,127.87 291.509,127.04 
  290.428,126.227 289.373,125.431 288.342,124.651 287.336,123.887 286.354,123.139 285.396,122.406 284.46,121.688 283.548,120.985 282.658,120.297 281.791,119.624 
  280.945,118.965 280.12,118.319 279.316,117.687 278.533,117.069 277.769,116.464 277.026,115.872 276.302,115.292 275.596,114.725 274.91,114.17 274.241,113.626 
  273.59,113.095 272.957,112.575 272.34,112.065 271.74,111.567 271.157,111.08 270.588,110.602 270.035,110.134 269.495,109.676 268.969,109.226 268.456,108.785 
  267.957,108.353 267.47,107.929 266.997,107.514 266.536,107.107 266.088,106.709 265.653,106.318 265.229,105.936 264.817,105.562 264.417,105.195 264.029,104.836 
  263.652,104.484 263.286,104.14 262.932,103.803 262.588,103.473 262.254,103.15 261.931,102.834 261.619,102.524 261.316,102.222 261.023,101.925 260.74,101.636 
  260.466,101.352 260.201,101.074 259.946,100.803 259.699,100.537 259.461,100.277 259.231,100.023 259.01,99.7736 258.797,99.53 258.591,99.2916 258.393,99.058 
  258.202,98.829 258.017,98.6044 257.839,98.3841 257.668,98.1682 257.502,97.9566 257.344,97.7491 257.191,97.5458 257.045,97.3466 256.904,97.1514 256.77,96.9601 
  256.641,96.7728 256.518,96.5893 256.401,96.4096 256.289,96.2336 256.183,96.0613 256.082,95.8926 255.987,95.7274 255.897,95.5657 255.811,95.4074 255.731,95.2525 
  255.656,95.1009 255.586,94.9525 255.52,94.8074 255.459,94.6653 255.403,94.5263 255.351,94.3903 255.303,94.2573 255.26,94.1271 255.221,93.9998 255.186,93.8752 
  255.155,93.7534 255.128,93.6342 255.105,93.5175 255.085,93.4034 255.069,93.2915 255.056,93.1818 255.046,93.0741 255.039,92.9686 255.036,92.8651 255.035,92.7637 
  255.037,92.6642 255.042,92.5667 255.049,92.4712 255.06,92.3776 255.073,92.2859 255.089,92.196 255.108,92.1079 255.129,92.0217 255.153,91.9373 255.18,91.8546 
  255.209,91.7736 255.24,91.6943 255.274,91.6167 255.31,91.5407 255.349,91.4664 255.389,91.3936 255.432,91.3224 255.478,91.2527 255.525,91.1845 255.575,91.1178 
  255.626,91.0525 255.68,90.9886 255.736,90.9262 255.793,90.8651 255.853,90.8053 255.914,90.7469 255.977,90.6897 256.042,90.6338 256.109,90.5791 256.177,90.5256 
  256.247,90.4732 256.318,90.4217 256.391,90.3713 256.465,90.3218 256.54,90.2732 256.617,90.2256 256.695,90.179 256.774,90.1332 256.854,90.0884 256.936,90.0444 
  257.019,90.0014 257.103,89.9591 257.188,89.9178 257.274,89.8773 257.362,89.8376 257.45,89.7987 257.54,89.7607 257.631,89.7234 257.722,89.6869 257.815,89.6512 
  257.909,89.6162 258.004,89.582 258.1,89.5485 258.196,89.5157 258.294,89.4837 258.393,89.4523 258.492,89.4216 258.592,89.3916 258.694,89.3622 258.796,89.3335 
  258.899,89.3054 259.003,89.2779 259.107,89.251 259.212,89.2247 259.318,89.1991 259.425,89.1739 259.533,89.1494 259.641,89.1253 259.75,89.1018 259.859,89.0786 
  259.969,89.0559 260.079,89.0337 260.19,89.0118 260.301,88.9904 260.413,88.9694 260.525,88.9488 260.638,88.9286 260.751,88.9088 260.865,88.8894 260.979,88.8704 
  261.094,88.8517 261.209,88.8335 261.324,88.8156 261.44,88.7981 261.557,88.7809 261.673,88.7641 261.79,88.7477 261.908,88.7315 262.026,88.7158 262.144,88.7003 
  262.263,88.6852 262.382,88.6705 262.501,88.656 262.621,88.6418 262.741,88.628 262.861,88.6145 262.982,88.6012 263.103,88.5883 263.224,88.5756 263.345,88.5632 
  263.467,88.5511 263.589,88.5393 263.712,88.5277 263.834,88.5164 263.957,88.5053 264.08,88.4945 264.204,88.484 264.327,88.4736 264.451,88.4635 264.575,88.4535 
  264.699,88.4437 264.823,88.4341 264.947,88.4247 265.072,88.4154 265.196,88.4064 265.321,88.3975 265.446,88.3887 265.571,88.3802 265.696,88.3718 265.821,88.3636 
  265.946,88.3555 266.072,88.3476 266.197,88.3399 266.323,88.3323 266.449,88.3249 266.574,88.3176 266.7,88.3105 266.826,88.3035 266.952,88.2967 267.079,88.29 
  267.205,88.2835 267.331,88.2771 267.458,88.2708 267.584,88.2647 267.711,88.2587 267.837,88.2528 267.964,88.2471 268.091,88.2415 268.217,88.236 268.344,88.2307 
  268.471,88.2254 268.598,88.2203 268.725,88.2153 268.852,88.2104 268.979,88.2057 269.106,88.201 269.234,88.1964 269.361,88.192 269.488,88.1876 269.615,88.1834 
  269.742,88.1792 269.87,88.1751 269.997,88.1711 270.124,88.1671 270.251,88.1632 270.378,88.1594 270.505,88.1556 270.632,88.152 270.759,88.1483 270.886,88.1448 
  271.013,88.1413 271.14,88.1379 271.267,88.1346 271.394,88.1313 271.521,88.1281 271.647,88.125 271.774,88.1219 271.901,88.1189 272.028,88.1159 272.154,88.113 
  272.281,88.1102 272.407,88.1074 272.534,88.1047 272.66,88.102 272.787,88.0994 272.913,88.0968 273.04,88.0943 273.166,88.0919 273.292,88.0895 273.418,88.0872 
  273.545,88.0849 273.671,88.0827 273.797,88.0805 273.923,88.0784 274.049,88.0763 274.175,88.0742 274.301,88.0723 274.426,88.0703 274.552,88.0684 274.678,88.0666 
  274.803,88.0648 274.929,88.063 275.054,88.0613 275.18,88.0596 275.305,88.058 275.431,88.0564 275.556,88.0548 275.681,88.0533 275.806,88.0517 275.931,88.0502 
  276.056,88.0488 276.18,88.0473 276.305,88.0459 276.43,88.0445 276.554,88.0431 276.679,88.0418 276.803,88.0405 276.927,88.0392 277.051,88.0379 277.175,88.0366 
  277.299,88.0354 277.423,88.0342 277.547,88.033 277.671,88.0319 277.794,88.0307 277.918,88.0296 278.041,88.0285 278.165,88.0275 278.288,88.0264 278.411,88.0254 
  278.534,88.0244 278.657,88.0234 278.78,88.0225 278.903,88.0215 279.025,88.0206 279.148,88.0197 279.27,88.0188 279.393,88.018 279.515,88.0171 279.637,88.0163 
  279.759,88.0155 279.881,88.0147 280.003,88.014 280.125,88.0132 280.247,88.0125 280.369,88.0118 280.49,88.0111 280.612,88.0104 280.733,88.0098 280.854,88.0091 
  280.976,88.0085 281.097,88.0079 281.218,88.0073 281.338,88.0067 281.459,88.0062 281.58,88.0056 281.701,88.0051 281.821,88.0046 281.941,88.004 282.062,88.0035 
  282.182,88.003 282.302,88.0025 282.422,88.002 282.541,88.0015 282.661,88.0011 282.781,88.0006 282.9,88.0001 283.02,87.9997 283.139,87.9992 283.258,87.9988 
  283.377,87.9984 283.496,87.9979 283.615,87.9975 283.734,87.9971 283.852,87.9967 283.971,87.9963 284.089,87.9959 284.207,87.9956 284.326,87.9952 284.444,87.9948 
  284.562,87.9945 284.68,87.9941 284.797,87.9938 284.915,87.9934 285.032,87.9931 285.15,87.9928 285.267,87.9925 285.384,87.9922 285.502,87.9919 285.619,87.9916 
  285.736,87.9913 285.852,87.991 285.969,87.9907 286.086,87.9905 286.202,87.9902 286.318,87.9899 286.435,87.9897 286.551,87.9895 286.667,87.9892 286.783,87.989 
  286.899,87.9888 287.014,87.9886 287.13,87.9883 287.246,87.9881 287.361,87.9879 287.476,87.9877 287.591,87.9876 287.707,87.9874 287.821,87.9872 287.936,87.987 
  288.051,87.9869 288.166,87.9867 288.28,87.9866 288.395,87.9864 288.509,87.9863 288.623,87.9861 288.737,87.986 288.851,87.9858 288.965,87.9857 289.079,87.9855 
  289.193,87.9854 289.306,87.9852 289.42,87.9851 289.533,87.9849 289.646,87.9848 289.759,87.9847 289.872,87.9845 289.985,87.9844 290.098,87.9843 290.211,87.9842 
  290.323,87.984 290.436,87.9839 290.548,87.9838 290.66,87.9837 290.772,87.9836 290.884,87.9834 290.996,87.9833 291.108,87.9832 291.22,87.9831 291.331,87.983 
  291.443,87.9829 291.554,87.9828 291.665,87.9827 291.776,87.9826 291.887,87.9825 291.998,87.9824 292.109,87.9823 292.22,87.9822 292.33,87.9821 292.441,87.982 
  292.551,87.982 292.662,87.9819 292.772,87.9818 292.882,87.9817 292.992,87.9816 293.102,87.9816 293.211,87.9815 293.321,87.9814 293.431,87.9813 293.54,87.9813 
  293.649,87.9812 293.758,87.9812 293.868,87.9811 293.977,87.981 294.085,87.981 294.194,87.9809 294.303,87.9809 294.411,87.9808 294.52,87.9808 294.628,87.9807 
  294.737,87.9807 294.845,87.9806 294.953,87.9806 295.061,87.9805 295.168,87.9805 295.276,87.9805 295.384,87.9804 295.491,87.9804 295.599,87.9804 295.706,87.9803 
  295.813,87.9803 295.92,87.9803 296.027,87.9802 296.134,87.9802 296.241,87.9802 296.348,87.9801 296.454,87.9801 296.561,87.9801 296.667,87.98 296.773,87.98 
  296.879,87.98 296.985,87.9799 297.091,87.9799 297.197,87.9799 297.303,87.9798 297.408,87.9798 297.514,87.9798 297.619,87.9797 297.725,87.9797 297.83,87.9797 
  297.935,87.9797 298.04,87.9796 298.145,87.9796 298.249,87.9796 298.354,87.9795 298.459,87.9795 298.563,87.9795 298.667,87.9795 298.772,87.9794 298.876,87.9794 
  298.98,87.9794 299.084,87.9793 299.188,87.9793 299.291,87.9793 299.395,87.9793 299.498,87.9792 299.602,87.9792 299.705,87.9792 299.808,87.9792 299.912,87.9792 
  300.015,87.9791 300.117,87.9791 300.22,87.9791 300.323,87.9791 300.426,87.979 300.528,87.979 300.63,87.979 300.733,87.979 300.835,87.979 300.937,87.979 
  301.039,87.9789 301.141,87.9789 301.243,87.9789 301.344,87.9789 301.446,87.9789 301.547,87.9789 301.649,87.9788 301.75,87.9788 301.851,87.9788 301.952,87.9788 
  302.053,87.9788 302.154,87.9788 302.255,87.9788 302.356,87.9788 302.456,87.9788 302.557,87.9787 302.657,87.9787 302.757,87.9787 302.858,87.9787 302.958,87.9787 
  303.058,87.9787 303.158,87.9787 303.257,87.9787 303.357,87.9787 303.457,87.9787 303.556,87.9787 303.655,87.9787 303.755,87.9787 303.854,87.9787 303.953,87.9787 
  304.052,87.9787 304.151,87.9787 304.25,87.9787 304.348,87.9787 304.447,87.9787 304.546,87.9787 304.644,87.9787 304.742,87.9786 304.84,87.9786 304.939,87.9786 
  305.037,87.9786 305.134,87.9786 305.232,87.9786 305.33,87.9786 305.428,87.9786 305.525,87.9786 305.623,87.9786 305.72,87.9786 305.817,87.9786 305.914,87.9786 
  306.011,87.9786 306.108,87.9786 306.205,87.9786 306.302,87.9786 306.398,87.9785 306.495,87.9785 306.591,87.9785 306.688,87.9785 306.784,87.9785 306.88,87.9785 
  306.976,87.9785 307.072,87.9785 307.168,87.9785 307.264,87.9785 307.36,87.9785 307.455,87.9785 307.551,87.9785 307.646,87.9785 307.741,87.9785 307.837,87.9785 
  307.932,87.9785 308.027,87.9785 308.122,87.9784 308.216,87.9784 308.311,87.9784 308.406,87.9784 308.5,87.9784 308.595,87.9784 308.689,87.9784 308.783,87.9784 
  308.878,87.9784 308.972,87.9784 309.066,87.9784 309.159,87.9784 309.253,87.9784 309.347,87.9784 309.441,87.9784 309.534,87.9784 309.627,87.9784 309.721,87.9784 
  309.814,87.9784 309.907,87.9784 310,87.9784 310.093,87.9784 310.186,87.9784 310.279,87.9784 310.371,87.9784 310.464,87.9783 310.556,87.9783 310.649,87.9783 
  310.741,87.9783 310.833,87.9783 310.926,87.9783 311.018,87.9783 311.109,87.9783 311.201,87.9783 311.293,87.9783 311.385,87.9783 311.476,87.9783 311.568,87.9783 
  311.659,87.9783 311.75,87.9783 311.842,87.9783 311.933,87.9783 312.024,87.9783 312.115,87.9783 312.206,87.9783 312.296,87.9783 312.387,87.9783 312.478,87.9783 
  312.568,87.9783 312.658,87.9783 312.749,87.9783 312.839,87.9783 312.929,87.9783 313.019,87.9783 313.109,87.9784 313.199,87.9784 313.289,87.9784 313.378,87.9784 
  313.468,87.9784 313.557,87.9784 313.647,87.9784 313.736,87.9784 313.825,87.9784 313.914,87.9784 314.003,87.9784 314.092,87.9784 314.181,87.9784 314.27,87.9784 
  314.359,87.9784 314.447,87.9784 314.536,87.9784 314.624,87.9783 314.713,87.9783 314.801,87.9783 314.889,87.9783 314.977,87.9783 315.065,87.9783 315.153,87.9783 
  315.241,87.9783 315.328,87.9783 315.416,87.9783 315.504,87.9783 315.591,87.9783 315.678,87.9783 315.766,87.9783 315.853,87.9783 315.94,87.9783 316.027,87.9783 
  316.114,87.9783 316.201,87.9783 316.288,87.9783 316.374,87.9783 316.461,87.9783 316.547,87.9783 316.634,87.9783 316.72,87.9783 316.806,87.9783 316.892,87.9783 
  316.979,87.9783 317.065,87.9783 317.15,87.9783 317.236,87.9783 317.322,87.9783 317.408,87.9783 317.493,87.9783 317.579,87.9783 317.664,87.9783 317.749,87.9783 
  317.834,87.9783 317.92,87.9783 318.005,87.9783 318.09,87.9783 318.174,87.9783 318.259,87.9783 318.344,87.9783 318.429,87.9783 318.513,87.9783 318.598,87.9783 
  318.682,87.9783 318.766,87.9783 318.85,87.9783 318.934,87.9783 319.018,87.9783 319.102,87.9783 319.186,87.9783 319.27,87.9783 319.354,87.9783 319.437,87.9783 
  319.521,87.9783 319.604,87.9783 319.688,87.9783 319.771,87.9783 319.854,87.9783 319.937,87.9783 320.02,87.9783 320.103,87.9783 320.186,87.9783 320.269,87.9783 
  320.352,87.9783 320.434,87.9783 320.517,87.9783 320.599,87.9783 320.681,87.9783 320.764,87.9783 320.846,87.9783 320.928,87.9783 321.01,87.9783 321.092,87.9783 
  321.174,87.9783 321.256,87.9783 321.337,87.9783 321.419,87.9783 321.501,87.9783 321.582,87.9783 321.663,87.9783 321.745,87.9783 321.826,87.9783 321.907,87.9783 
  321.988,87.9783 322.069,87.9783 322.15,87.9783 322.231,87.9783 322.311,87.9783 322.392,87.9783 322.473,87.9783 322.553,87.9783 322.634,87.9783 322.714,87.9783 
  322.794,87.9783 322.874,87.9783 322.954,87.9783 323.034,87.9783 323.114,87.9783 323.194,87.9783 323.274,87.9783 323.354,87.9783 323.433,87.9783 323.513,87.9783 
  323.592,87.9783 323.672,87.9783 323.751,87.9783 323.83,87.9783 323.909,87.9783 323.988,87.9783 324.067,87.9783 324.146,87.9783 324.225,87.9783 324.304,87.9783 
  324.382,87.9783 324.461,87.9783 324.539,87.9783 324.618,87.9783 324.696,87.9783 324.775,87.9783 324.853,87.9783 324.931,87.9783 325.009,87.9783 325.087,87.9783 
  325.165,87.9783 325.242,87.9783 325.32,87.9783 325.398,87.9783 325.475,87.9783 325.553,87.9783 325.63,87.9783 325.708,87.9783 325.785,87.9783 325.862,87.9783 
  325.939,87.9783 326.016,87.9783 326.093,87.9783 326.17,87.9783 326.247,87.9783 326.324,87.9783 326.4,87.9783 326.477,87.9783 326.553,87.9783 326.63,87.9783 
  326.706,87.9783 326.782,87.9783 326.858,87.9783 326.935,87.9783 327.011,87.9783 327.086,87.9783 327.162,87.9783 327.238,87.9783 327.314,87.9783 327.39,87.9783 
  327.465,87.9783 327.541,87.9783 327.616,87.9783 327.691,87.9783 327.767,87.9783 327.842,87.9783 327.917,87.9783 327.992,87.9783 328.067,87.9783 328.142,87.9783 
  328.217,87.9783 328.291,87.9783 328.366,87.9783 328.441,87.9783 328.515,87.9783 328.59,87.9783 328.664,87.9783 328.738,87.9783 328.813,87.9783 328.887,87.9783 
  328.961,87.9783 329.035,87.9783 329.109,87.9783 329.183,87.9783 329.256,87.9783 329.33,87.9783 329.404,87.9783 329.477,87.9783 329.551,87.9783 329.624,87.9783 
  329.698,87.9783 329.771,87.9783 329.844,87.9783 329.917,87.9783 329.99,87.9783 330.063,87.9783 330.136,87.9783 330.209,87.9783 330.282,87.9783 330.354,87.9783 
  330.427,87.9783 330.5,87.9783 330.572,87.9783 330.644,87.9783 330.717,87.9783 330.789,87.9783 330.861,87.9783 330.933,87.9783 331.005,87.9783 331.077,87.9783 
  331.149,87.9783 331.221,87.9783 331.293,87.9783 331.364,87.9783 331.436,87.9783 331.507,87.9783 331.579,87.9783 331.65,87.9783 331.722,87.9783 331.793,87.9783 
  331.864,87.9783 331.935,87.9783 332.006,87.9783 332.077,87.9783 332.148,87.9783 332.219,87.9783 332.29,87.9783 332.36,87.9783 332.431,87.9783 332.501,87.9783 
  332.572,87.9783 332.642,87.9783 332.713,87.9783 332.783,87.9783 332.853,87.9783 332.923,87.9783 332.993,87.9783 333.063,87.9783 333.133,87.9783 333.203,87.9783 
  333.273,87.9783 333.342,87.9783 333.412,87.9783 333.482,87.9783 333.551,87.9783 333.62,87.9783 333.69,87.9783 333.759,87.9783 333.828,87.9783 333.897,87.9783 
  333.966,87.9783 334.035,87.9783 334.104,87.9783 334.173,87.9783 334.242,87.9783 334.311,87.9783 334.379,87.9783 334.448,87.9783 334.517,87.9783 334.585,87.9783 
  334.653,87.9783 334.722,87.9783 334.79,87.9783 334.858,87.9783 334.926,87.9783 334.994,87.9783 335.062,87.9783 335.13,87.9783 335.198,87.9783 335.266,87.9783 
  335.333,87.9783 335.401,87.9783 335.469,87.9783 335.536,87.9783 335.604,87.9783 335.671,87.9783 335.738,87.9783 335.805,87.9783 335.873,87.9783 335.94,87.9783 
  336.007,87.9783 336.074,87.9783 336.141,87.9783 336.207,87.9783 336.274,87.9783 336.341,87.9783 336.408,87.9783 336.474,87.9783 336.541,87.9783 336.607,87.9783 
  336.673,87.9783 336.74,87.9783 336.806,87.9783 336.872,87.9783 336.938,87.9783 337.004,87.9783 337.07,87.9783 337.136,87.9783 337.202,87.9783 337.268,87.9783 
  337.333,87.9783 337.399,87.9783 337.465,87.9783 337.53,87.9783 337.595,87.9783 337.661,87.9783 337.726,87.9783 337.791,87.9783 337.857,87.9783 337.922,87.9783 
  337.987,87.9783 338.052,87.9783 338.117,87.9783 338.181,87.9783 338.246,87.9783 338.311,87.9783 338.376,87.9783 338.44,87.9783 338.505,87.9783 338.569,87.9783 
  338.634,87.9783 338.698,87.9783 338.762,87.9783 338.826,87.9783 338.891,87.9783 338.955,87.9783 339.019,87.9783 339.083,87.9783 339.147,87.9783 339.21,87.9783 
  339.274,87.9783 339.338,87.9783 339.401,87.9783 339.465,87.9783 339.529,87.9783 339.592,87.9783 339.655,87.9783 339.719,87.9783 339.782,87.9783 339.845,87.9783 
  339.908,87.9783 339.971,87.9783 340.034,87.9783 340.097,87.9783 340.16,87.9783 340.223,87.9783 340.286,87.9783 340.348,87.9783 340.411,87.9783 340.474,87.9783 
  340.536,87.9783 340.598,87.9783 340.661,87.9783 340.723,87.9783 340.785,87.9783 340.848,87.9783 340.91,87.9783 340.972,87.9783 341.034,87.9783 341.096,87.9783 
  341.158,87.9783 341.219,87.9783 341.281,87.9783 341.343,87.9783 341.404,87.9783 341.466,87.9783 341.528,87.9783 341.589,87.9783 341.65,87.9783 341.712,87.9783 
  341.773,87.9783 341.834,87.9783 341.895,87.9783 341.956,87.9783 342.017,87.9783 342.078,87.9783 342.139,87.9783 342.2,87.9783 342.261,87.9783 342.322,87.9783 
  342.382,87.9783 342.443,87.9783 342.503,87.9783 342.564,87.9783 342.624,87.9783 342.685,87.9783 342.745,87.9783 342.805,87.9783 342.865,87.9783 342.925,87.9783 
  342.985,87.9782 343.045,87.9782 343.105,87.9782 343.165,87.9782 343.225,87.9782 343.285,87.9782 343.344,87.9782 343.404,87.9782 343.464,87.9782 343.523,87.9782 
  343.583,87.9782 343.642,87.9782 343.701,87.9782 343.761,87.9782 343.82,87.9782 343.879,87.9782 343.938,87.9782 343.997,87.9782 344.056,87.9782 344.115,87.9782 
  344.174,87.9782 344.233,87.9782 344.291,87.9782 344.35,87.9782 344.409,87.9782 344.467,87.9782 344.526,87.9782 344.584,87.9782 344.642,87.9782 344.701,87.9782 
  344.759,87.9782 344.817,87.9782 344.875,87.9782 344.934,87.9782 344.992,87.9782 345.05,87.9782 345.107,87.9782 345.165,87.9782 345.223,87.9782 345.281,87.9782 
  345.339,87.9782 345.396,87.9782 345.454,87.9782 345.511,87.9782 345.569,87.9782 345.626,87.9782 345.684,87.9782 345.741,87.9782 345.798,87.9782 345.855,87.9782 
  345.912,87.9782 345.969,87.9782 346.026,87.9782 346.083,87.9782 346.14,87.9782 346.197,87.9782 346.254,87.9782 346.311,87.9782 346.367,87.9783 346.424,87.9783 
  346.48,87.9783 346.537,87.9783 346.593,87.9783 346.65,87.9783 346.706,87.9783 346.762,87.9783 346.819,87.9783 346.875,87.9783 346.931,87.9783 346.987,87.9783 
  347.043,87.9783 347.099,87.9783 347.155,87.9783 347.21,87.9783 347.266,87.9783 347.322,87.9783 347.378,87.9783 347.433,87.9783 347.489,87.9783 347.544,87.9783 
  347.6,87.9783 347.655,87.9783 347.71,87.9783 347.766,87.9783 347.821,87.9783 347.876,87.9783 347.931,87.9783 347.986,87.9783 348.041,87.9783 348.096,87.9783 
  348.151,87.9784 348.206,87.9784 348.261,87.9784 348.315,87.9784 348.37,87.9784 348.425,87.9784 348.479,87.9784 348.534,87.9784 348.588,87.9784 348.642,87.9784 
  348.697,87.9784 348.751,87.9784 348.805,87.9785 348.86,87.9785 348.914,87.9785 348.968,87.9785 349.022,87.9785 349.076,87.9785 349.13,87.9785 349.183,87.9785 
  349.237,87.9785 349.291,87.9785 349.345,87.9785 349.398,87.9785 349.452,87.9785 349.505,87.9785 349.559,87.9785 349.612,87.9785 349.666,87.9785 349.719,87.9785 
  349.772,87.9785 349.825,87.9785 349.879,87.9785 349.932,87.9785 349.985,87.9785 350.038,87.9785 350.091,87.9785 350.144,87.9785 350.196,87.9785 350.249,87.9785 
  350.302,87.9785 350.355,87.9785 350.407,87.9785 350.46,87.9785 350.512,87.9785 350.565,87.9785 350.617,87.9785 350.669,87.9785 350.722,87.9785 350.774,87.9785 
  350.826,87.9785 350.878,87.9785 350.93,87.9785 350.983,87.9785 351.034,87.9785 351.086,87.9785 351.138,87.9785 351.19,87.9785 351.242,87.9785 351.294,87.9785 
  351.345,87.9785 351.397,87.9785 351.449,87.9784 351.5,87.9784 351.552,87.9784 351.603,87.9784 351.654,87.9784 351.706,87.9784 351.757,87.9784 351.808,87.9784 
  351.859,87.9784 351.91,87.9784 351.961,87.9784 352.012,87.9784 352.063,87.9784 352.114,87.9784 352.165,87.9784 352.216,87.9784 352.267,87.9784 352.317,87.9783 
  352.368,87.9783 352.419,87.9783 352.469,87.9783 352.52,87.9783 352.57,87.9783 352.621,87.9783 352.671,87.9783 352.721,87.9783 352.771,87.9783 352.822,87.9783 
  352.872,87.9783 352.922,87.9783 352.972,87.9783 353.022,87.9783 353.072,87.9782 353.122,87.9782 353.172,87.9782 353.221,87.9782 353.271,87.9782 353.321,87.9782 
  353.371,87.9782 353.42,87.9782 353.47,87.9782 353.519,87.9782 353.569,87.9782 353.618,87.9782 353.667,87.9782 353.717,87.9782 353.766,87.9782 353.815,87.9781 
  353.864,87.9781 353.913,87.9781 353.962,87.9781 354.011,87.9781 354.06,87.9781 354.109,87.9781 354.158,87.9781 354.207,87.9781 354.256,87.9781 354.304,87.9781 
  354.353,87.9781 354.402,87.9781 354.45,87.9781 354.499,87.9781 354.547,87.9781 354.596,87.9781 354.644,87.978 354.692,87.978 354.741,87.978 354.789,87.978 
  354.837,87.978 354.885,87.978 354.933,87.978 354.981,87.978 355.029,87.978 355.077,87.978 355.125,87.978 355.173,87.978 355.221,87.978 355.269,87.978 
  355.316,87.978 355.364,87.978 355.412,87.978 355.459,87.978 355.507,87.978 355.554,87.978 355.602,87.978 355.649,87.978 355.696,87.978 355.744,87.978 
  355.791,87.978 355.838,87.978 355.885,87.978 355.932,87.978 355.979,87.978 356.026,87.978 356.073,87.978 356.12,87.978 356.167,87.978 356.214,87.978 
  356.26,87.978 356.307,87.978 356.354,87.978 356.4,87.978 356.447,87.978 356.494,87.978 356.54,87.978 356.587,87.978 356.633,87.978 356.679,87.978 
  356.726,87.978 356.772,87.978 356.818,87.978 356.864,87.978 356.91,87.978 356.956,87.978 357.002,87.978 357.048,87.978 357.094,87.978 357.14,87.978 
  357.186,87.978 357.232,87.9781 357.278,87.9781 357.323,87.9781 357.369,87.9781 357.415,87.9781 357.46,87.9781 357.506,87.9781 357.551,87.9781 357.597,87.9781 
  357.642,87.9781 357.687,87.9781 357.733,87.9782 357.778,87.9782 357.823,87.9782 357.868,87.9782 357.914,87.9782 357.959,87.9782 358.004,87.9782 358.049,87.9782 
  358.094,87.9783 358.138,87.9783 358.183,87.9783 358.228,87.9783 358.273,87.9783 358.318,87.9783 358.362,87.9783 358.407,87.9784 358.452,87.9784 358.496,87.9784 
  358.541,87.9784 358.585,87.9784 358.63,87.9784 358.674,87.9785 358.718,87.9785 358.763,87.9785 358.807,87.9785 358.851,87.9786 358.895,87.9786 358.939,87.9787 
  358.983,87.9787 359.028,87.9787 359.072,87.9788 359.115,87.9788 359.159,87.9788 359.203,87.9788 359.247,87.9789 359.291,87.9789 359.335,87.9789 359.378,87.979 
  359.422,87.979 359.465,87.979 359.509,87.979 359.553,87.979 359.596,87.9791 359.639,87.9791 359.683,87.9791 359.726,87.9791 359.769,87.9791 359.813,87.9791 
  359.856,87.9791 359.899,87.9791 359.942,87.9791 359.985,87.9792 360.028,87.9792 360.071,87.9792 360.114,87.9792 360.157,87.9792 360.2,87.9792 360.242,87.9792 
  360.285,87.9792 360.328,87.9792 360.37,87.9792 360.413,87.9792 360.456,87.9792 360.498,87.9792 360.541,87.9791 360.583,87.9791 360.625,87.9791 360.668,87.9791 
  360.71,87.9791 360.752,87.9791 360.795,87.9791 360.837,87.9791 360.879,87.9791 360.921,87.9791 360.963,87.979 361.005,87.979 361.047,87.979 361.089,87.979 
  361.131,87.979 361.173,87.979 361.214,87.979 361.256,87.9789 361.298,87.9789 361.339,87.9789 361.381,87.9789 361.423,87.9789 361.464,87.9788 361.506,87.9788 
  361.547,87.9788 361.588,87.9788 361.63,87.9787 361.671,87.9787 361.712,87.9787 361.754,87.9787 361.795,87.9787 361.836,87.9786 361.877,87.9786 361.918,87.9786 
  361.959,87.9786 362,87.9785 362.041,87.9785 362.082,87.9785 362.123,87.9785 362.164,87.9784 362.205,87.9784 362.245,87.9784 362.286,87.9783 362.327,87.9783 
  362.367,87.9783 362.408,87.9783 362.448,87.9782 362.489,87.9782 362.529,87.9782 362.57,87.9782 362.61,87.9781 362.65,87.9781 362.691,87.9781 362.731,87.978 
  362.771,87.978 362.811,87.978 362.851,87.978 362.892,87.9779 362.932,87.9779 362.972,87.9779 363.012,87.9779 363.051,87.9778 363.091,87.9778 363.131,87.9778 
  363.171,87.9778 363.211,87.9777 363.251,87.9777 363.29,87.9777 363.33,87.9777 363.37,87.9776 363.409,87.9776 363.449,87.9776 363.488,87.9776 363.528,87.9775 
  363.567,87.9775 363.606,87.9775 363.646,87.9775 363.685,87.9774 363.724,87.9774 363.764,87.9774 363.803,87.9774 363.842,87.9774 363.881,87.9773 363.92,87.9773 
  363.959,87.9773 363.998,87.9773 364.037,87.9773 364.076,87.9773 364.115,87.9772 364.154,87.9772 364.192,87.9772 364.231,87.9772 364.27,87.9772 364.309,87.9772 
  364.347,87.9772 364.386,87.9772 364.425,87.9772 364.463,87.9771 364.502,87.9771 364.54,87.9771 364.578,87.9771 364.617,87.9771 364.655,87.9771 364.694,87.9771 
  364.732,87.9771 364.77,87.9771 364.808,87.9771 364.846,87.9771 364.885,87.9771 364.923,87.9771 364.961,87.9771 364.999,87.9771 365.037,87.9771 365.075,87.9771 
  365.113,87.9771 365.15,87.9772 365.188,87.9772 365.226,87.9772 365.264,87.9772 365.302,87.9772 365.339,87.9772 365.377,87.9772 365.415,87.9772 365.452,87.9773 
  365.49,87.9773 365.527,87.9773 365.565,87.9773 365.602,87.9774 365.64,87.9774 365.677,87.9774 365.714,87.9774 365.752,87.9775 365.789,87.9775 365.826,87.9775 
  365.863,87.9776 365.901,87.9776 365.938,87.9776 365.975,87.9777 366.012,87.9777 366.049,87.9777 366.086,87.9778 366.123,87.9778 366.16,87.9779 366.197,87.9779 
  366.234,87.978 366.27,87.978 366.307,87.9781 366.344,87.9781 366.381,87.9782 366.417,87.9782 366.454,87.9783 366.491,87.9784 366.527,87.9784 366.564,87.9785 
  366.6,87.9785 366.637,87.9786 366.673,87.9787 366.71,87.9788 366.746,87.9788 366.782,87.9789 366.819,87.979 366.855,87.9791 366.891,87.9791 366.927,87.9792 
  366.964,87.9793 367,87.9793 367.036,87.9794 367.072,87.9795 367.108,87.9795 367.144,87.9796 367.18,87.9796 367.216,87.9797 367.251,87.9797 367.287,87.9798 
  367.323,87.9798 367.359,87.9798 367.394,87.9799 367.43,87.9799 367.466,87.9799 367.501,87.9799 367.537,87.98 367.572,87.98 367.608,87.98 367.643,87.98 
  367.678,87.98 367.714,87.98 367.749,87.98 367.784,87.9801 367.819,87.9801 367.855,87.9801 367.89,87.9801 367.925,87.9801 367.96,87.98 367.995,87.98 
  368.03,87.98 368.065,87.98 368.1,87.98 368.135,87.98 368.169,87.98 368.204,87.98 368.239,87.9799 368.274,87.9799 368.308,87.9799 368.343,87.9799 
  368.378,87.9798 368.412,87.9798 368.447,87.9798 368.481,87.9798 368.516,87.9797 368.55,87.9797 368.584,87.9797 368.619,87.9796 368.653,87.9796 368.687,87.9795 
  368.722,87.9795 368.756,87.9795 368.79,87.9794 368.824,87.9794 368.858,87.9793 368.892,87.9793 368.926,87.9792 368.96,87.9792 368.994,87.9791 369.028,87.9791 
  369.062,87.9791 369.096,87.979 369.13,87.979 369.164,87.9789 369.197,87.9788 369.231,87.9788 369.265,87.9787 369.298,87.9787 369.332,87.9786 369.365,87.9786 
  369.399,87.9785 369.433,87.9785 369.466,87.9784 369.499,87.9784 369.533,87.9783 369.566,87.9783 369.6,87.9782 369.633,87.9781 369.666,87.9781 369.699,87.978 
  369.733,87.978 369.766,87.9779 369.799,87.9779 369.832,87.9778 369.865,87.9778 369.898,87.9777 369.931,87.9777 369.964,87.9776 369.997,87.9776 370.03,87.9775 
  370.063,87.9774 370.096,87.9774 370.128,87.9773 370.161,87.9773 370.194,87.9772 370.227,87.9772 370.259,87.9771 370.292,87.9771 370.325,87.9771 370.357,87.977 
  370.39,87.977 370.422,87.9769 370.455,87.9769 370.487,87.9768 370.52,87.9768 370.552,87.9768 370.584,87.9767 370.617,87.9767 370.649,87.9767 370.681,87.9766 
  370.714,87.9766 370.746,87.9766 370.778,87.9765 370.81,87.9765 370.842,87.9765 370.874,87.9764 370.907,87.9764 370.939,87.9764 370.971,87.9764 371.003,87.9764 
  371.035,87.9763 371.066,87.9763 371.098,87.9763 371.13,87.9763 371.162,87.9763 371.194,87.9763 371.226,87.9763 371.257,87.9763 371.289,87.9763 371.321,87.9763 
  371.352,87.9763 371.384,87.9763 371.416,87.9763 371.447,87.9763 371.479,87.9763 371.51,87.9763 371.542,87.9763 371.573,87.9764 371.605,87.9764 371.636,87.9764 
  371.668,87.9764 371.699,87.9765 371.73,87.9765 371.762,87.9765 371.793,87.9766 371.824,87.9766 371.855,87.9767 371.887,87.9767 371.918,87.9768 371.949,87.9768 
  371.98,87.9769 372.011,87.9769 372.042,87.977 372.073,87.977 372.104,87.9771 372.135,87.9772 372.166,87.9773 372.197,87.9773 372.228,87.9774 372.259,87.9775 
  372.29,87.9776 372.321,87.9777 372.351,87.9778 372.382,87.9779 372.413,87.978 372.444,87.9781 372.474,87.9782 372.505,87.9783 372.536,87.9784 372.566,87.9785 
  372.597,87.9787 372.628,87.9788 372.658,87.9789 372.689,87.9791 372.719,87.9792 372.75,87.9793 372.78,87.9795 372.81,87.9795 372.84,87.9795 372.871,87.9794 
  372.901,87.9794 372.931,87.9794 372.961,87.9794 372.991,87.9794 373.021,87.9794 373.051,87.9793 373.081,87.9793 373.11,87.9793 373.14,87.9793 373.17,87.9793 
  373.2,87.9793 373.23,87.9792 373.259,87.9792 373.289,87.9792 373.319,87.9792 373.348,87.9792 373.378,87.9791 373.408,87.9791 373.437,87.9791 373.467,87.9791 
  373.496,87.9791 373.526,87.9791 373.555,87.979 373.585,87.979 373.614,87.979 373.643,87.979 373.673,87.979 373.702,87.979 373.731,87.9789 373.76,87.9789 
  373.79,87.9789 373.819,87.9789 373.848,87.9789 373.877,87.9789 373.906,87.9788 373.935,87.9788 373.964,87.9788 373.993,87.9788 374.022,87.9788 374.051,87.9788 
  374.08,87.9788 374.109,87.9787 374.138,87.9787 374.167,87.9787 374.195,87.9787 374.224,87.9787 374.253,87.9787 374.282,87.9787 374.31,87.9786 374.339,87.9786 
  374.368,87.9786 374.396,87.9786 374.425,87.9786 374.453,87.9786 374.482,87.9786 374.51,87.9786 374.539,87.9786 374.567,87.9785 374.596,87.9785 374.624,87.9785 
  374.652,87.9785 374.681,87.9785 374.709,87.9785 374.737,87.9785 374.765,87.9785 374.794,87.9785 374.822,87.9785 374.85,87.9785 374.878,87.9785 374.906,87.9785 
  374.934,87.9785 374.962,87.9785 374.99,87.9785 375.018,87.9785 375.046,87.9785 375.074,87.9784 375.102,87.9784 375.13,87.9784 375.158,87.9784 375.186,87.9784 
  375.214,87.9784 375.241,87.9785 375.269,87.9785 375.297,87.9785 375.325,87.9785 375.352,87.9785 375.38,87.9785 375.407,87.9785 375.435,87.9785 375.463,87.9785 
  
  "/>
<path clip-path="url(#clip480)" d="
M1988.36 198.898 L2280.8 198.898 L2280.8 95.2176 L1988.36 95.2176  Z
  " fill="#ffffff" fill-rule="evenodd" fill-opacity="1"/>
<polyline clip-path="url(#clip480)" style="stroke:#000000; stroke-linecap:butt; stroke-linejoin:round; stroke-width:4; stroke-opacity:1; fill:none" points="
  1988.36,198.898 2280.8,198.898 2280.8,95.2176 1988.36,95.2176 1988.36,198.898 
  "/>
<polyline clip-path="url(#clip480)" style="stroke:#009af9; stroke-linecap:butt; stroke-linejoin:round; stroke-width:4; stroke-opacity:1; fill:none" points="
  2012.36,147.058 2156.36,147.058 
  "/>
<path clip-path="url(#clip480)" d="M2194.21 166.745 Q2192.4 171.375 2190.69 172.787 Q2188.98 174.199 2186.11 174.199 L2182.7 174.199 L2182.7 170.634 L2185.2 170.634 Q2186.96 170.634 2187.93 169.8 Q2188.91 168.967 2190.09 165.865 L2190.85 163.921 L2180.36 138.412 L2184.88 138.412 L2192.98 158.689 L2201.08 138.412 L2205.6 138.412 L2194.21 166.745 Z" fill="#000000" fill-rule="evenodd" fill-opacity="1" /><path clip-path="url(#clip480)" d="M2212.89 160.402 L2220.53 160.402 L2220.53 134.037 L2212.22 135.703 L2212.22 131.444 L2220.48 129.778 L2225.16 129.778 L2225.16 160.402 L2232.8 160.402 L2232.8 164.338 L2212.89 164.338 L2212.89 160.402 Z" fill="#000000" fill-rule="evenodd" fill-opacity="1" /></svg>
