<?xml version="1.0" encoding="utf-8"?>
<svg xmlns="http://www.w3.org/2000/svg" xmlns:xlink="http://www.w3.org/1999/xlink" width="600" height="400" viewBox="0 0 2400 1600">
<defs>
  <clipPath id="clip580">
    <rect x="0" y="0" width="2400" height="1600"/>
  </clipPath>
</defs>
<path clip-path="url(#clip580)" d="
M0 1600 L2400 1600 L2400 0 L0 0  Z
  " fill="#ffffff" fill-rule="evenodd" fill-opacity="1"/>
<defs>
  <clipPath id="clip581">
    <rect x="480" y="0" width="1681" height="1600"/>
  </clipPath>
</defs>
<path clip-path="url(#clip580)" d="
M193.936 1486.45 L2352.76 1486.45 L2352.76 47.2441 L193.936 47.2441  Z
  " fill="#ffffff" fill-rule="evenodd" fill-opacity="1"/>
<defs>
  <clipPath id="clip582">
    <rect x="193" y="47" width="2160" height="1440"/>
  </clipPath>
</defs>
<polyline clip-path="url(#clip582)" style="stroke:#000000; stroke-linecap:butt; stroke-linejoin:round; stroke-width:2; stroke-opacity:0.1; fill:none" points="
  377.891,1486.45 377.891,47.2441 
  "/>
<polyline clip-path="url(#clip582)" style="stroke:#000000; stroke-linecap:butt; stroke-linejoin:round; stroke-width:2; stroke-opacity:0.1; fill:none" points="
  918.113,1486.45 918.113,47.2441 
  "/>
<polyline clip-path="url(#clip582)" style="stroke:#000000; stroke-linecap:butt; stroke-linejoin:round; stroke-width:2; stroke-opacity:0.1; fill:none" points="
  1458.33,1486.45 1458.33,47.2441 
  "/>
<polyline clip-path="url(#clip582)" style="stroke:#000000; stroke-linecap:butt; stroke-linejoin:round; stroke-width:2; stroke-opacity:0.1; fill:none" points="
  1998.56,1486.45 1998.56,47.2441 
  "/>
<polyline clip-path="url(#clip580)" style="stroke:#000000; stroke-linecap:butt; stroke-linejoin:round; stroke-width:4; stroke-opacity:1; fill:none" points="
  193.936,1486.45 2352.76,1486.45 
  "/>
<polyline clip-path="url(#clip580)" style="stroke:#000000; stroke-linecap:butt; stroke-linejoin:round; stroke-width:4; stroke-opacity:1; fill:none" points="
  377.891,1486.45 377.891,1467.55 
  "/>
<polyline clip-path="url(#clip580)" style="stroke:#000000; stroke-linecap:butt; stroke-linejoin:round; stroke-width:4; stroke-opacity:1; fill:none" points="
  918.113,1486.45 918.113,1467.55 
  "/>
<polyline clip-path="url(#clip580)" style="stroke:#000000; stroke-linecap:butt; stroke-linejoin:round; stroke-width:4; stroke-opacity:1; fill:none" points="
  1458.33,1486.45 1458.33,1467.55 
  "/>
<polyline clip-path="url(#clip580)" style="stroke:#000000; stroke-linecap:butt; stroke-linejoin:round; stroke-width:4; stroke-opacity:1; fill:none" points="
  1998.56,1486.45 1998.56,1467.55 
  "/>
<path clip-path="url(#clip580)" d="M355.276 1517.37 Q351.665 1517.37 349.836 1520.93 Q348.031 1524.47 348.031 1531.6 Q348.031 1538.71 349.836 1542.27 Q351.665 1545.82 355.276 1545.82 Q358.91 1545.82 360.716 1542.27 Q362.544 1538.71 362.544 1531.6 Q362.544 1524.47 360.716 1520.93 Q358.91 1517.37 355.276 1517.37 M355.276 1513.66 Q361.086 1513.66 364.142 1518.27 Q367.22 1522.85 367.22 1531.6 Q367.22 1540.33 364.142 1544.94 Q361.086 1549.52 355.276 1549.52 Q349.466 1549.52 346.387 1544.94 Q343.331 1540.33 343.331 1531.6 Q343.331 1522.85 346.387 1518.27 Q349.466 1513.66 355.276 1513.66 Z" fill="#000000" fill-rule="evenodd" fill-opacity="1" /><path clip-path="url(#clip580)" d="M375.438 1542.97 L380.322 1542.97 L380.322 1548.85 L375.438 1548.85 L375.438 1542.97 Z" fill="#000000" fill-rule="evenodd" fill-opacity="1" /><path clip-path="url(#clip580)" d="M400.507 1517.37 Q396.896 1517.37 395.067 1520.93 Q393.262 1524.47 393.262 1531.6 Q393.262 1538.71 395.067 1542.27 Q396.896 1545.82 400.507 1545.82 Q404.141 1545.82 405.947 1542.27 Q407.776 1538.71 407.776 1531.6 Q407.776 1524.47 405.947 1520.93 Q404.141 1517.37 400.507 1517.37 M400.507 1513.66 Q406.317 1513.66 409.373 1518.27 Q412.451 1522.85 412.451 1531.6 Q412.451 1540.33 409.373 1544.94 Q406.317 1549.52 400.507 1549.52 Q394.697 1549.52 391.618 1544.94 Q388.563 1540.33 388.563 1531.6 Q388.563 1522.85 391.618 1518.27 Q394.697 1513.66 400.507 1513.66 Z" fill="#000000" fill-rule="evenodd" fill-opacity="1" /><path clip-path="url(#clip580)" d="M895.995 1517.37 Q892.384 1517.37 890.555 1520.93 Q888.75 1524.47 888.75 1531.6 Q888.75 1538.71 890.555 1542.27 Q892.384 1545.82 895.995 1545.82 Q899.63 1545.82 901.435 1542.27 Q903.264 1538.71 903.264 1531.6 Q903.264 1524.47 901.435 1520.93 Q899.63 1517.37 895.995 1517.37 M895.995 1513.66 Q901.805 1513.66 904.861 1518.27 Q907.94 1522.85 907.94 1531.6 Q907.94 1540.33 904.861 1544.94 Q901.805 1549.52 895.995 1549.52 Q890.185 1549.52 887.106 1544.94 Q884.051 1540.33 884.051 1531.6 Q884.051 1522.85 887.106 1518.27 Q890.185 1513.66 895.995 1513.66 Z" fill="#000000" fill-rule="evenodd" fill-opacity="1" /><path clip-path="url(#clip580)" d="M916.157 1542.97 L921.041 1542.97 L921.041 1548.85 L916.157 1548.85 L916.157 1542.97 Z" fill="#000000" fill-rule="evenodd" fill-opacity="1" /><path clip-path="url(#clip580)" d="M931.273 1514.29 L949.629 1514.29 L949.629 1518.22 L935.555 1518.22 L935.555 1526.7 Q936.574 1526.35 937.592 1526.19 Q938.611 1526 939.629 1526 Q945.416 1526 948.796 1529.17 Q952.176 1532.34 952.176 1537.76 Q952.176 1543.34 948.703 1546.44 Q945.231 1549.52 938.912 1549.52 Q936.736 1549.52 934.467 1549.15 Q932.222 1548.78 929.815 1548.04 L929.815 1543.34 Q931.898 1544.47 934.12 1545.03 Q936.342 1545.58 938.819 1545.58 Q942.824 1545.58 945.162 1543.48 Q947.5 1541.37 947.5 1537.76 Q947.5 1534.15 945.162 1532.04 Q942.824 1529.94 938.819 1529.94 Q936.944 1529.94 935.069 1530.35 Q933.217 1530.77 931.273 1531.65 L931.273 1514.29 Z" fill="#000000" fill-rule="evenodd" fill-opacity="1" /><path clip-path="url(#clip580)" d="M1425.49 1544.91 L1433.13 1544.91 L1433.13 1518.55 L1424.82 1520.21 L1424.82 1515.95 L1433.08 1514.29 L1437.76 1514.29 L1437.76 1544.91 L1445.4 1544.91 L1445.4 1548.85 L1425.49 1548.85 L1425.49 1544.91 Z" fill="#000000" fill-rule="evenodd" fill-opacity="1" /><path clip-path="url(#clip580)" d="M1454.84 1542.97 L1459.72 1542.97 L1459.72 1548.85 L1454.84 1548.85 L1454.84 1542.97 Z" fill="#000000" fill-rule="evenodd" fill-opacity="1" /><path clip-path="url(#clip580)" d="M1479.91 1517.37 Q1476.3 1517.37 1474.47 1520.93 Q1472.66 1524.47 1472.66 1531.6 Q1472.66 1538.71 1474.47 1542.27 Q1476.3 1545.82 1479.91 1545.82 Q1483.54 1545.82 1485.35 1542.27 Q1487.18 1538.71 1487.18 1531.6 Q1487.18 1524.47 1485.35 1520.93 Q1483.54 1517.37 1479.91 1517.37 M1479.91 1513.66 Q1485.72 1513.66 1488.77 1518.27 Q1491.85 1522.85 1491.85 1531.6 Q1491.85 1540.33 1488.77 1544.94 Q1485.72 1549.52 1479.91 1549.52 Q1474.1 1549.52 1471.02 1544.94 Q1467.96 1540.33 1467.96 1531.6 Q1467.96 1522.85 1471.02 1518.27 Q1474.1 1513.66 1479.91 1513.66 Z" fill="#000000" fill-rule="evenodd" fill-opacity="1" /><path clip-path="url(#clip580)" d="M1966.21 1544.91 L1973.85 1544.91 L1973.85 1518.55 L1965.54 1520.21 L1965.54 1515.95 L1973.8 1514.29 L1978.48 1514.29 L1978.48 1544.91 L1986.11 1544.91 L1986.11 1548.85 L1966.21 1548.85 L1966.21 1544.91 Z" fill="#000000" fill-rule="evenodd" fill-opacity="1" /><path clip-path="url(#clip580)" d="M1995.56 1542.97 L2000.44 1542.97 L2000.44 1548.85 L1995.56 1548.85 L1995.56 1542.97 Z" fill="#000000" fill-rule="evenodd" fill-opacity="1" /><path clip-path="url(#clip580)" d="M2010.67 1514.29 L2029.03 1514.29 L2029.03 1518.22 L2014.96 1518.22 L2014.96 1526.7 Q2015.98 1526.35 2016.99 1526.19 Q2018.01 1526 2019.03 1526 Q2024.82 1526 2028.2 1529.17 Q2031.58 1532.34 2031.58 1537.76 Q2031.58 1543.34 2028.11 1546.44 Q2024.63 1549.52 2018.31 1549.52 Q2016.14 1549.52 2013.87 1549.15 Q2011.62 1548.78 2009.22 1548.04 L2009.22 1543.34 Q2011.3 1544.47 2013.52 1545.03 Q2015.74 1545.58 2018.22 1545.58 Q2022.23 1545.58 2024.56 1543.48 Q2026.9 1541.37 2026.9 1537.76 Q2026.9 1534.15 2024.56 1532.04 Q2022.23 1529.94 2018.22 1529.94 Q2016.35 1529.94 2014.47 1530.35 Q2012.62 1530.77 2010.67 1531.65 L2010.67 1514.29 Z" fill="#000000" fill-rule="evenodd" fill-opacity="1" /><polyline clip-path="url(#clip582)" style="stroke:#000000; stroke-linecap:butt; stroke-linejoin:round; stroke-width:2; stroke-opacity:0.1; fill:none" points="
  193.936,1465.86 2352.76,1465.86 
  "/>
<polyline clip-path="url(#clip582)" style="stroke:#000000; stroke-linecap:butt; stroke-linejoin:round; stroke-width:2; stroke-opacity:0.1; fill:none" points="
  193.936,1120.93 2352.76,1120.93 
  "/>
<polyline clip-path="url(#clip582)" style="stroke:#000000; stroke-linecap:butt; stroke-linejoin:round; stroke-width:2; stroke-opacity:0.1; fill:none" points="
  193.936,775.995 2352.76,775.995 
  "/>
<polyline clip-path="url(#clip582)" style="stroke:#000000; stroke-linecap:butt; stroke-linejoin:round; stroke-width:2; stroke-opacity:0.1; fill:none" points="
  193.936,431.061 2352.76,431.061 
  "/>
<polyline clip-path="url(#clip582)" style="stroke:#000000; stroke-linecap:butt; stroke-linejoin:round; stroke-width:2; stroke-opacity:0.1; fill:none" points="
  193.936,86.1275 2352.76,86.1275 
  "/>
<polyline clip-path="url(#clip580)" style="stroke:#000000; stroke-linecap:butt; stroke-linejoin:round; stroke-width:4; stroke-opacity:1; fill:none" points="
  193.936,1486.45 193.936,47.2441 
  "/>
<polyline clip-path="url(#clip580)" style="stroke:#000000; stroke-linecap:butt; stroke-linejoin:round; stroke-width:4; stroke-opacity:1; fill:none" points="
  193.936,1465.86 212.834,1465.86 
  "/>
<polyline clip-path="url(#clip580)" style="stroke:#000000; stroke-linecap:butt; stroke-linejoin:round; stroke-width:4; stroke-opacity:1; fill:none" points="
  193.936,1120.93 212.834,1120.93 
  "/>
<polyline clip-path="url(#clip580)" style="stroke:#000000; stroke-linecap:butt; stroke-linejoin:round; stroke-width:4; stroke-opacity:1; fill:none" points="
  193.936,775.995 212.834,775.995 
  "/>
<polyline clip-path="url(#clip580)" style="stroke:#000000; stroke-linecap:butt; stroke-linejoin:round; stroke-width:4; stroke-opacity:1; fill:none" points="
  193.936,431.061 212.834,431.061 
  "/>
<polyline clip-path="url(#clip580)" style="stroke:#000000; stroke-linecap:butt; stroke-linejoin:round; stroke-width:4; stroke-opacity:1; fill:none" points="
  193.936,86.1275 212.834,86.1275 
  "/>
<path clip-path="url(#clip580)" d="M50.9921 1466.31 L80.6679 1466.31 L80.6679 1470.25 L50.9921 1470.25 L50.9921 1466.31 Z" fill="#000000" fill-rule="evenodd" fill-opacity="1" /><path clip-path="url(#clip580)" d="M94.7882 1479.21 L111.108 1479.21 L111.108 1483.14 L89.1632 1483.14 L89.1632 1479.21 Q91.8252 1476.45 96.4085 1471.82 Q101.015 1467.17 102.196 1465.83 Q104.441 1463.31 105.321 1461.57 Q106.223 1459.81 106.223 1458.12 Q106.223 1455.37 104.279 1453.63 Q102.358 1451.89 99.2558 1451.89 Q97.0567 1451.89 94.603 1452.66 Q92.1725 1453.42 89.3947 1454.97 L89.3947 1450.25 Q92.2188 1449.12 94.6724 1448.54 Q97.1261 1447.96 99.1632 1447.96 Q104.534 1447.96 107.728 1450.64 Q110.922 1453.33 110.922 1457.82 Q110.922 1459.95 110.112 1461.87 Q109.325 1463.77 107.219 1466.36 Q106.64 1467.03 103.538 1470.25 Q100.436 1473.44 94.7882 1479.21 Z" fill="#000000" fill-rule="evenodd" fill-opacity="1" /><path clip-path="url(#clip580)" d="M120.922 1477.26 L125.807 1477.26 L125.807 1483.14 L120.922 1483.14 L120.922 1477.26 Z" fill="#000000" fill-rule="evenodd" fill-opacity="1" /><path clip-path="url(#clip580)" d="M145.992 1451.66 Q142.381 1451.66 140.552 1455.23 Q138.746 1458.77 138.746 1465.9 Q138.746 1473 140.552 1476.57 Q142.381 1480.11 145.992 1480.11 Q149.626 1480.11 151.431 1476.57 Q153.26 1473 153.26 1465.9 Q153.26 1458.77 151.431 1455.23 Q149.626 1451.66 145.992 1451.66 M145.992 1447.96 Q151.802 1447.96 154.857 1452.56 Q157.936 1457.15 157.936 1465.9 Q157.936 1474.62 154.857 1479.23 Q151.802 1483.81 145.992 1483.81 Q140.181 1483.81 137.103 1479.23 Q134.047 1474.62 134.047 1465.9 Q134.047 1457.15 137.103 1452.56 Q140.181 1447.96 145.992 1447.96 Z" fill="#000000" fill-rule="evenodd" fill-opacity="1" /><path clip-path="url(#clip580)" d="M51.9875 1121.38 L81.6633 1121.38 L81.6633 1125.32 L51.9875 1125.32 L51.9875 1121.38 Z" fill="#000000" fill-rule="evenodd" fill-opacity="1" /><path clip-path="url(#clip580)" d="M92.566 1134.27 L100.205 1134.27 L100.205 1107.91 L91.8947 1109.57 L91.8947 1105.32 L100.159 1103.65 L104.834 1103.65 L104.834 1134.27 L112.473 1134.27 L112.473 1138.21 L92.566 1138.21 L92.566 1134.27 Z" fill="#000000" fill-rule="evenodd" fill-opacity="1" /><path clip-path="url(#clip580)" d="M121.918 1132.33 L126.802 1132.33 L126.802 1138.21 L121.918 1138.21 L121.918 1132.33 Z" fill="#000000" fill-rule="evenodd" fill-opacity="1" /><path clip-path="url(#clip580)" d="M137.033 1103.65 L155.39 1103.65 L155.39 1107.58 L141.316 1107.58 L141.316 1116.06 Q142.334 1115.71 143.353 1115.55 Q144.371 1115.36 145.39 1115.36 Q151.177 1115.36 154.556 1118.53 Q157.936 1121.7 157.936 1127.12 Q157.936 1132.7 154.464 1135.8 Q150.992 1138.88 144.672 1138.88 Q142.496 1138.88 140.228 1138.51 Q137.982 1138.14 135.575 1137.4 L135.575 1132.7 Q137.658 1133.83 139.881 1134.39 Q142.103 1134.95 144.58 1134.95 Q148.584 1134.95 150.922 1132.84 Q153.26 1130.73 153.26 1127.12 Q153.26 1123.51 150.922 1121.4 Q148.584 1119.3 144.58 1119.3 Q142.705 1119.3 140.83 1119.71 Q138.978 1120.13 137.033 1121.01 L137.033 1103.65 Z" fill="#000000" fill-rule="evenodd" fill-opacity="1" /><path clip-path="url(#clip580)" d="M50.9921 776.447 L80.6679 776.447 L80.6679 780.382 L50.9921 780.382 L50.9921 776.447 Z" fill="#000000" fill-rule="evenodd" fill-opacity="1" /><path clip-path="url(#clip580)" d="M91.5706 789.34 L99.2095 789.34 L99.2095 762.974 L90.8993 764.641 L90.8993 760.382 L99.1632 758.715 L103.839 758.715 L103.839 789.34 L111.478 789.34 L111.478 793.275 L91.5706 793.275 L91.5706 789.34 Z" fill="#000000" fill-rule="evenodd" fill-opacity="1" /><path clip-path="url(#clip580)" d="M120.922 787.396 L125.807 787.396 L125.807 793.275 L120.922 793.275 L120.922 787.396 Z" fill="#000000" fill-rule="evenodd" fill-opacity="1" /><path clip-path="url(#clip580)" d="M145.992 761.794 Q142.381 761.794 140.552 765.359 Q138.746 768.9 138.746 776.03 Q138.746 783.136 140.552 786.701 Q142.381 790.243 145.992 790.243 Q149.626 790.243 151.431 786.701 Q153.26 783.136 153.26 776.03 Q153.26 768.9 151.431 765.359 Q149.626 761.794 145.992 761.794 M145.992 758.09 Q151.802 758.09 154.857 762.697 Q157.936 767.28 157.936 776.03 Q157.936 784.757 154.857 789.363 Q151.802 793.947 145.992 793.947 Q140.181 793.947 137.103 789.363 Q134.047 784.757 134.047 776.03 Q134.047 767.28 137.103 762.697 Q140.181 758.09 145.992 758.09 Z" fill="#000000" fill-rule="evenodd" fill-opacity="1" /><path clip-path="url(#clip580)" d="M51.9875 431.513 L81.6633 431.513 L81.6633 435.448 L51.9875 435.448 L51.9875 431.513 Z" fill="#000000" fill-rule="evenodd" fill-opacity="1" /><path clip-path="url(#clip580)" d="M101.756 416.86 Q98.1447 416.86 96.316 420.425 Q94.5104 423.967 94.5104 431.096 Q94.5104 438.203 96.316 441.767 Q98.1447 445.309 101.756 445.309 Q105.39 445.309 107.196 441.767 Q109.024 438.203 109.024 431.096 Q109.024 423.967 107.196 420.425 Q105.39 416.86 101.756 416.86 M101.756 413.156 Q107.566 413.156 110.621 417.763 Q113.7 422.346 113.7 431.096 Q113.7 439.823 110.621 444.429 Q107.566 449.013 101.756 449.013 Q95.9456 449.013 92.8669 444.429 Q89.8114 439.823 89.8114 431.096 Q89.8114 422.346 92.8669 417.763 Q95.9456 413.156 101.756 413.156 Z" fill="#000000" fill-rule="evenodd" fill-opacity="1" /><path clip-path="url(#clip580)" d="M121.918 442.462 L126.802 442.462 L126.802 448.341 L121.918 448.341 L121.918 442.462 Z" fill="#000000" fill-rule="evenodd" fill-opacity="1" /><path clip-path="url(#clip580)" d="M137.033 413.781 L155.39 413.781 L155.39 417.717 L141.316 417.717 L141.316 426.189 Q142.334 425.842 143.353 425.679 Q144.371 425.494 145.39 425.494 Q151.177 425.494 154.556 428.666 Q157.936 431.837 157.936 437.253 Q157.936 442.832 154.464 445.934 Q150.992 449.013 144.672 449.013 Q142.496 449.013 140.228 448.642 Q137.982 448.272 135.575 447.531 L135.575 442.832 Q137.658 443.966 139.881 444.522 Q142.103 445.078 144.58 445.078 Q148.584 445.078 150.922 442.971 Q153.26 440.865 153.26 437.253 Q153.26 433.642 150.922 431.536 Q148.584 429.429 144.58 429.429 Q142.705 429.429 140.83 429.846 Q138.978 430.263 137.033 431.142 L137.033 413.781 Z" fill="#000000" fill-rule="evenodd" fill-opacity="1" /><path clip-path="url(#clip580)" d="M100.76 71.9262 Q97.1493 71.9262 95.3206 75.491 Q93.515 79.0327 93.515 86.1623 Q93.515 93.2687 95.3206 96.8335 Q97.1493 100.375 100.76 100.375 Q104.395 100.375 106.2 96.8335 Q108.029 93.2687 108.029 86.1623 Q108.029 79.0327 106.2 75.491 Q104.395 71.9262 100.76 71.9262 M100.76 68.2225 Q106.571 68.2225 109.626 72.829 Q112.705 77.4123 112.705 86.1623 Q112.705 94.8891 109.626 99.4955 Q106.571 104.079 100.76 104.079 Q94.9502 104.079 91.8715 99.4955 Q88.816 94.8891 88.816 86.1623 Q88.816 77.4123 91.8715 72.829 Q94.9502 68.2225 100.76 68.2225 Z" fill="#000000" fill-rule="evenodd" fill-opacity="1" /><path clip-path="url(#clip580)" d="M120.922 97.5279 L125.807 97.5279 L125.807 103.408 L120.922 103.408 L120.922 97.5279 Z" fill="#000000" fill-rule="evenodd" fill-opacity="1" /><path clip-path="url(#clip580)" d="M145.992 71.9262 Q142.381 71.9262 140.552 75.491 Q138.746 79.0327 138.746 86.1623 Q138.746 93.2687 140.552 96.8335 Q142.381 100.375 145.992 100.375 Q149.626 100.375 151.431 96.8335 Q153.26 93.2687 153.26 86.1623 Q153.26 79.0327 151.431 75.491 Q149.626 71.9262 145.992 71.9262 M145.992 68.2225 Q151.802 68.2225 154.857 72.829 Q157.936 77.4123 157.936 86.1623 Q157.936 94.8891 154.857 99.4955 Q151.802 104.079 145.992 104.079 Q140.181 104.079 137.103 99.4955 Q134.047 94.8891 134.047 86.1623 Q134.047 77.4123 137.103 72.829 Q140.181 68.2225 145.992 68.2225 Z" fill="#000000" fill-rule="evenodd" fill-opacity="1" /><polyline clip-path="url(#clip582)" style="stroke:#009af9; stroke-linecap:butt; stroke-linejoin:round; stroke-width:4; stroke-opacity:1; fill:none" points="
  2291.66,1445.72 2174.34,1370.93 2062.24,1299.59 1959.96,1234.7 1866.24,1175.42 1780.02,1121.05 1700.47,1071.03 1626.86,1024.88 1558.58,982.187 1495.19,942.665 
  1436.25,906.017 1381.3,871.95 1329.92,840.167 1281.75,810.441 1236.57,782.626 1194.1,756.532 1154.06,731.985 1116.32,708.89 1080.72,687.15 1047.12,666.672 
  1015.38,647.359 985.345,629.115 956.87,611.845 929.81,595.454 904.052,579.868 879.573,565.074 856.288,551.016 834.062,537.607 812.844,524.813 792.586,512.607 
  773.245,500.958 754.772,489.837 737.123,479.216 720.251,469.064 704.11,459.354 688.655,450.055 673.839,441.139 659.617,432.577 645.942,424.339 632.785,416.407 
  620.165,408.793 608.054,401.481 596.387,394.428 585.145,387.624 574.314,381.059 563.879,374.726 553.826,368.615 544.142,362.718 534.812,357.027 525.821,351.532 
  517.157,346.226 508.804,341.1 500.748,336.145 492.976,331.352 485.473,326.714 478.225,322.221 471.218,317.865 464.438,313.638 457.87,309.53 451.501,305.534 
  445.347,301.659 439.414,297.91 433.673,294.269 428.106,290.725 422.709,287.276 417.477,283.919 412.406,280.653 407.492,277.474 402.731,274.38 398.118,271.368 
  393.649,268.437 389.319,265.584 385.125,262.805 381.062,260.1 377.125,257.465 373.311,254.898 369.614,252.396 366.032,249.958 362.559,247.58 359.19,245.26 
  355.923,242.996 352.752,240.785 349.673,238.624 346.682,236.513 343.775,234.447 340.946,232.424 338.193,230.443 335.52,228.505 332.939,226.619 330.44,224.778 
  328.009,222.974 325.644,221.207 323.344,219.475 321.108,217.778 318.935,216.116 316.822,214.488 314.769,212.893 312.775,211.33 310.839,209.799 308.958,208.299 
  307.132,206.829 305.359,205.388 303.639,203.977 301.969,202.594 300.349,201.238 298.777,199.91 297.251,198.607 295.772,197.33 294.336,196.078 292.944,194.85 
  291.594,193.645 290.284,192.463 289.013,191.303 287.779,190.164 286.583,189.046 285.421,187.948 284.294,186.869 283.199,185.809 282.135,184.766 281.102,183.741 
  280.097,182.732 279.12,181.739 278.169,180.762 277.243,179.799 276.349,178.854 275.492,177.93 274.663,177.022 273.857,176.127 273.075,175.247 272.315,174.379 
  271.578,173.525 270.863,172.685 270.169,171.857 269.497,171.041 268.846,170.238 268.216,169.448 267.606,168.669 267.015,167.903 266.445,167.148 265.893,166.405 
  265.36,165.673 264.846,164.952 264.349,164.242 263.87,163.543 263.409,162.855 262.964,162.177 262.536,161.509 262.124,160.851 261.728,160.203 261.347,159.565 
  260.981,158.936 260.63,158.316 260.293,157.705 259.971,157.103 259.661,156.51 259.365,155.925 259.082,155.349 258.812,154.78 258.553,154.22 258.306,153.667 
  258.071,153.121 257.846,152.583 257.632,152.052 257.428,151.528 257.234,151.011 257.05,150.5 256.875,149.996 256.708,149.498 256.55,149.005 256.4,148.519 
  256.258,148.038 256.122,147.563 255.995,147.092 255.879,146.63 255.776,146.176 255.681,145.727 255.594,145.284 255.513,144.846 255.439,144.413 255.371,143.985 
  255.31,143.562 255.256,143.144 255.207,142.73 255.165,142.322 255.129,141.918 255.099,141.518 255.074,141.124 255.056,140.734 255.043,140.348 255.036,139.967 
  255.035,139.59 255.039,139.218 255.048,138.849 255.062,138.486 255.082,138.126 255.106,137.77 255.136,137.419 255.17,137.071 255.21,136.728 255.254,136.388 
  255.302,136.052 255.355,135.721 255.413,135.392 255.474,135.068 255.54,134.747 255.61,134.43 255.684,134.116 255.762,133.806 255.844,133.499 255.929,133.196 
  256.019,132.896 256.111,132.599 256.207,132.306 256.307,132.016 256.41,131.728 256.516,131.444 256.625,131.163 256.737,130.885 256.852,130.61 256.969,130.337 
  257.09,130.068 257.213,129.801 257.338,129.537 257.466,129.275 257.596,129.017 257.729,128.76 257.863,128.506 258,128.255 258.139,128.006 258.279,127.759 
  258.421,127.515 258.565,127.272 258.71,127.032 258.857,126.794 259.006,126.558 259.155,126.325 259.306,126.093 259.458,125.863 259.612,125.635 259.77,125.411 
  259.931,125.19 260.094,124.97 260.258,124.753 260.424,124.537 260.59,124.324 260.757,124.112 260.926,123.902 261.095,123.694 261.266,123.488 261.438,123.283 
  261.611,123.08 261.785,122.879 261.959,122.68 262.135,122.482 262.312,122.287 262.49,122.092 262.668,121.9 262.848,121.709 263.028,121.52 263.209,121.333 
  263.392,121.147 263.574,120.962 263.758,120.78 263.943,120.599 264.128,120.419 264.314,120.241 264.501,120.065 264.688,119.89 264.877,119.717 265.066,119.545 
  265.255,119.374 265.445,119.206 265.636,119.038 265.828,118.872 266.02,118.707 266.212,118.544 266.405,118.382 266.599,118.222 266.793,118.063 266.988,117.905 
  267.183,117.749 267.378,117.594 267.574,117.44 267.771,117.287 267.968,117.136 268.165,116.986 268.362,116.838 268.56,116.69 268.759,116.544 268.957,116.399 
  269.156,116.255 269.355,116.112 269.554,115.971 269.754,115.83 269.954,115.691 270.154,115.553 270.354,115.416 270.554,115.28 270.754,115.145 270.955,115.011 
  271.156,114.878 271.356,114.747 271.557,114.616 271.758,114.486 271.959,114.357 272.16,114.23 272.361,114.103 272.561,113.977 272.762,113.852 272.963,113.728 
  273.163,113.605 273.364,113.482 273.564,113.361 273.765,113.24 273.965,113.121 274.165,113.002 274.364,112.884 274.564,112.766 274.763,112.65 274.962,112.534 
  275.161,112.419 275.359,112.305 275.557,112.191 275.755,112.078 275.952,111.966 276.149,111.855 276.347,111.745 276.546,111.636 276.745,111.528 276.943,111.421 
  277.141,111.315 277.339,111.209 277.537,111.104 277.734,110.999 277.931,110.896 278.128,110.793 278.325,110.69 278.521,110.589 278.717,110.488 278.912,110.387 
  279.108,110.288 279.303,110.188 279.498,110.09 279.692,109.992 279.886,109.895 280.08,109.799 280.274,109.703 280.467,109.607 280.66,109.513 280.853,109.419 
  281.046,109.325 281.238,109.233 281.43,109.14 281.621,109.049 281.812,108.958 282.003,108.867 282.194,108.778 282.384,108.688 282.574,108.6 282.764,108.512 
  282.953,108.424 283.142,108.337 283.331,108.251 283.519,108.165 283.707,108.08 283.895,107.995 284.083,107.911 284.27,107.827 284.456,107.744 284.643,107.662 
  284.829,107.58 285.015,107.498 285.2,107.417 285.385,107.337 285.57,107.257 285.754,107.178 285.939,107.099 286.122,107.02 286.306,106.942 286.489,106.865 
  286.671,106.788 286.854,106.712 287.036,106.636 287.217,106.56 287.399,106.486 287.58,106.411 287.76,106.337 287.94,106.264 288.12,106.19 288.3,106.118 
  288.479,106.046 288.657,105.974 288.836,105.903 289.014,105.832 289.192,105.761 289.369,105.691 289.546,105.622 289.722,105.553 289.898,105.484 290.074,105.416 
  290.249,105.348 290.424,105.28 290.599,105.213 290.773,105.147 290.947,105.08 291.121,105.014 291.294,104.949 291.466,104.884 291.639,104.819 291.81,104.755 
  291.982,104.691 292.153,104.627 292.324,104.564 292.494,104.501 292.664,104.439 292.833,104.376 293.002,104.315 293.171,104.253 293.339,104.192 293.507,104.131 
  293.674,104.071 293.841,104.011 294.008,103.951 294.174,103.891 294.34,103.832 294.505,103.773 294.67,103.715 294.835,103.656 294.999,103.598 295.162,103.541 
  295.325,103.483 295.488,103.426 295.65,103.37 295.812,103.313 295.974,103.257 296.135,103.201 296.295,103.145 296.456,103.09 296.615,103.035 296.774,102.98 
  296.933,102.925 297.092,102.871 297.25,102.816 297.407,102.763 297.565,102.71 297.722,102.657 297.879,102.605 298.036,102.553 298.192,102.501 298.347,102.449 
  298.502,102.398 298.657,102.347 298.812,102.296 298.966,102.245 299.119,102.195 299.273,102.145 299.425,102.095 299.578,102.045 299.73,101.996 299.882,101.947 
  300.033,101.898 300.184,101.849 300.334,101.801 300.484,101.753 300.634,101.705 300.783,101.657 300.932,101.609 301.081,101.562 301.229,101.515 301.377,101.468 
  301.524,101.422 301.671,101.375 301.818,101.329 301.964,101.283 302.11,101.238 302.255,101.192 302.4,101.147 302.545,101.102 302.69,101.057 302.833,101.013 
  302.977,100.968 303.12,100.924 303.263,100.88 303.406,100.836 303.548,100.793 303.689,100.75 303.831,100.707 303.972,100.664 304.112,100.621 304.253,100.579 
  304.393,100.536 304.532,100.494 304.671,100.453 304.81,100.411 304.948,100.37 305.086,100.328 305.224,100.287 305.361,100.246 305.498,100.206 305.635,100.165 
  305.771,100.125 305.907,100.085 306.043,100.045 306.178,100.006 306.313,99.9663 306.447,99.927 306.581,99.888 306.715,99.8491 306.849,99.8104 306.982,99.7719 
  307.114,99.7336 307.247,99.6954 307.379,99.6575 307.51,99.6197 307.642,99.5821 307.773,99.5447 307.903,99.5075 308.033,99.4704 308.163,99.4335 308.293,99.3968 
  308.422,99.3603 308.551,99.3239 308.68,99.2877 308.808,99.2517 308.936,99.2159 309.063,99.1802 309.191,99.1447 309.317,99.1093 309.444,99.0742 309.57,99.0391 
  309.696,99.0043 309.822,98.9696 309.947,98.9351 310.072,98.9007 310.196,98.8665 310.32,98.8324 310.444,98.7986 310.568,98.7648 310.691,98.7312 310.814,98.6978 
  310.937,98.6645 311.059,98.6314 311.181,98.5984 311.302,98.5656 311.424,98.5329 311.545,98.5003 311.665,98.468 311.786,98.4357 311.906,98.4036 312.025,98.3716 
  312.145,98.3398 312.264,98.3081 312.382,98.2766 312.501,98.2452 312.619,98.2139 312.737,98.1828 312.854,98.1518 312.971,98.1209 313.088,98.0902 313.205,98.0596 
  313.321,98.0291 313.437,97.9988 313.553,97.9686 313.668,97.9385 313.783,97.9085 313.898,97.8787 314.012,97.849 314.126,97.8194 314.24,97.7899 314.354,97.7606 
  314.467,97.7313 314.58,97.7022 314.692,97.6732 314.805,97.6444 314.917,97.6156 315.028,97.5869 315.14,97.5584 315.251,97.53 315.362,97.5017 315.472,97.4735 
  315.583,97.4454 315.692,97.4174 315.802,97.3895 315.912,97.3617 316.021,97.334 316.129,97.3065 316.238,97.279 316.346,97.2516 316.454,97.2243 316.562,97.1972 
  316.669,97.1701 316.776,97.1431 316.883,97.1162 316.99,97.0894 317.096,97.0627 317.202,97.0361 317.307,97.0096 317.413,96.9832 317.518,96.9569 317.623,96.9309 
  317.727,96.9051 317.831,96.8794 317.935,96.8538 318.039,96.8283 318.142,96.8029 318.245,96.7776 318.348,96.7524 318.451,96.7273 318.553,96.7022 318.655,96.6773 
  318.757,96.6524 318.859,96.6277 318.96,96.603 319.061,96.5784 319.162,96.5539 319.262,96.5296 319.363,96.5052 319.463,96.481 319.563,96.4569 319.662,96.4328 
  319.761,96.4089 319.86,96.385 319.959,96.3612 320.058,96.3375 320.156,96.3139 320.254,96.2904 320.352,96.267 320.449,96.2436 320.547,96.2204 320.644,96.1972 
  320.74,96.1741 320.837,96.1511 320.933,96.1282 321.029,96.1053 321.125,96.0826 321.221,96.0599 321.316,96.0373 321.411,96.0148 321.506,95.9924 321.601,95.9701 
  321.695,95.9478 321.789,95.9256 321.883,95.9035 321.977,95.8815 322.07,95.8596 322.163,95.8377 322.256,95.8159 322.349,95.7943 322.441,95.7726 322.534,95.7511 
  322.625,95.7297 322.717,95.7083 322.809,95.687 322.9,95.6658 322.991,95.6446 323.082,95.6236 323.173,95.6026 323.263,95.5817 323.353,95.5608 323.443,95.5401 
  323.533,95.5194 323.622,95.4988 323.711,95.4782 323.8,95.4578 323.889,95.4374 323.978,95.4171 324.066,95.3969 324.154,95.3767 324.242,95.3566 324.33,95.3366 
  324.417,95.3167 324.505,95.2968 324.592,95.277 324.678,95.2573 324.765,95.2377 324.851,95.2181 324.937,95.1986 325.023,95.1791 325.109,95.1598 325.194,95.1405 
  325.28,95.1213 325.365,95.1021 325.45,95.083 325.534,95.064 325.619,95.045 325.703,95.0262 325.787,95.0074 325.871,94.9886 325.954,94.9699 326.038,94.9513 
  326.121,94.9328 326.204,94.9143 326.286,94.8959 326.369,94.8776 326.451,94.8593 326.533,94.8411 326.615,94.8229 326.697,94.8048 326.779,94.7868 326.86,94.7689 
  326.941,94.751 327.022,94.7332 327.102,94.7154 327.183,94.6977 327.263,94.6801 327.343,94.6625 327.423,94.645 327.503,94.6275 327.582,94.6102 327.662,94.5928 
  327.741,94.5756 327.82,94.5584 327.898,94.5412 327.977,94.5241 328.055,94.5071 328.133,94.4901 328.211,94.4732 328.289,94.4564 328.367,94.4396 328.444,94.4229 
  328.521,94.4062 328.598,94.3896 328.675,94.373 328.752,94.3565 328.828,94.3401 328.904,94.3237 328.98,94.3074 329.056,94.2911 329.132,94.2749 329.207,94.2587 
  329.282,94.2426 329.358,94.2266 329.433,94.2106 329.507,94.1946 329.582,94.1787 329.656,94.1629 329.73,94.1471 329.804,94.1314 329.878,94.1157 329.952,94.1001 
  330.025,94.0845 330.099,94.069 330.172,94.0535 330.245,94.0381 330.318,94.0227 330.39,94.0074 330.463,93.9921 330.535,93.9769 330.607,93.9617 330.679,93.9466 
  330.751,93.9315 330.822,93.9165 330.894,93.9015 330.965,93.8866 331.036,93.8717 331.107,93.8569 331.177,93.8421 331.248,93.8274 331.318,93.8127 331.389,93.798 
  331.459,93.7834 331.529,93.7689 331.598,93.7544 331.668,93.7399 331.737,93.7255 331.806,93.7111 331.876,93.6968 331.944,93.6825 332.013,93.6683 332.082,93.6541 
  332.15,93.6399 332.218,93.6258 332.287,93.6117 332.355,93.5977 332.422,93.5837 332.49,93.5698 332.557,93.5558 332.625,93.542 332.692,93.5282 332.759,93.5144 
  332.826,93.5006 332.893,93.4869 332.959,93.4733 333.026,93.4596 333.092,93.4461 333.158,93.4325 333.224,93.419 333.29,93.4055 333.355,93.3921 333.421,93.3787 
  333.486,93.3653 333.551,93.352 333.616,93.3387 333.681,93.3255 333.746,93.3123 333.811,93.2991 333.875,93.2859 333.94,93.2728 334.004,93.2597 334.068,93.2467 
  334.132,93.2337 334.196,93.2207 334.259,93.2078 334.323,93.1949 334.386,93.182 334.449,93.1692 334.512,93.1564 334.575,93.1437 334.638,93.1311 334.7,93.1186 
  334.762,93.1061 334.824,93.0936 334.886,93.0812 334.948,93.0688 335.01,93.0565 335.071,93.0442 335.133,93.0319 335.194,93.0196 335.255,93.0074 335.316,92.9952 
  335.377,92.9831 335.438,92.9709 335.499,92.9589 335.559,92.9468 335.619,92.9348 335.68,92.9228 335.74,92.9108 335.8,92.8989 335.86,92.887 335.919,92.8752 
  335.979,92.8634 336.038,92.8516 336.098,92.8398 336.157,92.8281 336.216,92.8164 336.275,92.8047 336.334,92.7931 336.392,92.7815 336.451,92.7699 336.509,92.7584 
  336.567,92.7469 336.626,92.7354 336.684,92.724 336.742,92.7126 336.799,92.7012 336.857,92.6899 336.915,92.6785 336.972,92.6673 337.029,92.656 337.086,92.6448 
  337.143,92.6336 337.2,92.6224 337.257,92.6113 337.314,92.6002 337.37,92.5892 337.427,92.5781 337.483,92.5671 337.539,92.5561 337.595,92.5452 337.651,92.5343 
  337.707,92.5234 337.763,92.5125 337.818,92.5017 337.874,92.4909 337.929,92.4801 337.984,92.4694 338.039,92.4587 338.094,92.448 338.149,92.4374 338.204,92.4268 
  338.258,92.4162 338.313,92.4056 338.367,92.3951 338.422,92.3846 338.476,92.3741 338.53,92.3637 338.584,92.3532 338.637,92.3428 338.691,92.3325 338.745,92.3222 
  338.798,92.3119 338.851,92.3016 338.905,92.2913 338.958,92.2811 339.011,92.2709 339.063,92.2608 339.116,92.2506 339.169,92.2405 339.221,92.2305 339.274,92.2204 
  339.326,92.2104 339.378,92.2004 339.43,92.1904 339.482,92.1805 339.534,92.1706 339.586,92.1607 339.637,92.1508 339.689,92.141 339.74,92.1312 339.791,92.1214 
  339.843,92.1117 339.894,92.1019 339.945,92.0922 339.995,92.0826 340.046,92.0729 340.097,92.0633 340.147,92.0537 340.198,92.0441 340.248,92.0346 340.298,92.0251 
  340.348,92.0156 340.398,92.0061 340.448,91.9967 340.498,91.9873 340.547,91.9779 340.597,91.9686 340.646,91.9592 340.696,91.9499 340.745,91.9406 340.794,91.9314 
  340.843,91.9221 340.892,91.9129 340.941,91.9037 340.989,91.8946 341.038,91.8855 341.086,91.8763 341.135,91.8673 341.183,91.8582 341.231,91.8492 341.279,91.8402 
  341.327,91.8312 341.375,91.8222 341.423,91.8133 341.471,91.8044 341.518,91.7955 341.566,91.7866 341.613,91.7778 341.66,91.7689 341.707,91.7601 341.754,91.7514 
  341.801,91.7426 341.848,91.7339 341.895,91.7252 341.942,91.7165 341.988,91.7079 342.035,91.6992 342.081,91.6906 342.127,91.682 342.173,91.6735 342.219,91.6649 
  342.265,91.6564 342.311,91.6479 342.357,91.6395 342.403,91.631 342.448,91.6226 342.494,91.6142 342.539,91.6058 342.584,91.5974 342.63,91.5891 342.675,91.5808 
  342.72,91.5725 342.765,91.5642 342.809,91.5559 342.854,91.5477 342.899,91.5395 342.943,91.5313 342.988,91.5232 343.032,91.515 343.076,91.5069 343.121,91.4988 
  343.165,91.4907 343.209,91.4826 343.253,91.4746 343.296,91.4666 343.34,91.4586 343.384,91.4506 343.427,91.4426 343.471,91.4347 343.514,91.4268 343.557,91.4189 
  343.6,91.411 343.644,91.4032 343.687,91.3953 343.729,91.3875 343.772,91.3797 343.815,91.3719 343.858,91.3642 343.9,91.3564 343.943,91.3487 343.985,91.341 
  344.027,91.3334 344.07,91.3257 344.112,91.3181 344.154,91.3104 344.196,91.3028 344.238,91.2952 344.279,91.2877 344.321,91.2801 344.363,91.2726 344.404,91.2651 
  344.446,91.2576 344.487,91.2501 344.528,91.2427 344.57,91.2353 344.611,91.2278 344.652,91.2204 344.693,91.2131 344.734,91.2057 344.774,91.1984 344.815,91.191 
  344.856,91.1837 344.896,91.1764 344.937,91.1692 344.977,91.1619 345.017,91.1547 345.058,91.1474 345.098,91.1402 345.138,91.133 345.178,91.1259 345.218,91.1187 
  345.258,91.1116 345.297,91.1045 345.337,91.0974 345.377,91.0903 345.416,91.0832 345.456,91.0762 345.495,91.0691 345.534,91.0621 345.573,91.0551 345.613,91.0481 
  345.652,91.0411 345.691,91.0342 345.73,91.0272 345.768,91.0203 345.807,91.0134 345.846,91.0065 345.885,90.9996 345.923,90.9928 345.962,90.9859 346,90.9791 
  346.038,90.9723 346.077,90.9655 346.115,90.9587 346.153,90.9519 346.191,90.9452 346.229,90.9384 346.267,90.9317 346.305,90.925 346.342,90.9183 346.38,90.9116 
  346.418,90.905 346.455,90.8983 346.493,90.8917 346.53,90.885 346.567,90.8784 346.605,90.8718 346.642,90.8653 346.679,90.8587 346.716,90.8521 346.753,90.8456 
  346.79,90.8391 346.827,90.8325 346.864,90.826 346.9,90.8196 346.937,90.8131 346.974,90.8066 347.01,90.8002 347.047,90.7937 347.083,90.7873 347.119,90.7809 
  347.156,90.7745 347.192,90.7681 347.228,90.7618 347.264,90.7554 347.3,90.7491 347.336,90.7427 347.372,90.7364 347.408,90.7301 347.443,90.7238 347.479,90.7175 
  347.515,90.7112 347.55,90.705 347.586,90.6987 347.621,90.6925 347.657,90.6863 347.692,90.6802 347.727,90.6741 347.762,90.668 347.797,90.6619 347.831,90.6558 
  347.866,90.6497 347.901,90.6437 347.935,90.6377 347.97,90.6316 348.004,90.6256 348.039,90.6196 348.073,90.6136 348.108,90.6077 348.142,90.6017 348.176,90.5958 
  348.21,90.5898 348.244,90.5839 348.278,90.578 348.312,90.5721 348.346,90.5662 348.38,90.5603 348.414,90.5545 348.448,90.5486 348.481,90.5428 348.515,90.5369 
  348.548,90.5311 348.582,90.5253 348.615,90.5195 348.649,90.5137 348.682,90.508 348.715,90.5022 348.748,90.4965 348.782,90.4907 348.815,90.485 348.848,90.4793 
  348.881,90.4736 348.913,90.4679 348.946,90.4622 348.979,90.4566 349.012,90.4509 349.044,90.4453 349.077,90.4397 349.11,90.4341 349.142,90.4284 349.175,90.4229 
  349.207,90.4173 349.239,90.4117 349.272,90.4061 349.304,90.4006 349.336,90.3951 349.368,90.3895 349.4,90.384 349.432,90.3785 349.464,90.373 349.496,90.3676 
  349.528,90.3621 349.559,90.3566 349.591,90.3512 349.623,90.3458 349.654,90.3403 349.686,90.3349 349.717,90.3295 349.749,90.3241 349.78,90.3188 349.811,90.3134 
  349.843,90.308 349.874,90.3027 349.905,90.2974 349.936,90.292 349.967,90.2867 349.998,90.2814 350.029,90.2761 350.06,90.2709 350.091,90.2656 350.121,90.2603 
  350.152,90.2551 350.183,90.2499 350.213,90.2446 350.244,90.2394 350.274,90.2342 350.305,90.229 350.335,90.2238 350.365,90.2187 350.396,90.2135 350.426,90.2084 
  350.456,90.2032 350.486,90.1981 350.516,90.193 350.546,90.1879 350.576,90.1828 350.606,90.1777 350.636,90.1726 350.666,90.1676 350.696,90.1625 350.725,90.1575 
  350.755,90.1524 350.784,90.1474 350.814,90.1424 350.843,90.1374 350.873,90.1324 350.902,90.1274 350.932,90.1224 350.961,90.1175 350.99,90.1125 351.019,90.1076 
  351.048,90.1027 351.077,90.0977 351.106,90.0928 351.135,90.0879 351.164,90.083 351.193,90.0782 351.222,90.0733 351.251,90.0684 351.28,90.0636 351.308,90.0587 
  351.337,90.0539 351.365,90.0491 351.394,90.0443 351.422,90.0395 351.451,90.0347 351.479,90.0299 351.507,90.0251 351.536,90.0204 351.564,90.0156 351.592,90.0109 
  351.62,90.0062 351.648,90.0014 351.676,89.9967 351.704,89.992 351.732,89.9873 351.76,89.9826 351.788,89.978 351.816,89.9733 351.843,89.9686 351.871,89.964 
  351.899,89.9594 351.926,89.9547 351.954,89.9501 351.981,89.9455 352.009,89.9409 352.036,89.9363 352.063,89.9318 352.091,89.9272 352.118,89.9226 352.145,89.9181 
  352.172,89.9135 352.199,89.909 352.226,89.9045 352.253,89.9 352.28,89.8955 352.307,89.891 352.334,89.8865 352.361,89.882 352.388,89.8775 352.414,89.8731 
  352.441,89.8686 352.468,89.8642 352.494,89.8597 352.521,89.8553 352.547,89.8509 352.574,89.8465 352.6,89.8421 352.626,89.8377 352.653,89.8333 352.679,89.829 
  352.705,89.8246 352.731,89.8203 352.757,89.8159 352.784,89.8116 352.81,89.8073 352.836,89.8029 352.862,89.7986 352.887,89.7943 352.913,89.79 352.939,89.7858 
  352.965,89.7815 352.991,89.7772 353.016,89.773 353.042,89.7687 353.067,89.7645 353.093,89.7602 353.119,89.756 353.144,89.7518 353.169,89.7476 353.195,89.7434 
  353.22,89.7392 353.245,89.735 353.271,89.7309 353.296,89.7267 353.321,89.7225 353.346,89.7184 353.371,89.7143 353.396,89.7101 353.421,89.706 353.446,89.7019 
  353.471,89.6978 353.496,89.6937 353.521,89.6896 353.545,89.6855 353.57,89.6814 353.595,89.6774 353.62,89.6733 353.644,89.6693 353.669,89.6652 353.693,89.6612 
  353.718,89.6572 353.742,89.6531 353.767,89.6491 353.791,89.6451 353.815,89.6411 353.839,89.6372 353.864,89.6332 353.888,89.6292 353.912,89.6252 353.936,89.6213 
  353.96,89.6173 353.984,89.6134 354.008,89.6095 354.032,89.6055 354.056,89.6016 354.08,89.5977 354.104,89.5938 354.128,89.5899 354.151,89.586 354.175,89.5821 
  354.199,89.5783 354.222,89.5744 354.246,89.5706 354.27,89.5667 354.293,89.5629 354.316,89.559 354.34,89.5552 354.363,89.5514 354.387,89.5476 354.41,89.5438 
  354.433,89.54 354.457,89.5362 354.48,89.5324 354.503,89.5286 354.526,89.5248 354.549,89.5211 354.572,89.5173 354.595,89.5136 354.618,89.5098 354.641,89.5061 
  354.664,89.5024 354.687,89.4986 354.71,89.4949 354.732,89.4912 354.755,89.4875 354.778,89.4838 354.801,89.4801 354.823,89.4765 354.846,89.4728 354.868,89.4691 
  354.891,89.4655 354.913,89.4618 354.936,89.4582 354.958,89.4545 354.981,89.4509 355.003,89.4473 355.025,89.4437 355.048,89.4401 355.07,89.4365 355.092,89.4329 
  355.114,89.4293 355.136,89.4257 355.159,89.4221 355.181,89.4185 355.203,89.415 355.225,89.4114 355.247,89.4078 355.269,89.4043 355.29,89.4008 355.312,89.3972 
  355.334,89.3937 355.356,89.3902 355.378,89.3867 355.399,89.3832 355.421,89.3797 355.443,89.3762 355.464,89.3727 355.486,89.3692 355.507,89.3657 355.529,89.3622 
  355.55,89.3588 355.572,89.3553 355.593,89.3519 355.615,89.3484 355.636,89.345 355.657,89.3415 355.679,89.3381 355.7,89.3347 355.721,89.3313 355.742,89.3279 
  355.763,89.3245 355.785,89.3211 355.806,89.3177 355.827,89.3143 355.848,89.3109 355.869,89.3075 355.89,89.3042 355.911,89.3008 355.931,89.2974 355.952,89.2941 
  355.973,89.2907 355.994,89.2874 356.015,89.2841 356.035,89.2807 356.056,89.2774 356.077,89.2741 356.097,89.2708 356.118,89.2675 356.139,89.2642 356.159,89.2609 
  356.18,89.2576 356.2,89.2543 356.221,89.251 356.241,89.2477 356.262,89.2445 356.282,89.2412 356.302,89.2379 356.323,89.2347 356.343,89.2314 356.363,89.2282 
  356.383,89.225 356.404,89.2217 356.424,89.2185 356.444,89.2153 356.464,89.2121 356.484,89.2088 356.504,89.2056 356.524,89.2024 356.544,89.1992 356.564,89.196 
  356.584,89.1929 356.604,89.1897 356.624,89.1865 356.644,89.1833 356.663,89.1802 356.683,89.177 356.703,89.1738 356.723,89.1707 356.742,89.1675 356.762,89.1644 
  356.782,89.1613 356.801,89.1581 356.821,89.155 356.84,89.1519 356.86,89.1488 356.88,89.1456 356.899,89.1425 356.918,89.1394 356.938,89.1363 356.957,89.1332 
  356.977,89.1301 356.996,89.127 357.015,89.124 357.035,89.1209 357.054,89.1178 357.073,89.1147 357.092,89.1117 357.112,89.1086 357.131,89.1056 357.15,89.1025 
  357.169,89.0995 357.188,89.0964 357.207,89.0934 357.226,89.0904 357.245,89.0874 357.264,89.0844 357.283,89.0814 357.301,89.0784 357.32,89.0755 357.339,89.0725 
  357.358,89.0695 357.376,89.0666 357.395,89.0636 357.413,89.0607 357.432,89.0577 357.451,89.0548 357.469,89.0519 357.488,89.0489 357.506,89.046 357.524,89.0431 
  357.543,89.0402 357.561,89.0373 357.58,89.0344 357.598,89.0315 357.616,89.0286 357.635,89.0257 357.653,89.0228 357.671,89.0199 357.689,89.017 357.707,89.0142 
  357.726,89.0113 357.744,89.0084 357.762,89.0056 357.78,89.0027 357.798,88.9999 357.816,88.997 357.834,88.9942 357.852,88.9913 357.87,88.9885 357.888,88.9857 
  357.906,88.9829 357.924,88.98 357.942,88.9772 357.959,88.9744 357.977,88.9716 357.995,88.9688 358.013,88.966 358.031,88.9632 358.048,88.9604 358.066,88.9576 
  358.084,88.9548 358.101,88.9521 358.119,88.9493 358.136,88.9465 358.154,88.9438 358.172,88.941 358.189,88.9382 358.207,88.9355 358.224,88.9327 358.242,88.93 
  358.259,88.9273 358.276,88.9245 358.294,88.9218 358.311,88.9191 358.328,88.9163 358.346,88.9136 358.363,88.9109 358.38,88.9082 358.397,88.9055 358.415,88.9028 
  358.432,88.9001 358.449,88.8974 358.466,88.8947 358.483,88.892 358.5,88.8894 358.517,88.8867 358.534,88.884 358.551,88.8813 358.568,88.8787 358.585,88.876 
  358.602,88.8734 358.619,88.8707 358.636,88.8681 358.653,88.8654 358.67,88.8628 358.687,88.8601 358.703,88.8575 358.72,88.8549 358.737,88.8523 358.754,88.8496 
  358.77,88.847 358.787,88.8444 358.804,88.8418 358.82,88.8392 358.837,88.8366 358.853,88.834 358.87,88.8314 358.887,88.8288 358.903,88.8263 358.92,88.8237 
  358.936,88.8211 358.953,88.8185 358.969,88.816 358.985,88.8134 359.002,88.8108 359.018,88.8083 359.034,88.8057 359.051,88.8032 359.067,88.8007 359.083,88.7981 
  359.1,88.7956 359.116,88.793 359.132,88.7905 359.148,88.788 359.164,88.7855 359.18,88.783 359.197,88.7805 359.213,88.7779 359.229,88.7754 359.245,88.7729 
  359.261,88.7704 359.277,88.768 359.293,88.7655 359.309,88.763 359.325,88.7605 359.34,88.758 359.356,88.7556 359.372,88.7531 359.388,88.7506 359.404,88.7482 
  359.42,88.7457 359.435,88.7432 359.451,88.7408 359.467,88.7384 359.483,88.7359 359.498,88.7335 359.514,88.731 359.53,88.7286 359.545,88.7262 359.561,88.7238 
  359.576,88.7213 359.592,88.7189 359.608,88.7165 359.623,88.7141 359.639,88.7117 359.654,88.7093 359.669,88.7069 359.685,88.7045 359.7,88.7021 359.716,88.6997 
  359.731,88.6973 359.746,88.695 359.762,88.6926 359.777,88.6902 359.792,88.6879 359.808,88.6855 359.823,88.6831 359.838,88.6808 359.853,88.6784 359.868,88.6761 
  359.883,88.6737 359.899,88.6714 359.914,88.669 359.929,88.6667 359.944,88.6644 359.959,88.6621 359.974,88.6597 359.989,88.6574 360.004,88.6551 360.019,88.6528 
  360.034,88.6505 360.049,88.6482 360.064,88.6459 360.079,88.6436 360.093,88.6413 360.108,88.639 360.123,88.6367 360.138,88.6344 360.153,88.6321 360.167,88.6298 
  360.182,88.6276 360.197,88.6253 360.212,88.623 360.226,88.6208 360.241,88.6185 360.255,88.6162 360.27,88.614 360.285,88.6117 360.299,88.6095 360.314,88.6072 
  360.328,88.605 360.343,88.6028 360.357,88.6005 360.372,88.5983 360.386,88.5961 360.401,88.5939 360.415,88.5916 360.43,88.5894 360.444,88.5872 360.458,88.585 
  360.473,88.5828 360.487,88.5806 360.501,88.5784 360.515,88.5762 360.53,88.574 360.544,88.5718 360.558,88.5696 360.572,88.5674 360.587,88.5653 360.601,88.5631 
  360.615,88.5609 360.629,88.5588 360.643,88.5566 360.657,88.5544 360.671,88.5523 360.685,88.5501 360.699,88.548 360.713,88.5458 360.727,88.5437 360.741,88.5415 
  360.755,88.5394 360.769,88.5372 360.783,88.5351 360.797,88.533 360.811,88.5309 360.825,88.5287 360.838,88.5266 360.852,88.5245 360.866,88.5224 360.88,88.5203 
  360.894,88.5182 360.907,88.5161 360.921,88.514 360.935,88.5119 360.948,88.5098 360.962,88.5077 360.976,88.5056 360.989,88.5035 361.003,88.5014 361.017,88.4993 
  361.03,88.4973 361.044,88.4952 361.057,88.4931 361.071,88.4911 361.084,88.489 361.098,88.4869 361.111,88.4849 361.125,88.4828 361.138,88.4808 361.151,88.4787 
  361.165,88.4767 361.178,88.4746 361.192,88.4726 361.205,88.4706 361.218,88.4685 361.232,88.4665 361.245,88.4645 361.258,88.4624 361.271,88.4604 361.285,88.4584 
  361.298,88.4564 361.311,88.4544 361.324,88.4524 361.337,88.4504 361.35,88.4484 361.364,88.4464 361.377,88.4444 361.39,88.4424 361.403,88.4404 361.416,88.4384 
  361.429,88.4364 361.442,88.4344 361.455,88.4325 361.468,88.4305 361.481,88.4285 361.494,88.4265 361.507,88.4246 361.52,88.4226 361.533,88.4206 361.545,88.4187 
  361.558,88.4167 361.571,88.4148 361.584,88.4128 361.597,88.4109 361.61,88.4089 361.622,88.407 361.635,88.4051 361.648,88.4031 361.661,88.4012 361.673,88.3993 
  361.686,88.3973 361.699,88.3954 361.711,88.3935 361.724,88.3916 361.737,88.3896 361.749,88.3877 361.762,88.3858 361.774,88.3839 361.787,88.382 361.799,88.3801 
  361.812,88.3782 361.824,88.3763 361.837,88.3744 361.849,88.3725 361.862,88.3706 361.874,88.3688 361.887,88.3669 361.899,88.365 361.912,88.3631 361.924,88.3612 
  361.936,88.3594 361.949,88.3575 361.961,88.3556 361.973,88.3538 361.986,88.3519 361.998,88.35 362.01,88.3482 362.022,88.3463 362.035,88.3445 362.047,88.3426 
  362.059,88.3408 362.071,88.3389 362.083,88.3371 362.095,88.3353 362.108,88.3334 362.12,88.3316 362.132,88.3298 362.144,88.3279 362.156,88.3261 362.168,88.3243 
  362.18,88.3225 362.192,88.3207 362.204,88.3189 362.216,88.317 362.228,88.3152 362.24,88.3134 362.252,88.3116 362.264,88.3098 362.276,88.308 362.288,88.3062 
  362.3,88.3044 362.312,88.3026 362.323,88.3008 362.335,88.2991 362.347,88.2973 362.359,88.2955 362.371,88.2937 362.383,88.2919 362.394,88.2902 362.406,88.2884 
  362.418,88.2866 362.43,88.2849 362.441,88.2831 362.453,88.2813 362.465,88.2796 362.476,88.2778 362.488,88.2761 362.5,88.2743 362.511,88.2726 362.523,88.2708 
  362.534,88.2691 362.546,88.2673 362.558,88.2656 362.569,88.2638 362.581,88.2621 362.592,88.2604 362.604,88.2586 362.615,88.2569 362.627,88.2552 362.638,88.2535 
  362.65,88.2517 362.661,88.25 362.673,88.2483 362.684,88.2466 362.695,88.2449 362.707,88.2432 362.718,88.2415 362.729,88.2398 362.741,88.2381 362.752,88.2364 
  362.763,88.2347 362.775,88.233 362.786,88.2313 362.797,88.2296 362.809,88.2279 362.82,88.2262 362.831,88.2245 362.842,88.2228 362.853,88.2211 362.865,88.2195 
  362.876,88.2178 362.887,88.2161 362.898,88.2144 362.909,88.2128 362.92,88.2111 362.931,88.2094 362.943,88.2078 362.954,88.2061 362.965,88.2045 362.976,88.2028 
  362.987,88.2011 362.998,88.1995 363.009,88.1978 363.02,88.1962 363.031,88.1946 363.042,88.1929 363.053,88.1913 363.064,88.1896 363.075,88.188 363.086,88.1864 
  363.097,88.1847 363.107,88.1831 363.118,88.1815 363.129,88.1798 363.14,88.1782 363.151,88.1766 363.162,88.175 363.173,88.1733 363.183,88.1717 363.194,88.1701 
  363.205,88.1685 363.216,88.1669 363.226,88.1653 363.237,88.1637 363.248,88.1621 363.259,88.1605 363.269,88.1589 363.28,88.1573 363.291,88.1557 363.301,88.1541 
  363.312,88.1525 363.323,88.1509 363.333,88.1493 363.344,88.1477 363.355,88.1461 363.365,88.1445 363.376,88.143 363.386,88.1414 363.397,88.1398 363.408,88.1382 
  363.418,88.1366 363.429,88.1351 363.439,88.1335 363.45,88.1319 363.46,88.1304 363.471,88.1288 363.481,88.1272 363.492,88.1257 363.502,88.1241 363.512,88.1226 
  363.523,88.121 363.533,88.1195 363.544,88.1179 363.554,88.1164 363.564,88.1148 363.575,88.1133 363.585,88.1117 363.596,88.1102 363.606,88.1086 363.616,88.1071 
  363.627,88.1055 363.637,88.104 363.647,88.1025 363.657,88.1009 363.668,88.0994 363.678,88.0979 363.688,88.0964 363.698,88.0948 363.709,88.0933 363.719,88.0918 
  363.729,88.0903 363.739,88.0888 363.749,88.0872 363.76,88.0857 363.77,88.0842 363.78,88.0827 363.79,88.0812 363.8,88.0797 363.81,88.0782 363.82,88.0767 
  363.83,88.0752 363.841,88.0737 363.851,88.0722 363.861,88.0707 363.871,88.0692 363.881,88.0677 363.891,88.0662 363.901,88.0647 363.911,88.0632 363.921,88.0617 
  363.931,88.0602 363.941,88.0587 363.951,88.0572 363.961,88.0558 363.971,88.0543 363.98,88.0528 363.99,88.0514 364,88.0499 364.01,88.0484 364.02,88.047 
  364.03,88.0455 364.04,88.0441 364.049,88.0426 364.059,88.0412 364.069,88.0397 364.079,88.0383 364.088,88.0368 364.098,88.0354 364.108,88.0339 364.118,88.0325 
  364.127,88.031 364.137,88.0296 364.147,88.0282 364.156,88.0267 364.166,88.0253 364.176,88.0239 364.185,88.0224 364.195,88.021 364.205,88.0196 364.214,88.0182 
  364.224,88.0167 364.233,88.0153 364.243,88.0139 364.252,88.0125 364.262,88.0111 364.272,88.0097 364.281,88.0082 364.291,88.0068 364.3,88.0054 364.31,88.004 
  364.319,88.0026 364.329,88.0012 364.338,87.9998 364.347,87.9984 364.357,87.997 364.366,87.9956 364.376,87.9942 364.385,87.9928 364.395,87.9915 364.404,87.9901 
  364.413,87.9887 364.423,87.9873 364.432,87.9859 364.441,87.9845 364.451,87.9832 364.46,87.9818 364.469,87.9804 364.479,87.979 364.488,87.9776 364.497,87.9763 
  
  "/>
<path clip-path="url(#clip580)" d="
M1988.36 198.898 L2280.8 198.898 L2280.8 95.2176 L1988.36 95.2176  Z
  " fill="#ffffff" fill-rule="evenodd" fill-opacity="1"/>
<polyline clip-path="url(#clip580)" style="stroke:#000000; stroke-linecap:butt; stroke-linejoin:round; stroke-width:4; stroke-opacity:1; fill:none" points="
  1988.36,198.898 2280.8,198.898 2280.8,95.2176 1988.36,95.2176 1988.36,198.898 
  "/>
<polyline clip-path="url(#clip580)" style="stroke:#009af9; stroke-linecap:butt; stroke-linejoin:round; stroke-width:4; stroke-opacity:1; fill:none" points="
  2012.36,147.058 2156.36,147.058 
  "/>
<path clip-path="url(#clip580)" d="M2194.21 166.745 Q2192.4 171.375 2190.69 172.787 Q2188.98 174.199 2186.11 174.199 L2182.7 174.199 L2182.7 170.634 L2185.2 170.634 Q2186.96 170.634 2187.93 169.8 Q2188.91 168.967 2190.09 165.865 L2190.85 163.921 L2180.36 138.412 L2184.88 138.412 L2192.98 158.689 L2201.08 138.412 L2205.6 138.412 L2194.21 166.745 Z" fill="#000000" fill-rule="evenodd" fill-opacity="1" /><path clip-path="url(#clip580)" d="M2212.89 160.402 L2220.53 160.402 L2220.53 134.037 L2212.22 135.703 L2212.22 131.444 L2220.48 129.778 L2225.16 129.778 L2225.16 160.402 L2232.8 160.402 L2232.8 164.338 L2212.89 164.338 L2212.89 160.402 Z" fill="#000000" fill-rule="evenodd" fill-opacity="1" /></svg>
