<?xml version="1.0" encoding="utf-8"?>
<svg xmlns="http://www.w3.org/2000/svg" xmlns:xlink="http://www.w3.org/1999/xlink" width="600" height="400" viewBox="0 0 2400 1600">
<defs>
  <clipPath id="clip430">
    <rect x="0" y="0" width="2400" height="1600"/>
  </clipPath>
</defs>
<path clip-path="url(#clip430)" d="
M0 1600 L2400 1600 L2400 0 L0 0  Z
  " fill="#ffffff" fill-rule="evenodd" fill-opacity="1"/>
<defs>
  <clipPath id="clip431">
    <rect x="480" y="0" width="1681" height="1600"/>
  </clipPath>
</defs>
<path clip-path="url(#clip430)" d="
M112.177 1486.45 L2352.76 1486.45 L2352.76 123.472 L112.177 123.472  Z
  " fill="#ffffff" fill-rule="evenodd" fill-opacity="1"/>
<defs>
  <clipPath id="clip432">
    <rect x="112" y="123" width="2242" height="1364"/>
  </clipPath>
</defs>
<polyline clip-path="url(#clip432)" style="stroke:#000000; stroke-linecap:butt; stroke-linejoin:round; stroke-width:2; stroke-opacity:0.1; fill:none" points="
  487.006,1486.45 487.006,123.472 
  "/>
<polyline clip-path="url(#clip432)" style="stroke:#000000; stroke-linecap:butt; stroke-linejoin:round; stroke-width:2; stroke-opacity:0.1; fill:none" points="
  1033.71,1486.45 1033.71,123.472 
  "/>
<polyline clip-path="url(#clip432)" style="stroke:#000000; stroke-linecap:butt; stroke-linejoin:round; stroke-width:2; stroke-opacity:0.1; fill:none" points="
  1580.42,1486.45 1580.42,123.472 
  "/>
<polyline clip-path="url(#clip432)" style="stroke:#000000; stroke-linecap:butt; stroke-linejoin:round; stroke-width:2; stroke-opacity:0.1; fill:none" points="
  2127.12,1486.45 2127.12,123.472 
  "/>
<polyline clip-path="url(#clip430)" style="stroke:#000000; stroke-linecap:butt; stroke-linejoin:round; stroke-width:4; stroke-opacity:1; fill:none" points="
  112.177,1486.45 2352.76,1486.45 
  "/>
<polyline clip-path="url(#clip430)" style="stroke:#000000; stroke-linecap:butt; stroke-linejoin:round; stroke-width:4; stroke-opacity:1; fill:none" points="
  487.006,1486.45 487.006,1467.55 
  "/>
<polyline clip-path="url(#clip430)" style="stroke:#000000; stroke-linecap:butt; stroke-linejoin:round; stroke-width:4; stroke-opacity:1; fill:none" points="
  1033.71,1486.45 1033.71,1467.55 
  "/>
<polyline clip-path="url(#clip430)" style="stroke:#000000; stroke-linecap:butt; stroke-linejoin:round; stroke-width:4; stroke-opacity:1; fill:none" points="
  1580.42,1486.45 1580.42,1467.55 
  "/>
<polyline clip-path="url(#clip430)" style="stroke:#000000; stroke-linecap:butt; stroke-linejoin:round; stroke-width:4; stroke-opacity:1; fill:none" points="
  2127.12,1486.45 2127.12,1467.55 
  "/>
<path clip-path="url(#clip430)" d="M464.889 1517.37 Q461.277 1517.37 459.449 1520.93 Q457.643 1524.47 457.643 1531.6 Q457.643 1538.71 459.449 1542.27 Q461.277 1545.82 464.889 1545.82 Q468.523 1545.82 470.328 1542.27 Q472.157 1538.71 472.157 1531.6 Q472.157 1524.47 470.328 1520.93 Q468.523 1517.37 464.889 1517.37 M464.889 1513.66 Q470.699 1513.66 473.754 1518.27 Q476.833 1522.85 476.833 1531.6 Q476.833 1540.33 473.754 1544.94 Q470.699 1549.52 464.889 1549.52 Q459.078 1549.52 456 1544.94 Q452.944 1540.33 452.944 1531.6 Q452.944 1522.85 456 1518.27 Q459.078 1513.66 464.889 1513.66 Z" fill="#000000" fill-rule="evenodd" fill-opacity="1" /><path clip-path="url(#clip430)" d="M485.05 1542.97 L489.935 1542.97 L489.935 1548.85 L485.05 1548.85 L485.05 1542.97 Z" fill="#000000" fill-rule="evenodd" fill-opacity="1" /><path clip-path="url(#clip430)" d="M500.166 1514.29 L518.522 1514.29 L518.522 1518.22 L504.448 1518.22 L504.448 1526.7 Q505.467 1526.35 506.486 1526.19 Q507.504 1526 508.523 1526 Q514.31 1526 517.689 1529.17 Q521.069 1532.34 521.069 1537.76 Q521.069 1543.34 517.597 1546.44 Q514.124 1549.52 507.805 1549.52 Q505.629 1549.52 503.361 1549.15 Q501.115 1548.78 498.708 1548.04 L498.708 1543.34 Q500.791 1544.47 503.013 1545.03 Q505.236 1545.58 507.712 1545.58 Q511.717 1545.58 514.055 1543.48 Q516.393 1541.37 516.393 1537.76 Q516.393 1534.15 514.055 1532.04 Q511.717 1529.94 507.712 1529.94 Q505.837 1529.94 503.962 1530.35 Q502.111 1530.77 500.166 1531.65 L500.166 1514.29 Z" fill="#000000" fill-rule="evenodd" fill-opacity="1" /><path clip-path="url(#clip430)" d="M1000.86 1544.91 L1008.5 1544.91 L1008.5 1518.55 L1000.19 1520.21 L1000.19 1515.95 L1008.46 1514.29 L1013.13 1514.29 L1013.13 1544.91 L1020.77 1544.91 L1020.77 1548.85 L1000.86 1548.85 L1000.86 1544.91 Z" fill="#000000" fill-rule="evenodd" fill-opacity="1" /><path clip-path="url(#clip430)" d="M1030.22 1542.97 L1035.1 1542.97 L1035.1 1548.85 L1030.22 1548.85 L1030.22 1542.97 Z" fill="#000000" fill-rule="evenodd" fill-opacity="1" /><path clip-path="url(#clip430)" d="M1055.29 1517.37 Q1051.67 1517.37 1049.85 1520.93 Q1048.04 1524.47 1048.04 1531.6 Q1048.04 1538.71 1049.85 1542.27 Q1051.67 1545.82 1055.29 1545.82 Q1058.92 1545.82 1060.73 1542.27 Q1062.55 1538.71 1062.55 1531.6 Q1062.55 1524.47 1060.73 1520.93 Q1058.92 1517.37 1055.29 1517.37 M1055.29 1513.66 Q1061.1 1513.66 1064.15 1518.27 Q1067.23 1522.85 1067.23 1531.6 Q1067.23 1540.33 1064.15 1544.94 Q1061.1 1549.52 1055.29 1549.52 Q1049.48 1549.52 1046.4 1544.94 Q1043.34 1540.33 1043.34 1531.6 Q1043.34 1522.85 1046.4 1518.27 Q1049.48 1513.66 1055.29 1513.66 Z" fill="#000000" fill-rule="evenodd" fill-opacity="1" /><path clip-path="url(#clip430)" d="M1548.07 1544.91 L1555.71 1544.91 L1555.71 1518.55 L1547.4 1520.21 L1547.4 1515.95 L1555.66 1514.29 L1560.34 1514.29 L1560.34 1544.91 L1567.97 1544.91 L1567.97 1548.85 L1548.07 1548.85 L1548.07 1544.91 Z" fill="#000000" fill-rule="evenodd" fill-opacity="1" /><path clip-path="url(#clip430)" d="M1577.42 1542.97 L1582.3 1542.97 L1582.3 1548.85 L1577.42 1548.85 L1577.42 1542.97 Z" fill="#000000" fill-rule="evenodd" fill-opacity="1" /><path clip-path="url(#clip430)" d="M1592.53 1514.29 L1610.89 1514.29 L1610.89 1518.22 L1596.82 1518.22 L1596.82 1526.7 Q1597.84 1526.35 1598.85 1526.19 Q1599.87 1526 1600.89 1526 Q1606.68 1526 1610.06 1529.17 Q1613.44 1532.34 1613.44 1537.76 Q1613.44 1543.34 1609.96 1546.44 Q1606.49 1549.52 1600.17 1549.52 Q1598 1549.52 1595.73 1549.15 Q1593.48 1548.78 1591.08 1548.04 L1591.08 1543.34 Q1593.16 1544.47 1595.38 1545.03 Q1597.6 1545.58 1600.08 1545.58 Q1604.09 1545.58 1606.42 1543.48 Q1608.76 1541.37 1608.76 1537.76 Q1608.76 1534.15 1606.42 1532.04 Q1604.09 1529.94 1600.08 1529.94 Q1598.21 1529.94 1596.33 1530.35 Q1594.48 1530.77 1592.53 1531.65 L1592.53 1514.29 Z" fill="#000000" fill-rule="evenodd" fill-opacity="1" /><path clip-path="url(#clip430)" d="M2098.36 1544.91 L2114.68 1544.91 L2114.68 1548.85 L2092.74 1548.85 L2092.74 1544.91 Q2095.4 1542.16 2099.98 1537.53 Q2104.59 1532.88 2105.77 1531.53 Q2108.01 1529.01 2108.89 1527.27 Q2109.8 1525.51 2109.8 1523.82 Q2109.8 1521.07 2107.85 1519.33 Q2105.93 1517.6 2102.83 1517.6 Q2100.63 1517.6 2098.17 1518.36 Q2095.74 1519.13 2092.97 1520.68 L2092.97 1515.95 Q2095.79 1514.82 2098.24 1514.24 Q2100.7 1513.66 2102.73 1513.66 Q2108.11 1513.66 2111.3 1516.35 Q2114.49 1519.03 2114.49 1523.52 Q2114.49 1525.65 2113.68 1527.57 Q2112.9 1529.47 2110.79 1532.07 Q2110.21 1532.74 2107.11 1535.95 Q2104.01 1539.15 2098.36 1544.91 Z" fill="#000000" fill-rule="evenodd" fill-opacity="1" /><path clip-path="url(#clip430)" d="M2124.49 1542.97 L2129.38 1542.97 L2129.38 1548.85 L2124.49 1548.85 L2124.49 1542.97 Z" fill="#000000" fill-rule="evenodd" fill-opacity="1" /><path clip-path="url(#clip430)" d="M2149.56 1517.37 Q2145.95 1517.37 2144.12 1520.93 Q2142.32 1524.47 2142.32 1531.6 Q2142.32 1538.71 2144.12 1542.27 Q2145.95 1545.82 2149.56 1545.82 Q2153.2 1545.82 2155 1542.27 Q2156.83 1538.71 2156.83 1531.6 Q2156.83 1524.47 2155 1520.93 Q2153.2 1517.37 2149.56 1517.37 M2149.56 1513.66 Q2155.37 1513.66 2158.43 1518.27 Q2161.51 1522.85 2161.51 1531.6 Q2161.51 1540.33 2158.43 1544.94 Q2155.37 1549.52 2149.56 1549.52 Q2143.75 1549.52 2140.67 1544.94 Q2137.62 1540.33 2137.62 1531.6 Q2137.62 1522.85 2140.67 1518.27 Q2143.75 1513.66 2149.56 1513.66 Z" fill="#000000" fill-rule="evenodd" fill-opacity="1" /><polyline clip-path="url(#clip432)" style="stroke:#000000; stroke-linecap:butt; stroke-linejoin:round; stroke-width:2; stroke-opacity:0.1; fill:none" points="
  112.177,1435.98 2352.76,1435.98 
  "/>
<polyline clip-path="url(#clip432)" style="stroke:#000000; stroke-linecap:butt; stroke-linejoin:round; stroke-width:2; stroke-opacity:0.1; fill:none" points="
  112.177,1083.57 2352.76,1083.57 
  "/>
<polyline clip-path="url(#clip432)" style="stroke:#000000; stroke-linecap:butt; stroke-linejoin:round; stroke-width:2; stroke-opacity:0.1; fill:none" points="
  112.177,731.161 2352.76,731.161 
  "/>
<polyline clip-path="url(#clip432)" style="stroke:#000000; stroke-linecap:butt; stroke-linejoin:round; stroke-width:2; stroke-opacity:0.1; fill:none" points="
  112.177,378.751 2352.76,378.751 
  "/>
<polyline clip-path="url(#clip430)" style="stroke:#000000; stroke-linecap:butt; stroke-linejoin:round; stroke-width:4; stroke-opacity:1; fill:none" points="
  112.177,1486.45 112.177,123.472 
  "/>
<polyline clip-path="url(#clip430)" style="stroke:#000000; stroke-linecap:butt; stroke-linejoin:round; stroke-width:4; stroke-opacity:1; fill:none" points="
  112.177,1435.98 131.075,1435.98 
  "/>
<polyline clip-path="url(#clip430)" style="stroke:#000000; stroke-linecap:butt; stroke-linejoin:round; stroke-width:4; stroke-opacity:1; fill:none" points="
  112.177,1083.57 131.075,1083.57 
  "/>
<polyline clip-path="url(#clip430)" style="stroke:#000000; stroke-linecap:butt; stroke-linejoin:round; stroke-width:4; stroke-opacity:1; fill:none" points="
  112.177,731.161 131.075,731.161 
  "/>
<polyline clip-path="url(#clip430)" style="stroke:#000000; stroke-linecap:butt; stroke-linejoin:round; stroke-width:4; stroke-opacity:1; fill:none" points="
  112.177,378.751 131.075,378.751 
  "/>
<path clip-path="url(#clip430)" d="M56.2699 1449.33 L63.9087 1449.33 L63.9087 1422.96 L55.5986 1424.63 L55.5986 1420.37 L63.8624 1418.7 L68.5383 1418.7 L68.5383 1449.33 L76.1772 1449.33 L76.1772 1453.26 L56.2699 1453.26 L56.2699 1449.33 Z" fill="#000000" fill-rule="evenodd" fill-opacity="1" /><path clip-path="url(#clip430)" d="M59.8578 1096.92 L76.1772 1096.92 L76.1772 1100.85 L54.2328 1100.85 L54.2328 1096.92 Q56.8949 1094.16 61.4782 1089.53 Q66.0846 1084.88 67.2652 1083.54 Q69.5105 1081.01 70.3902 1079.28 Q71.2929 1077.52 71.2929 1075.83 Q71.2929 1073.07 69.3485 1071.34 Q67.4272 1069.6 64.3254 1069.6 Q62.1263 1069.6 59.6726 1070.37 Q57.2421 1071.13 54.4643 1072.68 L54.4643 1067.96 Q57.2884 1066.82 59.7421 1066.25 Q62.1958 1065.67 64.2328 1065.67 Q69.6031 1065.67 72.7976 1068.35 Q75.992 1071.04 75.992 1075.53 Q75.992 1077.66 75.1818 1079.58 Q74.3948 1081.48 72.2883 1084.07 Q71.7096 1084.74 68.6078 1087.96 Q65.5059 1091.15 59.8578 1096.92 Z" fill="#000000" fill-rule="evenodd" fill-opacity="1" /><path clip-path="url(#clip430)" d="M69.0476 729.807 Q72.404 730.525 74.279 732.793 Q76.1772 735.062 76.1772 738.395 Q76.1772 743.511 72.6587 746.312 Q69.1402 749.113 62.6587 749.113 Q60.4828 749.113 58.168 748.673 Q55.8764 748.256 53.4227 747.4 L53.4227 742.886 Q55.3671 744.02 57.6819 744.599 Q59.9967 745.177 62.5198 745.177 Q66.918 745.177 69.2096 743.441 Q71.5244 741.705 71.5244 738.395 Q71.5244 735.339 69.3717 733.627 Q67.242 731.89 63.4226 731.89 L59.3949 731.89 L59.3949 728.048 L63.6078 728.048 Q67.0569 728.048 68.8855 726.682 Q70.7142 725.293 70.7142 722.701 Q70.7142 720.039 68.8161 718.627 Q66.9411 717.191 63.4226 717.191 Q61.5013 717.191 59.3023 717.608 Q57.1032 718.025 54.4643 718.904 L54.4643 714.738 Q57.1264 713.997 59.4412 713.627 Q61.7791 713.256 63.8393 713.256 Q69.1633 713.256 72.2652 715.687 Q75.367 718.094 75.367 722.215 Q75.367 725.085 73.7235 727.076 Q72.08 729.043 69.0476 729.807 Z" fill="#000000" fill-rule="evenodd" fill-opacity="1" /><path clip-path="url(#clip430)" d="M66.5939 365.545 L54.7884 383.994 L66.5939 383.994 L66.5939 365.545 M65.367 361.471 L71.2466 361.471 L71.2466 383.994 L76.1772 383.994 L76.1772 387.883 L71.2466 387.883 L71.2466 396.031 L66.5939 396.031 L66.5939 387.883 L50.9921 387.883 L50.9921 383.369 L65.367 361.471 Z" fill="#000000" fill-rule="evenodd" fill-opacity="1" /><path clip-path="url(#clip430)" d="M777.651 12.096 L785.834 12.096 L785.834 65.6895 L815.284 65.6895 L815.284 72.576 L777.651 72.576 L777.651 12.096 Z" fill="#000000" fill-rule="evenodd" fill-opacity="1" /><path clip-path="url(#clip430)" d="M839.671 32.4315 Q833.675 32.4315 830.191 37.1306 Q826.708 41.7891 826.708 49.9314 Q826.708 58.0738 830.151 62.7728 Q833.635 67.4314 839.671 67.4314 Q845.625 67.4314 849.109 62.7323 Q852.593 58.0333 852.593 49.9314 Q852.593 41.8701 849.109 37.1711 Q845.625 32.4315 839.671 32.4315 M839.671 26.1121 Q849.393 26.1121 854.943 32.4315 Q860.492 38.7509 860.492 49.9314 Q860.492 61.0714 854.943 67.4314 Q849.393 73.7508 839.671 73.7508 Q829.908 73.7508 824.358 67.4314 Q818.849 61.0714 818.849 49.9314 Q818.849 38.7509 824.358 32.4315 Q829.908 26.1121 839.671 26.1121 Z" fill="#000000" fill-rule="evenodd" fill-opacity="1" /><path clip-path="url(#clip430)" d="M880.22 14.324 L880.22 27.2059 L895.573 27.2059 L895.573 32.9987 L880.22 32.9987 L880.22 57.6282 Q880.22 63.1779 881.719 64.7578 Q883.258 66.3376 887.917 66.3376 L895.573 66.3376 L895.573 72.576 L887.917 72.576 Q879.288 72.576 876.007 69.3758 Q872.726 66.1351 872.726 57.6282 L872.726 32.9987 L867.257 32.9987 L867.257 27.2059 L872.726 27.2059 L872.726 14.324 L880.22 14.324 Z" fill="#000000" fill-rule="evenodd" fill-opacity="1" /><path clip-path="url(#clip430)" d="M905.093 9.54393 L912.587 9.54393 L912.587 46.7717 L934.826 27.2059 L944.346 27.2059 L920.284 48.4326 L945.359 72.576 L935.637 72.576 L912.587 50.4176 L912.587 72.576 L905.093 72.576 L905.093 9.54393 Z" fill="#000000" fill-rule="evenodd" fill-opacity="1" /><path clip-path="url(#clip430)" d="M972.581 49.7694 Q963.547 49.7694 960.063 51.8354 Q956.58 53.9013 956.58 58.8839 Q956.58 62.8538 959.172 65.2034 Q961.805 67.5124 966.302 67.5124 Q972.5 67.5124 976.227 63.1374 Q979.994 58.7219 979.994 51.4303 L979.994 49.7694 L972.581 49.7694 M987.448 46.6907 L987.448 72.576 L979.994 72.576 L979.994 65.6895 Q977.442 69.8214 973.634 71.8063 Q969.826 73.7508 964.317 73.7508 Q957.349 73.7508 953.217 69.8619 Q949.126 65.9325 949.126 59.3701 Q949.126 51.7138 954.23 47.825 Q959.375 43.9361 969.543 43.9361 L979.994 43.9361 L979.994 43.2069 Q979.994 38.0623 976.591 35.2672 Q973.229 32.4315 967.112 32.4315 Q963.223 32.4315 959.537 33.3632 Q955.851 34.295 952.448 36.1584 L952.448 29.2718 Q956.539 27.692 960.388 26.9223 Q964.236 26.1121 967.882 26.1121 Q977.725 26.1121 982.587 31.2163 Q987.448 36.3204 987.448 46.6907 Z" fill="#000000" fill-rule="evenodd" fill-opacity="1" /><path clip-path="url(#clip430)" d="M1045.09 72.576 L1022 12.096 L1030.55 12.096 L1049.71 63.0159 L1068.91 12.096 L1077.42 12.096 L1054.37 72.576 L1045.09 72.576 Z" fill="#000000" fill-rule="evenodd" fill-opacity="1" /><path clip-path="url(#clip430)" d="M1097.07 32.4315 Q1091.07 32.4315 1087.59 37.1306 Q1084.1 41.7891 1084.1 49.9314 Q1084.1 58.0738 1087.55 62.7728 Q1091.03 67.4314 1097.07 67.4314 Q1103.02 67.4314 1106.5 62.7323 Q1109.99 58.0333 1109.99 49.9314 Q1109.99 41.8701 1106.5 37.1711 Q1103.02 32.4315 1097.07 32.4315 M1097.07 26.1121 Q1106.79 26.1121 1112.34 32.4315 Q1117.89 38.7509 1117.89 49.9314 Q1117.89 61.0714 1112.34 67.4314 Q1106.79 73.7508 1097.07 73.7508 Q1087.3 73.7508 1081.75 67.4314 Q1076.24 61.0714 1076.24 49.9314 Q1076.24 38.7509 1081.75 32.4315 Q1087.3 26.1121 1097.07 26.1121 Z" fill="#000000" fill-rule="evenodd" fill-opacity="1" /><path clip-path="url(#clip430)" d="M1130.24 9.54393 L1137.7 9.54393 L1137.7 72.576 L1130.24 72.576 L1130.24 9.54393 Z" fill="#000000" fill-rule="evenodd" fill-opacity="1" /><path clip-path="url(#clip430)" d="M1160.66 14.324 L1160.66 27.2059 L1176.02 27.2059 L1176.02 32.9987 L1160.66 32.9987 L1160.66 57.6282 Q1160.66 63.1779 1162.16 64.7578 Q1163.7 66.3376 1168.36 66.3376 L1176.02 66.3376 L1176.02 72.576 L1168.36 72.576 Q1159.73 72.576 1156.45 69.3758 Q1153.17 66.1351 1153.17 57.6282 L1153.17 32.9987 L1147.7 32.9987 L1147.7 27.2059 L1153.17 27.2059 L1153.17 14.324 L1160.66 14.324 Z" fill="#000000" fill-rule="evenodd" fill-opacity="1" /><path clip-path="url(#clip430)" d="M1224.63 48.0275 L1224.63 51.6733 L1190.36 51.6733 Q1190.84 59.3701 1194.98 63.421 Q1199.15 67.4314 1206.56 67.4314 Q1210.85 67.4314 1214.87 66.3781 Q1218.92 65.3249 1222.89 63.2184 L1222.89 70.267 Q1218.88 71.9684 1214.66 72.8596 Q1210.45 73.7508 1206.12 73.7508 Q1195.26 73.7508 1188.9 67.4314 Q1182.58 61.1119 1182.58 50.3365 Q1182.58 39.1965 1188.57 32.6746 Q1194.61 26.1121 1204.82 26.1121 Q1213.97 26.1121 1219.28 32.0264 Q1224.63 37.9003 1224.63 48.0275 M1217.17 45.84 Q1217.09 39.7232 1213.73 36.0774 Q1210.41 32.4315 1204.9 32.4315 Q1198.66 32.4315 1194.89 35.9558 Q1191.17 39.4801 1190.6 45.8805 L1217.17 45.84 Z" fill="#000000" fill-rule="evenodd" fill-opacity="1" /><path clip-path="url(#clip430)" d="M1263.15 34.1734 Q1261.9 33.4443 1260.4 33.1202 Q1258.94 32.7556 1257.16 32.7556 Q1250.84 32.7556 1247.43 36.8875 Q1244.07 40.9789 1244.07 48.6757 L1244.07 72.576 L1236.58 72.576 L1236.58 27.2059 L1244.07 27.2059 L1244.07 34.2544 Q1246.42 30.1225 1250.19 28.1376 Q1253.96 26.1121 1259.34 26.1121 Q1260.11 26.1121 1261.05 26.2337 Q1261.98 26.3147 1263.11 26.5172 L1263.15 34.1734 Z" fill="#000000" fill-rule="evenodd" fill-opacity="1" /><path clip-path="url(#clip430)" d="M1295.8 34.1734 Q1294.55 33.4443 1293.05 33.1202 Q1291.59 32.7556 1289.81 32.7556 Q1283.49 32.7556 1280.08 36.8875 Q1276.72 40.9789 1276.72 48.6757 L1276.72 72.576 L1269.23 72.576 L1269.23 27.2059 L1276.72 27.2059 L1276.72 34.2544 Q1279.07 30.1225 1282.84 28.1376 Q1286.61 26.1121 1291.99 26.1121 Q1292.76 26.1121 1293.7 26.2337 Q1294.63 26.3147 1295.76 26.5172 L1295.8 34.1734 Z" fill="#000000" fill-rule="evenodd" fill-opacity="1" /><path clip-path="url(#clip430)" d="M1324.24 49.7694 Q1315.21 49.7694 1311.72 51.8354 Q1308.24 53.9013 1308.24 58.8839 Q1308.24 62.8538 1310.83 65.2034 Q1313.46 67.5124 1317.96 67.5124 Q1324.16 67.5124 1327.89 63.1374 Q1331.65 58.7219 1331.65 51.4303 L1331.65 49.7694 L1324.24 49.7694 M1339.11 46.6907 L1339.11 72.576 L1331.65 72.576 L1331.65 65.6895 Q1329.1 69.8214 1325.29 71.8063 Q1321.49 73.7508 1315.98 73.7508 Q1309.01 73.7508 1304.88 69.8619 Q1300.79 65.9325 1300.79 59.3701 Q1300.79 51.7138 1305.89 47.825 Q1311.03 43.9361 1321.2 43.9361 L1331.65 43.9361 L1331.65 43.2069 Q1331.65 38.0623 1328.25 35.2672 Q1324.89 32.4315 1318.77 32.4315 Q1314.88 32.4315 1311.2 33.3632 Q1307.51 34.295 1304.11 36.1584 L1304.11 29.2718 Q1308.2 27.692 1312.05 26.9223 Q1315.89 26.1121 1319.54 26.1121 Q1329.38 26.1121 1334.25 31.2163 Q1339.11 36.3204 1339.11 46.6907 Z" fill="#000000" fill-rule="evenodd" fill-opacity="1" /><path clip-path="url(#clip430)" d="M1407.12 34.1734 Q1405.87 33.4443 1404.37 33.1202 Q1402.91 32.7556 1401.13 32.7556 Q1394.81 32.7556 1391.4 36.8875 Q1388.04 40.9789 1388.04 48.6757 L1388.04 72.576 L1380.55 72.576 L1380.55 27.2059 L1388.04 27.2059 L1388.04 34.2544 Q1390.39 30.1225 1394.16 28.1376 Q1397.93 26.1121 1403.31 26.1121 Q1404.08 26.1121 1405.01 26.2337 Q1405.95 26.3147 1407.08 26.5172 L1407.12 34.1734 Z" fill="#000000" fill-rule="evenodd" fill-opacity="1" /><path clip-path="url(#clip430)" d="M1451.92 48.0275 L1451.92 51.6733 L1417.65 51.6733 Q1418.14 59.3701 1422.27 63.421 Q1426.44 67.4314 1433.86 67.4314 Q1438.15 67.4314 1442.16 66.3781 Q1446.21 65.3249 1450.18 63.2184 L1450.18 70.267 Q1446.17 71.9684 1441.96 72.8596 Q1437.75 73.7508 1433.41 73.7508 Q1422.56 73.7508 1416.2 67.4314 Q1409.88 61.1119 1409.88 50.3365 Q1409.88 39.1965 1415.87 32.6746 Q1421.91 26.1121 1432.12 26.1121 Q1441.27 26.1121 1446.58 32.0264 Q1451.92 37.9003 1451.92 48.0275 M1444.47 45.84 Q1444.39 39.7232 1441.03 36.0774 Q1437.71 32.4315 1432.2 32.4315 Q1425.96 32.4315 1422.19 35.9558 Q1418.46 39.4801 1417.9 45.8805 L1444.47 45.84 Z" fill="#000000" fill-rule="evenodd" fill-opacity="1" /><path clip-path="url(#clip430)" d="M1499.48 35.9153 Q1502.28 30.8922 1506.17 28.5022 Q1510.05 26.1121 1515.32 26.1121 Q1522.41 26.1121 1526.26 31.0947 Q1530.11 36.0368 1530.11 45.1919 L1530.11 72.576 L1522.61 72.576 L1522.61 45.4349 Q1522.61 38.913 1520.3 35.7533 Q1517.99 32.5936 1513.25 32.5936 Q1507.46 32.5936 1504.1 36.4419 Q1500.74 40.2903 1500.74 46.9338 L1500.74 72.576 L1493.24 72.576 L1493.24 45.4349 Q1493.24 38.8725 1490.93 35.7533 Q1488.63 32.5936 1483.8 32.5936 Q1478.09 32.5936 1474.73 36.4824 Q1471.37 40.3308 1471.37 46.9338 L1471.37 72.576 L1463.87 72.576 L1463.87 27.2059 L1471.37 27.2059 L1471.37 34.2544 Q1473.92 30.082 1477.49 28.0971 Q1481.05 26.1121 1485.95 26.1121 Q1490.89 26.1121 1494.34 28.6237 Q1497.82 31.1352 1499.48 35.9153 Z" fill="#000000" fill-rule="evenodd" fill-opacity="1" /><path clip-path="url(#clip430)" d="M1565.59 49.7694 Q1556.56 49.7694 1553.08 51.8354 Q1549.59 53.9013 1549.59 58.8839 Q1549.59 62.8538 1552.18 65.2034 Q1554.82 67.5124 1559.31 67.5124 Q1565.51 67.5124 1569.24 63.1374 Q1573.01 58.7219 1573.01 51.4303 L1573.01 49.7694 L1565.59 49.7694 M1580.46 46.6907 L1580.46 72.576 L1573.01 72.576 L1573.01 65.6895 Q1570.45 69.8214 1566.65 71.8063 Q1562.84 73.7508 1557.33 73.7508 Q1550.36 73.7508 1546.23 69.8619 Q1542.14 65.9325 1542.14 59.3701 Q1542.14 51.7138 1547.24 47.825 Q1552.39 43.9361 1562.55 43.9361 L1573.01 43.9361 L1573.01 43.2069 Q1573.01 38.0623 1569.6 35.2672 Q1566.24 32.4315 1560.12 32.4315 Q1556.24 32.4315 1552.55 33.3632 Q1548.86 34.295 1545.46 36.1584 L1545.46 29.2718 Q1549.55 27.692 1553.4 26.9223 Q1557.25 26.1121 1560.89 26.1121 Q1570.74 26.1121 1575.6 31.2163 Q1580.46 36.3204 1580.46 46.6907 Z" fill="#000000" fill-rule="evenodd" fill-opacity="1" /><path clip-path="url(#clip430)" d="M1625.67 34.0924 L1625.67 9.54393 L1633.12 9.54393 L1633.12 72.576 L1625.67 72.576 L1625.67 65.7705 Q1623.32 69.8214 1619.71 71.8063 Q1616.15 73.7508 1611.12 73.7508 Q1602.9 73.7508 1597.72 67.1883 Q1592.57 60.6258 1592.57 49.9314 Q1592.57 39.2371 1597.72 32.6746 Q1602.9 26.1121 1611.12 26.1121 Q1616.15 26.1121 1619.71 28.0971 Q1623.32 30.0415 1625.67 34.0924 M1600.27 49.9314 Q1600.27 58.1548 1603.63 62.8538 Q1607.03 67.5124 1612.95 67.5124 Q1618.86 67.5124 1622.26 62.8538 Q1625.67 58.1548 1625.67 49.9314 Q1625.67 41.7081 1622.26 37.0496 Q1618.86 32.3505 1612.95 32.3505 Q1607.03 32.3505 1603.63 37.0496 Q1600.27 41.7081 1600.27 49.9314 Z" fill="#000000" fill-rule="evenodd" fill-opacity="1" /><path clip-path="url(#clip430)" d="M1687.28 48.0275 L1687.28 51.6733 L1653.01 51.6733 Q1653.5 59.3701 1657.63 63.421 Q1661.8 67.4314 1669.21 67.4314 Q1673.51 67.4314 1677.52 66.3781 Q1681.57 65.3249 1685.54 63.2184 L1685.54 70.267 Q1681.53 71.9684 1677.32 72.8596 Q1673.1 73.7508 1668.77 73.7508 Q1657.91 73.7508 1651.55 67.4314 Q1645.23 61.1119 1645.23 50.3365 Q1645.23 39.1965 1651.23 32.6746 Q1657.26 26.1121 1667.47 26.1121 Q1676.63 26.1121 1681.93 32.0264 Q1687.28 37.9003 1687.28 48.0275 M1679.83 45.84 Q1679.75 39.7232 1676.38 36.0774 Q1673.06 32.4315 1667.55 32.4315 Q1661.32 32.4315 1657.55 35.9558 Q1653.82 39.4801 1653.25 45.8805 L1679.83 45.84 Z" fill="#000000" fill-rule="evenodd" fill-opacity="1" /><polyline clip-path="url(#clip432)" style="stroke:#009af9; stroke-linecap:butt; stroke-linejoin:round; stroke-width:4; stroke-opacity:1; fill:none" points="
  1038.09,1435.63 1042.49,1435.27 1046.9,1434.9 1051.33,1434.52 1055.77,1434.14 1060.22,1433.76 1064.69,1433.37 1069.17,1432.97 1073.66,1432.56 1078.17,1432.15 
  1082.7,1431.73 1087.23,1431.31 1091.78,1430.88 1096.35,1430.44 1100.93,1430 1105.52,1429.55 1110.12,1429.09 1114.74,1428.63 1119.38,1428.16 1124.02,1427.68 
  1128.68,1427.2 1133.36,1426.71 1138.04,1426.21 1142.74,1425.71 1147.45,1425.2 1152.18,1424.68 1156.92,1424.16 1161.67,1423.62 1166.44,1423.08 1171.22,1422.54 
  1176.01,1421.98 1180.81,1421.42 1185.63,1420.86 1190.46,1420.28 1195.3,1419.7 1200.15,1419.11 1205.02,1418.51 1209.9,1417.9 1214.79,1417.29 1219.69,1416.67 
  1224.61,1416.04 1229.53,1415.4 1234.47,1414.76 1239.42,1414.11 1244.39,1413.45 1249.36,1412.78 1254.35,1412.1 1259.34,1411.42 1264.35,1410.73 1269.37,1410.03 
  1274.4,1409.32 1279.44,1408.6 1284.49,1407.87 1289.55,1407.14 1294.63,1406.4 1299.71,1405.65 1304.8,1404.89 1309.91,1404.12 1315.02,1403.34 1320.15,1402.56 
  1325.28,1401.76 1330.42,1400.96 1335.58,1400.15 1340.74,1399.32 1345.91,1398.49 1351.09,1397.65 1356.28,1396.8 1361.48,1395.95 1366.68,1395.08 1371.9,1394.2 
  1377.12,1393.31 1382.35,1392.42 1387.59,1391.51 1392.84,1390.6 1398.09,1389.67 1403.36,1388.74 1408.63,1387.79 1413.9,1386.84 1419.19,1385.87 1424.48,1384.9 
  1429.77,1383.91 1435.08,1382.91 1440.38,1381.91 1445.7,1380.89 1451.02,1379.86 1456.35,1378.83 1461.68,1377.78 1467.01,1376.72 1472.36,1375.65 1477.7,1374.57 
  1483.05,1373.48 1488.41,1372.38 1493.76,1371.26 1499.13,1370.14 1504.49,1369 1509.86,1367.85 1515.23,1366.69 1520.61,1365.52 1525.98,1364.34 1531.36,1363.15 
  1536.74,1361.94 1542.12,1360.73 1547.51,1359.5 1552.89,1358.26 1558.28,1357 1563.67,1355.74 1569.05,1354.46 1574.44,1353.17 1579.82,1351.87 1585.21,1350.55 
  1590.6,1349.22 1595.98,1347.88 1601.36,1346.53 1606.74,1345.16 1612.12,1343.79 1617.5,1342.39 1622.87,1340.99 1628.24,1339.57 1633.61,1338.14 1638.97,1336.69 
  1644.33,1335.24 1649.68,1333.76 1655.03,1332.28 1660.38,1330.78 1665.72,1329.26 1671.05,1327.74 1676.38,1326.19 1681.7,1324.64 1687.01,1323.07 1692.32,1321.48 
  1697.61,1319.88 1702.91,1318.27 1708.19,1316.64 1713.46,1315 1718.72,1313.34 1723.98,1311.67 1729.22,1309.98 1734.46,1308.28 1739.68,1306.56 1744.89,1304.82 
  1750.09,1303.07 1755.28,1301.31 1760.45,1299.53 1765.61,1297.73 1770.76,1295.92 1775.89,1294.09 1781.01,1292.24 1786.12,1290.38 1791.21,1288.51 1796.28,1286.61 
  1801.34,1284.7 1806.38,1282.78 1811.4,1280.83 1816.41,1278.87 1821.4,1276.9 1826.37,1274.9 1831.31,1272.89 1836.25,1270.86 1841.16,1268.82 1846.05,1266.75 
  1850.91,1264.67 1855.76,1262.57 1860.58,1260.46 1865.39,1258.32 1870.17,1256.17 1874.92,1254 1879.65,1251.81 1884.36,1249.61 1889.04,1247.38 1893.69,1245.14 
  1898.32,1242.88 1902.92,1240.6 1907.5,1238.3 1912.04,1235.98 1916.56,1233.64 1921.05,1231.29 1925.51,1228.91 1929.93,1226.52 1934.33,1224.1 1938.7,1221.67 
  1943.03,1219.22 1947.33,1216.75 1951.6,1214.25 1955.83,1211.74 1960.03,1209.21 1964.19,1206.66 1968.32,1204.09 1972.42,1201.5 1976.47,1198.88 1980.5,1196.25 
  1984.48,1193.6 1988.42,1190.93 1992.33,1188.23 1996.19,1185.52 2000.02,1182.78 2003.8,1180.03 2007.55,1177.25 2011.25,1174.45 2014.9,1171.63 2018.52,1168.79 
  2022.08,1165.93 2025.61,1163.05 2029.08,1160.14 2032.51,1157.22 2035.9,1154.27 2039.23,1151.3 2042.52,1148.31 2045.76,1145.29 2048.94,1142.26 2052.08,1139.2 
  2055.17,1136.12 2058.2,1133.02 2061.19,1129.9 2064.12,1126.75 2066.99,1123.58 2069.81,1120.39 2072.58,1117.18 2075.29,1113.95 2077.95,1110.69 2080.55,1107.41 
  2083.09,1104.11 2085.57,1100.78 2088,1097.44 2090.36,1094.07 2092.67,1090.68 2094.92,1087.26 2097.11,1083.83 2099.23,1080.37 2101.29,1076.89 2103.3,1073.38 
  2105.23,1069.86 2107.11,1066.31 2108.92,1062.74 2110.67,1059.15 2112.35,1055.53 2113.96,1051.89 2115.51,1048.23 2117,1044.55 2118.41,1040.85 2119.76,1037.12 
  2121.04,1033.37 2122.25,1029.6 2123.39,1025.81 2124.47,1022 2125.47,1018.16 2126.4,1014.31 2127.26,1010.43 2128.05,1006.53 2128.77,1002.6 2129.41,998.659 
  2129.98,994.694 2130.48,990.707 2130.9,986.7 2131.25,982.671 2131.53,978.621 2131.72,974.55 2131.85,970.458 2131.89,966.345 2131.86,962.212 2131.76,958.058 
  2131.57,953.884 2131.31,949.689 2130.97,945.475 2130.55,941.24 2130.05,936.985 2129.47,932.711 2128.81,928.417 2128.07,924.103 2127.25,919.77 2126.34,915.417 
  2125.36,911.046 2124.3,906.655 2123.15,902.246 2121.92,897.819 2120.61,893.373 2119.22,888.909 2117.74,884.427 2116.18,879.928 2114.54,875.412 2112.82,870.879 
  2111.02,866.33 2109.13,861.764 2107.16,857.182 2105.1,852.584 2102.97,847.971 2100.75,843.343 2098.45,838.7 2096.06,834.043 2093.59,829.371 2091.04,824.686 
  2088.41,819.987 2085.69,815.274 2082.9,810.549 2080.01,805.811 2077.05,801.061 2074.01,796.3 2070.88,791.526 2067.67,786.742 2064.38,781.947 2061.01,777.141 
  2057.55,772.325 2054.02,767.499 2050.4,762.665 2046.71,757.821 2042.93,752.968 2039.07,748.108 2035.14,743.239 2031.13,738.364 2027.03,733.481 2022.86,728.591 
  2018.61,723.696 2014.28,718.795 2009.88,713.888 2005.4,708.976 2000.84,704.06 1996.2,699.14 1991.49,694.216 1986.71,689.289 1981.85,684.359 1976.92,679.427 
  1971.91,674.493 1966.83,669.558 1961.68,664.621 1956.45,659.684 1951.16,654.748 1945.79,649.811 1940.36,644.876 1934.86,639.941 1929.28,635.009 1923.64,630.079 
  1917.93,625.152 1912.16,620.229 1906.32,615.309 1900.41,610.394 1894.44,605.483 1888.41,600.578 1882.32,595.679 1876.16,590.787 1869.94,585.901 1863.66,581.023 
  1857.32,576.153 1850.93,571.291 1844.47,566.439 1837.96,561.596 1831.4,556.763 1824.77,551.942 1818.1,547.131 1811.37,542.333 1804.59,537.547 1797.76,532.774 
  1790.88,528.014 1783.95,523.269 1776.97,518.539 1769.94,513.823 1762.87,509.122 1755.75,504.437 1748.58,499.768 1741.37,495.115 1734.11,490.479 1726.81,485.861 
  1719.47,481.262 1712.09,476.681 1704.67,472.12 1697.22,467.579 1689.73,463.058 1682.2,458.558 1674.64,454.08 1667.05,449.624 1659.42,445.191 1651.77,440.78 
  1644.08,436.393 1636.37,432.03 1628.63,427.692 1620.86,423.378 1613.07,419.09 1605.25,414.828 1597.42,410.592 1589.56,406.383 1581.67,402.202 1573.77,398.048 
  1565.86,393.921 1557.92,389.824 1549.97,385.755 1542,381.716 1534.01,377.706 1526.02,373.727 1518.01,369.777 1509.99,365.859 1501.96,361.972 1493.92,358.116 
  1485.87,354.293 1477.81,350.501 1469.75,346.742 1461.68,343.016 1453.6,339.324 1445.52,335.664 1437.44,332.039 1429.36,328.448 1421.28,324.891 1413.19,321.369 
  1405.11,317.883 1397.02,314.431 1388.94,311.015 1380.86,307.635 1372.79,304.291 1364.72,300.983 1356.66,297.712 1348.6,294.478 1340.55,291.281 1332.51,288.121 
  1324.48,284.999 1316.46,281.914 1308.44,278.867 1300.44,275.858 1292.45,272.888 1284.48,269.956 1276.51,267.063 1268.57,264.208 1260.63,261.392 1252.71,258.616 
  1244.81,255.879 1236.93,253.181 1229.06,250.522 1221.21,247.903 1213.38,245.324 1205.57,242.785 1197.79,240.286 1190.02,237.827 1182.27,235.408 1174.55,233.029 
  1166.85,230.69 1159.17,228.392 1151.52,226.134 1143.89,223.917 1136.29,221.74 1128.72,219.604 1121.17,217.509 1113.65,215.454 1106.15,213.439 1098.69,211.466 
  1091.25,209.533 1083.84,207.641 1076.47,205.789 1069.12,203.978 1061.81,202.208 1054.52,200.478 1047.27,198.788 1040.05,197.14 1032.87,195.532 1025.71,193.965 
  1018.59,192.438 1011.51,190.953 1004.46,189.507 997.441,188.102 990.458,186.737 983.509,185.412 976.596,184.126 969.717,182.88 962.873,181.674 956.065,180.507 
  949.292,179.379 942.555,178.29 935.853,177.24 929.188,176.228 922.559,175.255 915.966,174.32 909.409,173.423 902.889,172.565 896.405,171.744 889.959,170.96 
  883.549,170.214 877.176,169.505 870.84,168.833 864.542,168.199 858.281,167.6 852.057,167.039 845.871,166.513 839.723,166.024 833.612,165.57 827.539,165.153 
  821.504,164.771 815.507,164.424 809.547,164.113 803.626,163.836 797.743,163.594 791.897,163.387 786.09,163.214 780.321,163.075 774.59,162.97 768.898,162.899 
  763.243,162.862 757.627,162.858 752.049,162.887 746.509,162.949 741.007,163.043 735.544,163.171 730.118,163.33 724.731,163.521 719.382,163.745 714.071,164 
  708.798,164.286 703.563,164.604 698.366,164.952 693.207,165.331 688.085,165.741 683.001,166.181 677.955,166.651 672.947,167.151 667.976,167.68 663.042,168.239 
  658.146,168.827 653.287,169.444 648.465,170.089 643.68,170.763 638.932,171.465 634.221,172.195 629.546,172.952 624.908,173.737 620.306,174.55 615.741,175.389 
  611.211,176.254 606.718,177.147 602.26,178.065 597.838,179.009 593.451,179.979 589.099,180.975 584.783,181.995 580.501,183.041 576.254,184.111 572.042,185.205 
  567.864,186.324 563.72,187.466 559.61,188.632 555.533,189.821 551.49,191.034 547.48,192.269 543.503,193.526 539.559,194.806 535.647,196.108 531.767,197.431 
  527.919,198.776 524.103,200.142 520.319,201.528 516.566,202.935 512.843,204.363 509.151,205.81 505.49,207.277 501.858,208.764 498.256,210.269 494.684,211.794 
  491.14,213.337 487.626,214.898 484.14,216.477 480.682,218.074 477.254,219.689 473.856,221.322 470.486,222.972 467.145,224.64 463.833,226.325 460.55,228.027 
  457.294,229.746 454.067,231.481 450.867,233.232 447.695,235 444.55,236.783 441.433,238.583 438.342,240.397 435.278,242.227 432.241,244.072 429.229,245.932 
  426.244,247.806 423.285,249.695 420.352,251.598 417.444,253.515 414.562,255.446 411.704,257.39 408.872,259.348 406.064,261.32 403.281,263.304 400.522,265.301 
  397.787,267.311 395.077,269.333 392.39,271.368 389.726,273.414 387.086,275.473 384.469,277.543 381.876,279.625 379.305,281.719 376.756,283.823 374.231,285.938 
  371.727,288.065 369.246,290.202 366.786,292.349 364.349,294.507 361.932,296.675 359.538,298.853 357.164,301.041 354.812,303.238 352.48,305.445 350.169,307.661 
  347.879,309.886 345.609,312.12 343.36,314.364 341.13,316.615 338.92,318.875 336.73,321.144 334.56,323.421 332.409,325.706 330.277,327.998 328.165,330.299 
  326.071,332.607 323.996,334.922 321.94,337.245 319.902,339.575 317.882,341.912 315.881,344.255 313.897,346.606 311.932,348.963 309.984,351.326 308.053,353.696 
  306.141,356.072 304.245,358.454 302.366,360.841 300.505,363.235 298.66,365.634 296.832,368.039 295.021,370.449 293.226,372.864 291.447,375.284 289.685,377.709 
  287.938,380.14 286.208,382.574 284.493,385.014 282.793,387.458 281.11,389.906 279.441,392.359 277.788,394.816 276.15,397.277 274.527,399.742 272.919,402.21 
  271.325,404.682 269.746,407.158 268.182,409.638 266.632,412.12 265.096,414.606 263.574,417.096 262.067,419.588 260.573,422.083 259.093,424.581 257.627,427.082 
  256.174,429.586 254.735,432.092 253.309,434.6 251.897,437.111 250.497,439.625 249.111,442.14 247.737,444.658 246.376,447.178 245.028,449.699 243.693,452.223 
  242.37,454.748 241.06,457.275 239.762,459.804 238.476,462.334 237.202,464.866 235.94,467.399 234.69,469.933 233.452,472.468 232.225,475.005 231.009,477.542 
  229.805,480.08 228.612,482.619 227.43,485.159 226.259,487.699 225.099,490.24 223.95,492.781 222.811,495.323 221.684,497.865 220.566,500.407 219.46,502.95 
  218.363,505.492 217.277,508.035 216.201,510.578 215.136,513.121 214.08,515.664 213.034,518.206 211.999,520.748 210.973,523.29 209.956,525.832 208.95,528.373 
  207.953,530.914 206.965,533.454 205.987,535.994 205.018,538.533 204.059,541.071 203.109,543.608 202.167,546.145 201.235,548.681 200.312,551.215 199.398,553.749 
  198.492,556.282 197.595,558.813 196.707,561.344 195.828,563.873 194.956,566.401 194.094,568.928 193.24,571.453 192.394,573.977 191.556,576.499 190.726,579.02 
  189.905,581.539 189.092,584.057 188.286,586.572 187.489,589.087 186.699,591.599 185.917,594.11 185.143,596.618 184.377,599.125 183.618,601.63 182.866,604.133 
  182.122,606.634 181.386,609.132 180.657,611.629 179.935,614.123 179.22,616.616 178.513,619.106 177.812,621.593 177.119,624.079 176.433,626.562 175.753,629.042 
  175.081,631.52 174.415,633.996 173.756,636.469 173.104,638.939 172.458,641.407 171.82,643.872 171.187,646.335 170.562,648.795 169.942,651.252 169.329,653.706 
  168.723,656.158 168.123,658.607 167.529,661.053 166.941,663.496 166.36,665.936 165.784,668.373 165.215,670.807 164.652,673.238 164.094,675.666 163.543,678.091 
  162.998,680.513 162.458,682.931 161.925,685.347 161.397,687.759 160.875,690.168 160.358,692.574 159.848,694.977 159.343,697.377 158.843,699.773 158.349,702.166 
  157.861,704.555 157.378,706.941 156.901,709.324 156.429,711.703 155.962,714.079 155.501,716.452 155.045,718.821 154.594,721.186 154.149,723.548 153.709,725.907 
  153.274,728.262 152.844,730.613 152.419,732.961 152,735.305 151.585,737.646 151.176,739.983 150.771,742.317 150.372,744.647 149.978,746.973 149.588,749.296 
  149.204,751.615 148.824,753.93 148.449,756.242 148.079,758.55 147.714,760.854 147.354,763.155 146.998,765.452 146.647,767.745 146.301,770.034 145.959,772.319 
  145.622,774.6 145.289,776.878 144.961,779.151 144.637,781.421 144.317,783.686 144.002,785.948 143.692,788.206 143.385,790.46 143.083,792.709 142.786,794.955 
  142.492,797.197 142.203,799.435 141.919,801.669 141.638,803.899 141.362,806.125 141.09,808.346 140.822,810.564 140.558,812.778 140.298,814.987 140.043,817.193 
  139.791,819.394 139.544,821.591 139.3,823.785 139.061,825.974 138.825,828.159 138.594,830.34 138.367,832.516 138.143,834.689 137.923,836.857 137.708,839.021 
  137.496,841.182 137.288,843.337 137.084,845.489 136.883,847.637 136.687,849.78 136.494,851.919 136.305,854.054 136.12,856.185 135.939,858.311 135.761,860.434 
  135.587,862.552 135.417,864.665 135.25,866.775 135.087,868.88 134.927,870.981 134.772,873.078 134.619,875.17 134.471,877.258 134.326,879.342 134.184,881.422 
  134.046,883.497 133.912,885.568 133.781,887.635 133.654,889.697 133.53,891.756 133.409,893.809 133.292,895.859 133.179,897.904 133.069,899.945 132.962,901.981 
  132.858,904.014 132.758,906.041 132.662,908.065 132.569,910.084 132.479,912.099 132.392,914.109 132.309,916.115 132.229,918.117 132.152,920.115 132.079,922.108 
  132.009,924.096 131.942,926.081 131.878,928.061 131.818,930.036 131.761,932.008 131.707,933.975 131.656,935.937 131.609,937.895 131.565,939.849 131.524,941.798 
  131.486,943.744 131.451,945.684 131.419,947.621 131.391,949.552 131.365,951.48 131.343,953.403 131.324,955.322 131.308,957.236 131.295,959.147 131.285,961.052 
  131.279,962.954 131.275,964.851 131.274,966.743 131.277,968.631 131.283,970.515 131.291,972.395 131.303,974.27 131.317,976.141 131.335,978.007 131.356,979.869 
  131.38,981.727 131.406,983.58 131.436,985.429 131.469,987.274 131.505,989.114 131.544,990.95 131.585,992.782 131.63,994.609 131.678,996.432 131.729,998.251 
  131.782,1000.07 131.839,1001.88 131.899,1003.68 131.961,1005.48 132.027,1007.28 132.095,1009.07 132.167,1010.86 132.241,1012.64 132.319,1014.42 132.399,1016.2 
  132.482,1017.97 132.568,1019.74 132.658,1021.5 132.75,1023.26 132.845,1025.01 132.943,1026.76 133.044,1028.51 133.148,1030.25 133.254,1031.99 133.364,1033.72 
  133.477,1035.45 133.592,1037.17 133.71,1038.89 133.832,1040.61 133.956,1042.32 134.083,1044.03 134.213,1045.73 134.346,1047.43 134.481,1049.12 134.62,1050.81 
  134.762,1052.5 134.906,1054.18 135.053,1055.86 135.203,1057.53 135.357,1059.2 135.513,1060.87 135.671,1062.53 135.833,1064.18 135.998,1065.83 136.165,1067.48 
  136.336,1069.13 136.509,1070.77 136.685,1072.4 136.865,1074.03 137.047,1075.66 137.231,1077.28 137.419,1078.9 137.61,1080.52 137.804,1082.13 138,1083.73 
  138.2,1085.33 138.402,1086.93 138.607,1088.52 138.815,1090.11 139.026,1091.7 139.24,1093.28 139.457,1094.86 139.677,1096.43 139.899,1098 140.125,1099.56 
  140.354,1101.13 140.585,1102.68 140.819,1104.23 141.057,1105.78 141.297,1107.33 141.54,1108.87 141.786,1110.4 142.035,1111.94 142.287,1113.46 142.542,1114.99 
  142.8,1116.51 143.061,1118.02 143.325,1119.53 143.591,1121.04 143.861,1122.54 144.134,1124.04 144.409,1125.54 144.688,1127.03 144.97,1128.52 145.254,1130 
  145.542,1131.48 145.832,1132.96 146.126,1134.43 146.422,1135.9 146.722,1137.36 147.025,1138.82 147.33,1140.27 147.639,1141.72 147.95,1143.17 148.265,1144.62 
  148.583,1146.05 148.903,1147.49 149.227,1148.92 149.554,1150.35 149.884,1151.77 150.217,1153.19 150.553,1154.61 150.892,1156.02 151.234,1157.43 151.579,1158.83 
  151.928,1160.23 152.279,1161.63 152.634,1163.02 152.991,1164.41 153.352,1165.79 153.716,1167.17 154.083,1168.55 154.453,1169.92 154.827,1171.29 155.203,1172.65 
  155.583,1174.02 155.966,1175.37 156.352,1176.73 156.741,1178.08 157.133,1179.42 157.529,1180.76 157.927,1182.1 158.329,1183.43 158.734,1184.76 159.143,1186.09 
  159.554,1187.41 159.969,1188.73 160.387,1190.05 160.809,1191.36 161.233,1192.67 161.661,1193.97 162.093,1195.27 162.527,1196.56 162.965,1197.86 163.406,1199.15 
  163.851,1200.43 164.298,1201.71 164.749,1202.99 165.204,1204.26 165.662,1205.53 166.123,1206.8 166.588,1208.06 167.056,1209.32 167.527,1210.57 168.002,1211.82 
  168.48,1213.07 168.962,1214.31 169.447,1215.55 169.935,1216.79 170.427,1218.02 170.923,1219.25 171.421,1220.48 171.924,1221.7 172.43,1222.91 172.939,1224.13 
  173.452,1225.34 173.969,1226.55 174.489,1227.75 175.012,1228.95 175.539,1230.14 176.07,1231.34 176.604,1232.53 177.142,1233.71 177.684,1234.89 178.229,1236.07 
  178.778,1237.24 179.33,1238.41 179.887,1239.58 180.446,1240.74 181.01,1241.9 181.577,1243.06 182.148,1244.21 182.723,1245.36 183.301,1246.51 183.884,1247.65 
  184.47,1248.79 185.059,1249.92 185.653,1251.05 186.25,1252.18 186.852,1253.31 187.457,1254.43 188.066,1255.54 188.678,1256.66 189.295,1257.77 189.915,1258.87 
  190.54,1259.98 191.168,1261.08 191.8,1262.17 192.437,1263.26 193.077,1264.35 193.721,1265.44 194.369,1266.52 195.021,1267.6 195.677,1268.67 196.338,1269.75 
  197.002,1270.81 197.67,1271.88 198.342,1272.94 199.019,1274 199.699,1275.05 200.384,1276.1 201.073,1277.15 201.766,1278.19 202.463,1279.23 203.164,1280.27 
  203.87,1281.31 204.579,1282.34 205.293,1283.36 206.011,1284.39 206.734,1285.41 207.461,1286.42 208.192,1287.44 208.927,1288.45 209.666,1289.45 210.41,1290.46 
  211.159,1291.46 211.911,1292.45 212.669,1293.45 213.43,1294.44 214.196,1295.42 214.967,1296.41 215.741,1297.38 216.521,1298.36 217.305,1299.33 218.093,1300.3 
  218.886,1301.27 219.683,1302.23 220.485,1303.19 221.292,1304.15 222.103,1305.1 222.919,1306.05 223.74,1307 224.565,1307.94 225.395,1308.88 226.229,1309.82 
  227.068,1310.75 227.912,1311.68 228.761,1312.61 229.615,1313.53 230.473,1314.45 231.336,1315.37 232.204,1316.28 233.077,1317.19 233.955,1318.1 234.838,1319.01 
  235.725,1319.91 236.618,1320.8 237.515,1321.7 238.418,1322.59 239.325,1323.48 240.238,1324.36 241.155,1325.24 242.078,1326.12 243.006,1327 243.938,1327.87 
  244.876,1328.74 245.819,1329.6 246.768,1330.46 247.721,1331.32 248.68,1332.18 249.644,1333.03 250.613,1333.88 251.587,1334.72 252.567,1335.57 253.552,1336.41 
  254.543,1337.24 255.538,1338.08 256.54,1338.91 257.546,1339.73 258.558,1340.56 259.576,1341.38 260.599,1342.19 261.627,1343.01 262.661,1343.82 263.701,1344.63 
  264.746,1345.43 265.797,1346.23 266.853,1347.03 267.916,1347.83 268.983,1348.62 270.057,1349.41 271.136,1350.19 272.221,1350.98 273.312,1351.76 274.408,1352.53 
  275.51,1353.3 276.619,1354.07 277.733,1354.84 278.853,1355.61 279.979,1356.37 281.11,1357.12 282.248,1357.88 283.392,1358.63 284.542,1359.38 285.698,1360.12 
  286.86,1360.87 288.028,1361.6 289.202,1362.34 290.382,1363.07 291.569,1363.8 292.762,1364.53 293.961,1365.25 295.166,1365.97 296.377,1366.69 297.595,1367.4 
  298.819,1368.11 300.05,1368.82 301.287,1369.53 302.53,1370.23 303.78,1370.93 305.037,1371.62 306.299,1372.32 307.569,1373 308.845,1373.69 310.127,1374.37 
  311.416,1375.05 312.712,1375.73 314.015,1376.41 315.324,1377.08 316.64,1377.74 317.962,1378.41 319.292,1379.07 320.628,1379.73 321.971,1380.39 323.321,1381.04 
  324.678,1381.69 326.042,1382.33 327.413,1382.98 328.791,1383.62 330.176,1384.25 331.568,1384.89 332.967,1385.52 334.373,1386.15 335.786,1386.77 337.206,1387.4 
  338.634,1388.01 340.069,1388.63 341.511,1389.24 342.96,1389.85 344.417,1390.46 345.881,1391.06 347.353,1391.66 348.832,1392.26 350.318,1392.86 351.812,1393.45 
  353.314,1394.04 354.823,1394.62 356.339,1395.2 357.863,1395.78 359.395,1396.36 360.934,1396.93 362.482,1397.5 364.037,1398.07 365.599,1398.63 367.17,1399.2 
  368.748,1399.75 370.334,1400.31 371.928,1400.86 373.529,1401.41 375.138,1401.96 376.755,1402.5 378.379,1403.04 380.011,1403.57 381.651,1404.11 383.298,1404.64 
  384.954,1405.16 386.617,1405.69 388.289,1406.21 389.968,1406.73 391.656,1407.24 393.352,1407.75 395.056,1408.26 396.768,1408.77 398.488,1409.27 400.217,1409.77 
  401.954,1410.26 403.7,1410.76 405.454,1411.25 407.216,1411.73 408.988,1412.22 410.767,1412.7 412.556,1413.17 414.353,1413.65 416.159,1414.12 417.974,1414.59 
  419.797,1415.05 421.63,1415.52 423.471,1415.97 425.322,1416.43 427.181,1416.88 429.049,1417.33 430.927,1417.78 432.814,1418.22 434.71,1418.66 436.615,1419.1 
  438.53,1419.54 440.454,1419.97 442.387,1420.4 444.33,1420.82 446.282,1421.24 448.244,1421.66 450.215,1422.08 452.196,1422.49 454.187,1422.9 456.187,1423.31 
  458.197,1423.71 460.217,1424.11 462.247,1424.51 464.286,1424.9 466.336,1425.29 468.395,1425.68 470.464,1426.07 472.544,1426.45 474.633,1426.83 476.733,1427.2 
  478.843,1427.57 480.963,1427.94 483.093,1428.31 485.234,1428.67 487.384,1429.03 489.546,1429.39 491.717,1429.74 493.899,1430.09 496.092,1430.44 498.295,1430.79 
  500.509,1431.13 502.733,1431.46 504.968,1431.8 507.213,1432.13 509.47,1432.46 511.737,1432.78 514.015,1433.11 516.303,1433.42 518.603,1433.74 520.914,1434.05 
  523.235,1434.36 525.568,1434.67 527.911,1434.97 530.266,1435.27 532.631,1435.56 535.008,1435.86 537.396,1436.15 539.796,1436.43 542.206,1436.72 544.628,1437 
  547.061,1437.27 549.505,1437.55 551.961,1437.81 554.429,1438.08 556.908,1438.34 559.398,1438.6 561.9,1438.86 564.413,1439.11 566.938,1439.36 569.475,1439.61 
  572.023,1439.85 574.584,1440.09 577.156,1440.33 579.739,1440.56 582.335,1440.79 584.942,1441.02 587.561,1441.24 590.193,1441.46 592.836,1441.67 595.491,1441.89 
  598.158,1442.1 600.838,1442.3 603.529,1442.5 606.232,1442.7 608.948,1442.9 611.676,1443.09 614.416,1443.27 617.168,1443.46 619.933,1443.64 622.71,1443.82 
  625.499,1443.99 628.301,1444.16 631.115,1444.33 633.942,1444.49 636.781,1444.65 639.632,1444.8 642.496,1444.95 645.373,1445.1 648.262,1445.25 651.164,1445.39 
  654.079,1445.52 657.006,1445.66 659.946,1445.79 662.899,1445.91 665.865,1446.03 668.843,1446.15 671.834,1446.27 674.838,1446.38 677.856,1446.48 680.885,1446.59 
  683.928,1446.69 686.984,1446.78 690.053,1446.87 693.135,1446.96 696.23,1447.04 699.338,1447.12 702.46,1447.2 705.594,1447.27 708.742,1447.34 711.902,1447.4 
  715.077,1447.46 718.264,1447.52 721.464,1447.57 724.678,1447.62 727.906,1447.66 731.146,1447.7 734.4,1447.74 737.668,1447.77 740.949,1447.8 744.243,1447.82 
  747.551,1447.84 750.873,1447.85 754.208,1447.86 757.556,1447.87 760.918,1447.87 764.294,1447.87 767.684,1447.86 771.087,1447.85 774.504,1447.84 777.934,1447.82 
  781.378,1447.8 784.837,1447.77 788.308,1447.74 791.794,1447.7 795.294,1447.66 798.807,1447.61 802.334,1447.56 805.875,1447.51 809.431,1447.45 813,1447.39 
  816.583,1447.32 820.18,1447.25 823.791,1447.17 827.416,1447.09 831.055,1447 834.709,1446.91 838.376,1446.82 842.057,1446.72 845.753,1446.61 849.463,1446.5 
  853.187,1446.39 856.925,1446.27 860.678,1446.15 864.445,1446.02 868.226,1445.88 872.021,1445.75 875.831,1445.6 879.655,1445.45 883.493,1445.3 887.346,1445.14 
  891.213,1444.98 895.094,1444.81 898.99,1444.64 902.9,1444.46 906.825,1444.28 910.765,1444.09 914.719,1443.9 918.687,1443.7 922.67,1443.5 926.667,1443.29 
  930.679,1443.08 934.706,1442.86 938.747,1442.63 942.803,1442.41 946.874,1442.17 950.959,1441.93 955.059,1441.69 959.173,1441.44 963.302,1441.18 967.446,1440.92 
  971.605,1440.65 975.779,1440.38 979.967,1440.1 984.17,1439.82 988.388,1439.53 992.62,1439.24 996.867,1438.94 1001.13,1438.63 1005.4,1438.32 1009.68,1438 
  1013.98,1437.68 1018.28,1437.35 1022.6,1437.02 1026.94,1436.67 1031.28,1436.33 1035.64,1435.97 1040.01,1435.61 1044.4,1435.25 1048.8,1434.87 1053.21,1434.5 
  1057.63,1434.11 1062.07,1433.72 1066.52,1433.32 1070.98,1432.92 1075.46,1432.51 1079.95,1432.09 1084.46,1431.67 1088.97,1431.24 1093.5,1430.8 1098.05,1430.36 
  1102.61,1429.91 1107.18,1429.45 1111.76,1428.99 1116.36,1428.52 1120.97,1428.04 1125.6,1427.56 1130.24,1427.07 1134.89,1426.57 1139.56,1426.07 1144.23,1425.56 
  1148.93,1425.04 1153.63,1424.51 1158.35,1423.98 1163.09,1423.44 1167.83,1422.9 1172.6,1422.34 1177.37,1421.78 1182.16,1421.21 1186.96,1420.64 1191.77,1420.05 
  1196.6,1419.46 1201.44,1418.87 1206.29,1418.26 1211.15,1417.65 1216.03,1417.03 1220.92,1416.4 1225.83,1415.76 1230.75,1415.12 1235.67,1414.47 1240.62,1413.81 
  1245.57,1413.14 1250.54,1412.46 1255.52,1411.78 1260.51,1411.09 1265.51,1410.39 1270.53,1409.68 1275.56,1408.96 1280.59,1408.24 1285.65,1407.5 1290.71,1406.76 
  1295.78,1406.01 1300.87,1405.25 1305.96,1404.48 1311.07,1403.71 1316.19,1402.92 1321.32,1402.13 1326.46,1401.33 1331.61,1400.51 1336.77,1399.69 1341.94,1398.86 
  1347.12,1398.03 1352.31,1397.18 1357.51,1396.32 1362.72,1395.46 1367.93,1394.58 1373.16,1393.69 1378.4,1392.8 1383.64,1391.9 1388.9,1390.98 1394.16,1390.06 
  1399.43,1389.13 1404.71,1388.18 1410,1387.23 1415.29,1386.27 1420.59,1385.3 1425.9,1384.31 1431.22,1383.32 1436.54,1382.32 1441.87,1381.3 1447.21,1380.28 
  1452.55,1379.25 1457.89,1378.2 1463.25,1377.15 1468.61,1376.08 1473.97,1375 1479.34,1373.92 1484.71,1372.82 1490.09,1371.71 1495.47,1370.59 1500.86,1369.46 
  1506.25,1368.31 1511.64,1367.16 1517.04,1365.99 1522.43,1364.82 1527.84,1363.63 1533.24,1362.43 1538.65,1361.22 1544.05,1360 1549.46,1358.76 1554.87,1357.51 
  1560.28,1356.25 1565.69,1354.98 1571.1,1353.7 1576.51,1352.41 1581.93,1351.1 1587.34,1349.78 1592.74,1348.45 1598.15,1347.1 1603.56,1345.74 1608.96,1344.37 
  1614.36,1342.99 1619.76,1341.59 1625.16,1340.18 1630.55,1338.76 1635.94,1337.33 1641.32,1335.88 1646.7,1334.42 1652.08,1332.94 1657.45,1331.45 1662.81,1329.95 
  1668.17,1328.43 1673.52,1326.9 1678.87,1325.36 1684.21,1323.8 1689.54,1322.23 1694.86,1320.64 1700.17,1319.04 1705.48,1317.43 1710.78,1315.8 1716.07,1314.15 
  1721.34,1312.49 1726.61,1310.82 1731.87,1309.13 1737.12,1307.43 1742.35,1305.71 1747.57,1303.98 1752.78,1302.23 1757.98,1300.46 1763.17,1298.68 1768.34,1296.89 
  1773.5,1295.08 1778.64,1293.25 1783.77,1291.41 1788.88,1289.55 1793.97,1287.68 1799.05,1285.79 1804.12,1283.88 1809.16,1281.95 1814.19,1280.01 1819.2,1278.06 
  1824.19,1276.09 1829.17,1274.09 1834.12,1272.09 1839.05,1270.06 1843.96,1268.02 1848.85,1265.96 1853.72,1263.89 1858.57,1261.79 1863.4,1259.68 1868.2,1257.56 
  1872.97,1255.41 1877.73,1253.24 1882.46,1251.06 1887.16,1248.86 1891.84,1246.64 1896.49,1244.41 1901.12,1242.15 1905.72,1239.88 1910.29,1237.58 1914.83,1235.27 
  1919.34,1232.94 1923.82,1230.59 1928.28,1228.22 1932.7,1225.83 1937.09,1223.42 1941.45,1221 1945.78,1218.55 1950.08,1216.08 1954.34,1213.59 1958.56,1211.09 
  1962.76,1208.56 1966.91,1206.01 1971.04,1203.45 1975.12,1200.86 1979.17,1198.25 1983.18,1195.62 1987.15,1192.97 1991.09,1190.3 1994.98,1187.6 1998.84,1184.89 
  2002.65,1182.15 2006.43,1179.4 2010.16,1176.62 2013.85,1173.82 2017.49,1170.99 2021.09,1168.15 2024.65,1165.28 2028.16,1162.39 2031.63,1159.48 2035.05,1156.55 
  2038.42,1153.59 2041.75,1150.61 2045.03,1147.61 2048.27,1144.59 2051.45,1141.54 2054.59,1138.47 2057.67,1135.38 2060.71,1132.27 2063.69,1129.13 2066.62,1125.97 
  2069.5,1122.79 2072.33,1119.59 2075.1,1116.36 2077.81,1113.11 2080.47,1109.84 2083.07,1106.54 2085.61,1103.23 2088.1,1099.89 2090.52,1096.52 2092.89,1093.14 
  2095.19,1089.73 2097.44,1086.29 2099.62,1082.84 2101.74,1079.36 2103.8,1075.86 2105.79,1072.34 2107.72,1068.79 2109.58,1065.22 2111.38,1061.63 2113.11,1058.02 
  2114.77,1054.38 2116.37,1050.72 2117.9,1047.04 2119.36,1043.34 2120.75,1039.61 2122.07,1035.86 2123.32,1032.09 2124.5,1028.3 2125.61,1024.48 2126.65,1020.65 
  2127.62,1016.79 2128.51,1012.91 2129.33,1009.01 2130.08,1005.08 2130.75,1001.14 2131.35,997.17 2131.88,993.182 2132.33,989.173 2132.7,985.143 2133,981.092 
  2133.23,977.02 2133.37,972.927 2133.44,968.814 2133.43,964.681 2133.35,960.528 2133.19,956.354 2132.95,952.161 2132.63,947.947 2132.23,943.715 2131.76,939.462 
  2131.2,935.191 2130.57,930.901 2129.86,926.591 2129.06,922.264 2128.19,917.917 2127.24,913.553 2126.2,909.17 2125.09,904.769 2123.9,900.351 2122.62,895.915 
  2121.27,891.462 2119.83,886.992 2118.31,882.506 2116.71,878.002 2115.04,873.483 2113.27,868.947 2111.43,864.396 2109.51,859.829 2107.5,855.246 2105.42,850.649 
  2103.25,846.037 2101,841.41 2098.67,836.769 2096.25,832.114 2093.76,827.445 2091.18,822.763 2088.53,818.067 2085.79,813.359 2082.97,808.638 2080.07,803.905 
  2077.09,799.16 2074.02,794.403 2070.88,789.635 2067.66,784.856 2064.35,780.067 2060.96,775.266 2057.5,770.456 2053.95,765.636 2050.33,760.807 2046.62,755.969 
  2042.83,751.122 2038.97,746.267 2035.03,741.404 2031,736.533 2026.9,731.655 2022.72,726.77 2018.46,721.879 2014.13,716.981 2009.72,712.078 2005.23,707.169 
  2000.66,702.256 1996.01,697.338 1991.29,692.415 1986.5,687.489 1981.63,682.56 1976.68,677.628 1971.66,672.693 1966.56,667.756 1961.39,662.817 1956.15,657.877 
  1950.83,652.937 1945.44,647.996 1939.98,643.055 1934.45,638.114 1928.84,633.175 1923.16,628.236 1917.41,623.299 1911.59,618.364 1905.7,613.433 1899.75,608.505 
  1893.72,603.581 1887.63,598.662 1881.48,593.748 1875.26,588.841 1868.98,583.941 1862.64,579.048 1856.23,574.163 1849.77,569.287 1843.25,564.42 1836.68,559.564 
  1830.05,554.717 1823.36,549.882 1816.62,545.059 1809.83,540.247 1802.99,535.449 1796.1,530.664 1789.16,525.893 1782.17,521.137 1775.13,516.396 1768.05,511.67 
  1760.93,506.961 1753.76,502.268 1746.55,497.593 1739.29,492.936 1732,488.297 1724.67,483.676 1717.3,479.075 1709.89,474.494 1702.45,469.933 1694.97,465.393 
  1687.46,460.874 1679.91,456.378 1672.33,451.903 1664.72,447.451 1657.08,443.022 1649.42,438.617 1641.72,434.236 1634,429.88 1626.25,425.548 1618.48,421.242 
  1610.68,416.962 1602.86,412.708 1595.02,408.481 1587.15,404.281 1579.27,400.108 1571.37,395.963 1563.45,391.847 1555.51,387.759 1547.56,383.7 1539.59,379.671 
  1531.6,375.671 1523.6,371.701 1515.59,367.762 1507.57,363.854 1499.54,359.977 1491.5,356.132 1483.45,352.318 1475.39,348.537 1467.32,344.788 1459.25,341.072 
  1451.17,337.389 1443.09,333.74 1435,330.124 1426.91,326.543 1418.82,322.995 1410.73,319.483 1402.64,316.005 1394.55,312.562 1386.46,309.155 1378.37,305.784 
  1370.29,302.448 1362.21,299.149 1354.13,295.886 1346.06,292.659 1338,289.47 1329.95,286.318 1321.9,283.203 1313.86,280.125 1305.83,277.086 1297.82,274.084 
  1289.81,271.12 1281.82,268.195 1273.84,265.308 1265.87,262.46 1257.92,259.651 1249.98,256.881 1242.06,254.15 1234.15,251.458 1226.27,248.806 1218.4,246.194 
  1210.55,243.621 1202.72,241.088 1194.91,238.595 1187.12,236.142 1179.35,233.73 1171.61,231.358 1163.89,229.026 1156.19,226.735 1148.52,224.485 1140.88,222.275 
  1133.26,220.107 1125.67,217.979 1118.1,215.892 1110.56,213.846 1103.06,211.841 1095.58,209.877 1088.13,207.955 1080.71,206.073 1073.33,204.233 1065.98,202.434 
  1058.66,200.677 1051.37,198.961 1044.12,197.286 1036.9,195.652 1029.72,194.06 1022.57,192.508 1015.46,190.997 1008.38,189.527 1001.33,188.096 994.316,186.706 
  987.337,185.355 980.393,184.044 973.483,182.773 966.609,181.541 959.769,180.348 952.965,179.195 946.197,178.081 939.465,177.006 932.768,175.969 926.108,174.972 
  919.484,174.012 912.897,173.092 906.346,172.209 899.833,171.365 893.357,170.558 886.917,169.789 880.515,169.058 874.151,168.364 867.824,167.707 861.536,167.088 
  855.284,166.505 849.071,165.959 842.896,165.45 836.759,164.977 830.661,164.54 824.6,164.139 818.578,163.774 812.594,163.445 806.649,163.15 800.743,162.891 
  794.874,162.668 789.045,162.478 783.254,162.324 777.501,162.204 771.788,162.117 766.112,162.065 760.476,162.047 754.878,162.062 749.318,162.11 743.797,162.192 
  738.315,162.306 732.871,162.453 727.465,162.632 722.098,162.843 716.769,163.086 711.478,163.361 706.225,163.667 701.01,164.004 695.833,164.372 690.694,164.77 
  685.592,165.199 680.528,165.658 675.501,166.147 670.512,166.666 665.559,167.213 660.644,167.79 655.765,168.396 650.924,169.03 646.118,169.692 641.349,170.382 
  
  "/>
<path clip-path="url(#clip430)" d="
M1873.74 272.585 L2278.07 272.585 L2278.07 168.905 L1873.74 168.905  Z
  " fill="#ffffff" fill-rule="evenodd" fill-opacity="1"/>
<polyline clip-path="url(#clip430)" style="stroke:#000000; stroke-linecap:butt; stroke-linejoin:round; stroke-width:4; stroke-opacity:1; fill:none" points="
  1873.74,272.585 2278.07,272.585 2278.07,168.905 1873.74,168.905 1873.74,272.585 
  "/>
<polyline clip-path="url(#clip430)" style="stroke:#009af9; stroke-linecap:butt; stroke-linejoin:round; stroke-width:4; stroke-opacity:1; fill:none" points="
  1897.74,220.745 2041.74,220.745 
  "/>
<path clip-path="url(#clip430)" d="M2076.37 202.053 Q2073.27 207.377 2071.76 212.585 Q2070.26 217.793 2070.26 223.14 Q2070.26 228.488 2071.76 233.742 Q2073.29 238.974 2076.37 244.275 L2072.66 244.275 Q2069.19 238.835 2067.46 233.58 Q2065.74 228.326 2065.74 223.14 Q2065.74 217.978 2067.46 212.747 Q2069.17 207.516 2072.66 202.053 L2076.37 202.053 Z" fill="#000000" fill-rule="evenodd" fill-opacity="1" /><path clip-path="url(#clip430)" d="M2084.19 227.793 L2084.19 212.099 L2088.45 212.099 L2088.45 227.631 Q2088.45 231.312 2089.89 233.164 Q2091.32 234.992 2094.19 234.992 Q2097.64 234.992 2099.63 232.793 Q2101.64 230.594 2101.64 226.798 L2101.64 212.099 L2105.9 212.099 L2105.9 238.025 L2101.64 238.025 L2101.64 234.043 Q2100.09 236.404 2098.03 237.562 Q2096 238.696 2093.29 238.696 Q2088.82 238.696 2086.51 235.918 Q2084.19 233.14 2084.19 227.793 M2094.91 211.474 L2094.91 211.474 Z" fill="#000000" fill-rule="evenodd" fill-opacity="1" /><path clip-path="url(#clip430)" d="M2116.09 234.089 L2123.73 234.089 L2123.73 207.724 L2115.42 209.391 L2115.42 205.131 L2123.68 203.465 L2128.36 203.465 L2128.36 234.089 L2136 234.089 L2136 238.025 L2116.09 238.025 L2116.09 234.089 Z" fill="#000000" fill-rule="evenodd" fill-opacity="1" /><path clip-path="url(#clip430)" d="M2145.93 232.145 L2150.81 232.145 L2150.81 236.127 L2147.01 243.534 L2144.03 243.534 L2145.93 236.127 L2145.93 232.145 Z" fill="#000000" fill-rule="evenodd" fill-opacity="1" /><path clip-path="url(#clip430)" d="M2159.47 227.793 L2159.47 212.099 L2163.73 212.099 L2163.73 227.631 Q2163.73 231.312 2165.16 233.164 Q2166.6 234.992 2169.47 234.992 Q2172.92 234.992 2174.91 232.793 Q2176.92 230.594 2176.92 226.798 L2176.92 212.099 L2181.18 212.099 L2181.18 238.025 L2176.92 238.025 L2176.92 234.043 Q2175.37 236.404 2173.31 237.562 Q2171.27 238.696 2168.57 238.696 Q2164.1 238.696 2161.78 235.918 Q2159.47 233.14 2159.47 227.793 M2170.19 211.474 L2170.19 211.474 Z" fill="#000000" fill-rule="evenodd" fill-opacity="1" /><path clip-path="url(#clip430)" d="M2194.58 234.089 L2210.9 234.089 L2210.9 238.025 L2188.96 238.025 L2188.96 234.089 Q2191.62 231.335 2196.2 226.705 Q2200.81 222.053 2201.99 220.71 Q2204.24 218.187 2205.12 216.451 Q2206.02 214.691 2206.02 213.002 Q2206.02 210.247 2204.07 208.511 Q2202.15 206.775 2199.05 206.775 Q2196.85 206.775 2194.4 207.539 Q2191.97 208.303 2189.19 209.854 L2189.19 205.131 Q2192.01 203.997 2194.47 203.418 Q2196.92 202.84 2198.96 202.84 Q2204.33 202.84 2207.52 205.525 Q2210.72 208.21 2210.72 212.701 Q2210.72 214.83 2209.91 216.752 Q2209.12 218.65 2207.01 221.242 Q2206.44 221.914 2203.33 225.131 Q2200.23 228.326 2194.58 234.089 Z" fill="#000000" fill-rule="evenodd" fill-opacity="1" /><path clip-path="url(#clip430)" d="M2219.45 202.053 L2223.15 202.053 Q2226.62 207.516 2228.33 212.747 Q2230.07 217.978 2230.07 223.14 Q2230.07 228.326 2228.33 233.58 Q2226.62 238.835 2223.15 244.275 L2219.45 244.275 Q2222.52 238.974 2224.03 233.742 Q2225.56 228.488 2225.56 223.14 Q2225.56 217.793 2224.03 212.585 Q2222.52 207.377 2219.45 202.053 Z" fill="#000000" fill-rule="evenodd" fill-opacity="1" /></svg>
