<?xml version="1.0" encoding="utf-8"?>
<svg xmlns="http://www.w3.org/2000/svg" xmlns:xlink="http://www.w3.org/1999/xlink" width="600" height="400" viewBox="0 0 2400 1600">
<defs>
  <clipPath id="clip980">
    <rect x="0" y="0" width="2400" height="1600"/>
  </clipPath>
</defs>
<path clip-path="url(#clip980)" d="
M0 1600 L2400 1600 L2400 0 L0 0  Z
  " fill="#ffffff" fill-rule="evenodd" fill-opacity="1"/>
<defs>
  <clipPath id="clip981">
    <rect x="480" y="0" width="1681" height="1600"/>
  </clipPath>
</defs>
<path clip-path="url(#clip980)" d="
M112.177 1486.45 L2352.76 1486.45 L2352.76 123.472 L112.177 123.472  Z
  " fill="#ffffff" fill-rule="evenodd" fill-opacity="1"/>
<defs>
  <clipPath id="clip982">
    <rect x="112" y="123" width="2242" height="1364"/>
  </clipPath>
</defs>
<polyline clip-path="url(#clip982)" style="stroke:#000000; stroke-linecap:butt; stroke-linejoin:round; stroke-width:2; stroke-opacity:0.1; fill:none" points="
  486.97,1486.45 486.97,123.472 
  "/>
<polyline clip-path="url(#clip982)" style="stroke:#000000; stroke-linecap:butt; stroke-linejoin:round; stroke-width:2; stroke-opacity:0.1; fill:none" points="
  1033.77,1486.45 1033.77,123.472 
  "/>
<polyline clip-path="url(#clip982)" style="stroke:#000000; stroke-linecap:butt; stroke-linejoin:round; stroke-width:2; stroke-opacity:0.1; fill:none" points="
  1580.56,1486.45 1580.56,123.472 
  "/>
<polyline clip-path="url(#clip982)" style="stroke:#000000; stroke-linecap:butt; stroke-linejoin:round; stroke-width:2; stroke-opacity:0.1; fill:none" points="
  2127.36,1486.45 2127.36,123.472 
  "/>
<polyline clip-path="url(#clip980)" style="stroke:#000000; stroke-linecap:butt; stroke-linejoin:round; stroke-width:4; stroke-opacity:1; fill:none" points="
  112.177,1486.45 2352.76,1486.45 
  "/>
<polyline clip-path="url(#clip980)" style="stroke:#000000; stroke-linecap:butt; stroke-linejoin:round; stroke-width:4; stroke-opacity:1; fill:none" points="
  486.97,1486.45 486.97,1467.55 
  "/>
<polyline clip-path="url(#clip980)" style="stroke:#000000; stroke-linecap:butt; stroke-linejoin:round; stroke-width:4; stroke-opacity:1; fill:none" points="
  1033.77,1486.45 1033.77,1467.55 
  "/>
<polyline clip-path="url(#clip980)" style="stroke:#000000; stroke-linecap:butt; stroke-linejoin:round; stroke-width:4; stroke-opacity:1; fill:none" points="
  1580.56,1486.45 1580.56,1467.55 
  "/>
<polyline clip-path="url(#clip980)" style="stroke:#000000; stroke-linecap:butt; stroke-linejoin:round; stroke-width:4; stroke-opacity:1; fill:none" points="
  2127.36,1486.45 2127.36,1467.55 
  "/>
<path clip-path="url(#clip980)" d="M464.852 1517.37 Q461.241 1517.37 459.413 1520.93 Q457.607 1524.47 457.607 1531.6 Q457.607 1538.71 459.413 1542.27 Q461.241 1545.82 464.852 1545.82 Q468.487 1545.82 470.292 1542.27 Q472.121 1538.71 472.121 1531.6 Q472.121 1524.47 470.292 1520.93 Q468.487 1517.37 464.852 1517.37 M464.852 1513.66 Q470.663 1513.66 473.718 1518.27 Q476.797 1522.85 476.797 1531.6 Q476.797 1540.33 473.718 1544.94 Q470.663 1549.52 464.852 1549.52 Q459.042 1549.52 455.964 1544.94 Q452.908 1540.33 452.908 1531.6 Q452.908 1522.85 455.964 1518.27 Q459.042 1513.66 464.852 1513.66 Z" fill="#000000" fill-rule="evenodd" fill-opacity="1" /><path clip-path="url(#clip980)" d="M485.014 1542.97 L489.899 1542.97 L489.899 1548.85 L485.014 1548.85 L485.014 1542.97 Z" fill="#000000" fill-rule="evenodd" fill-opacity="1" /><path clip-path="url(#clip980)" d="M500.13 1514.29 L518.486 1514.29 L518.486 1518.22 L504.412 1518.22 L504.412 1526.7 Q505.431 1526.35 506.449 1526.19 Q507.468 1526 508.486 1526 Q514.274 1526 517.653 1529.17 Q521.033 1532.34 521.033 1537.76 Q521.033 1543.34 517.561 1546.44 Q514.088 1549.52 507.769 1549.52 Q505.593 1549.52 503.324 1549.15 Q501.079 1548.78 498.672 1548.04 L498.672 1543.34 Q500.755 1544.47 502.977 1545.03 Q505.199 1545.58 507.676 1545.58 Q511.681 1545.58 514.019 1543.48 Q516.357 1541.37 516.357 1537.76 Q516.357 1534.15 514.019 1532.04 Q511.681 1529.94 507.676 1529.94 Q505.801 1529.94 503.926 1530.35 Q502.074 1530.77 500.13 1531.65 L500.13 1514.29 Z" fill="#000000" fill-rule="evenodd" fill-opacity="1" /><path clip-path="url(#clip980)" d="M1000.92 1544.91 L1008.56 1544.91 L1008.56 1518.55 L1000.25 1520.21 L1000.25 1515.95 L1008.51 1514.29 L1013.19 1514.29 L1013.19 1544.91 L1020.83 1544.91 L1020.83 1548.85 L1000.92 1548.85 L1000.92 1544.91 Z" fill="#000000" fill-rule="evenodd" fill-opacity="1" /><path clip-path="url(#clip980)" d="M1030.27 1542.97 L1035.16 1542.97 L1035.16 1548.85 L1030.27 1548.85 L1030.27 1542.97 Z" fill="#000000" fill-rule="evenodd" fill-opacity="1" /><path clip-path="url(#clip980)" d="M1055.34 1517.37 Q1051.73 1517.37 1049.9 1520.93 Q1048.1 1524.47 1048.1 1531.6 Q1048.1 1538.71 1049.9 1542.27 Q1051.73 1545.82 1055.34 1545.82 Q1058.98 1545.82 1060.78 1542.27 Q1062.61 1538.71 1062.61 1531.6 Q1062.61 1524.47 1060.78 1520.93 Q1058.98 1517.37 1055.34 1517.37 M1055.34 1513.66 Q1061.15 1513.66 1064.21 1518.27 Q1067.29 1522.85 1067.29 1531.6 Q1067.29 1540.33 1064.21 1544.94 Q1061.15 1549.52 1055.34 1549.52 Q1049.53 1549.52 1046.45 1544.94 Q1043.4 1540.33 1043.4 1531.6 Q1043.4 1522.85 1046.45 1518.27 Q1049.53 1513.66 1055.34 1513.66 Z" fill="#000000" fill-rule="evenodd" fill-opacity="1" /><path clip-path="url(#clip980)" d="M1548.21 1544.91 L1555.85 1544.91 L1555.85 1518.55 L1547.54 1520.21 L1547.54 1515.95 L1555.81 1514.29 L1560.48 1514.29 L1560.48 1544.91 L1568.12 1544.91 L1568.12 1548.85 L1548.21 1548.85 L1548.21 1544.91 Z" fill="#000000" fill-rule="evenodd" fill-opacity="1" /><path clip-path="url(#clip980)" d="M1577.57 1542.97 L1582.45 1542.97 L1582.45 1548.85 L1577.57 1548.85 L1577.57 1542.97 Z" fill="#000000" fill-rule="evenodd" fill-opacity="1" /><path clip-path="url(#clip980)" d="M1592.68 1514.29 L1611.04 1514.29 L1611.04 1518.22 L1596.96 1518.22 L1596.96 1526.7 Q1597.98 1526.35 1599 1526.19 Q1600.02 1526 1601.04 1526 Q1606.82 1526 1610.2 1529.17 Q1613.58 1532.34 1613.58 1537.76 Q1613.58 1543.34 1610.11 1546.44 Q1606.64 1549.52 1600.32 1549.52 Q1598.14 1549.52 1595.88 1549.15 Q1593.63 1548.78 1591.22 1548.04 L1591.22 1543.34 Q1593.31 1544.47 1595.53 1545.03 Q1597.75 1545.58 1600.23 1545.58 Q1604.23 1545.58 1606.57 1543.48 Q1608.91 1541.37 1608.91 1537.76 Q1608.91 1534.15 1606.57 1532.04 Q1604.23 1529.94 1600.23 1529.94 Q1598.35 1529.94 1596.48 1530.35 Q1594.63 1530.77 1592.68 1531.65 L1592.68 1514.29 Z" fill="#000000" fill-rule="evenodd" fill-opacity="1" /><path clip-path="url(#clip980)" d="M2098.6 1544.91 L2114.92 1544.91 L2114.92 1548.85 L2092.97 1548.85 L2092.97 1544.91 Q2095.64 1542.16 2100.22 1537.53 Q2104.83 1532.88 2106.01 1531.53 Q2108.25 1529.01 2109.13 1527.27 Q2110.03 1525.51 2110.03 1523.82 Q2110.03 1521.07 2108.09 1519.33 Q2106.17 1517.6 2103.07 1517.6 Q2100.87 1517.6 2098.41 1518.36 Q2095.98 1519.13 2093.21 1520.68 L2093.21 1515.95 Q2096.03 1514.82 2098.48 1514.24 Q2100.94 1513.66 2102.97 1513.66 Q2108.34 1513.66 2111.54 1516.35 Q2114.73 1519.03 2114.73 1523.52 Q2114.73 1525.65 2113.92 1527.57 Q2113.14 1529.47 2111.03 1532.07 Q2110.45 1532.74 2107.35 1535.95 Q2104.25 1539.15 2098.6 1544.91 Z" fill="#000000" fill-rule="evenodd" fill-opacity="1" /><path clip-path="url(#clip980)" d="M2124.73 1542.97 L2129.62 1542.97 L2129.62 1548.85 L2124.73 1548.85 L2124.73 1542.97 Z" fill="#000000" fill-rule="evenodd" fill-opacity="1" /><path clip-path="url(#clip980)" d="M2149.8 1517.37 Q2146.19 1517.37 2144.36 1520.93 Q2142.56 1524.47 2142.56 1531.6 Q2142.56 1538.71 2144.36 1542.27 Q2146.19 1545.82 2149.8 1545.82 Q2153.44 1545.82 2155.24 1542.27 Q2157.07 1538.71 2157.07 1531.6 Q2157.07 1524.47 2155.24 1520.93 Q2153.44 1517.37 2149.8 1517.37 M2149.8 1513.66 Q2155.61 1513.66 2158.67 1518.27 Q2161.75 1522.85 2161.75 1531.6 Q2161.75 1540.33 2158.67 1544.94 Q2155.61 1549.52 2149.8 1549.52 Q2143.99 1549.52 2140.91 1544.94 Q2137.86 1540.33 2137.86 1531.6 Q2137.86 1522.85 2140.91 1518.27 Q2143.99 1513.66 2149.8 1513.66 Z" fill="#000000" fill-rule="evenodd" fill-opacity="1" /><polyline clip-path="url(#clip982)" style="stroke:#000000; stroke-linecap:butt; stroke-linejoin:round; stroke-width:2; stroke-opacity:0.1; fill:none" points="
  112.177,1435.99 2352.76,1435.99 
  "/>
<polyline clip-path="url(#clip982)" style="stroke:#000000; stroke-linecap:butt; stroke-linejoin:round; stroke-width:2; stroke-opacity:0.1; fill:none" points="
  112.177,1083.6 2352.76,1083.6 
  "/>
<polyline clip-path="url(#clip982)" style="stroke:#000000; stroke-linecap:butt; stroke-linejoin:round; stroke-width:2; stroke-opacity:0.1; fill:none" points="
  112.177,731.21 2352.76,731.21 
  "/>
<polyline clip-path="url(#clip982)" style="stroke:#000000; stroke-linecap:butt; stroke-linejoin:round; stroke-width:2; stroke-opacity:0.1; fill:none" points="
  112.177,378.823 2352.76,378.823 
  "/>
<polyline clip-path="url(#clip980)" style="stroke:#000000; stroke-linecap:butt; stroke-linejoin:round; stroke-width:4; stroke-opacity:1; fill:none" points="
  112.177,1486.45 112.177,123.472 
  "/>
<polyline clip-path="url(#clip980)" style="stroke:#000000; stroke-linecap:butt; stroke-linejoin:round; stroke-width:4; stroke-opacity:1; fill:none" points="
  112.177,1435.99 131.075,1435.99 
  "/>
<polyline clip-path="url(#clip980)" style="stroke:#000000; stroke-linecap:butt; stroke-linejoin:round; stroke-width:4; stroke-opacity:1; fill:none" points="
  112.177,1083.6 131.075,1083.6 
  "/>
<polyline clip-path="url(#clip980)" style="stroke:#000000; stroke-linecap:butt; stroke-linejoin:round; stroke-width:4; stroke-opacity:1; fill:none" points="
  112.177,731.21 131.075,731.21 
  "/>
<polyline clip-path="url(#clip980)" style="stroke:#000000; stroke-linecap:butt; stroke-linejoin:round; stroke-width:4; stroke-opacity:1; fill:none" points="
  112.177,378.823 131.075,378.823 
  "/>
<path clip-path="url(#clip980)" d="M56.2699 1449.33 L63.9087 1449.33 L63.9087 1422.96 L55.5986 1424.63 L55.5986 1420.37 L63.8624 1418.71 L68.5383 1418.71 L68.5383 1449.33 L76.1772 1449.33 L76.1772 1453.27 L56.2699 1453.27 L56.2699 1449.33 Z" fill="#000000" fill-rule="evenodd" fill-opacity="1" /><path clip-path="url(#clip980)" d="M59.8578 1096.94 L76.1772 1096.94 L76.1772 1100.88 L54.2328 1100.88 L54.2328 1096.94 Q56.8949 1094.19 61.4782 1089.56 Q66.0846 1084.91 67.2652 1083.56 Q69.5105 1081.04 70.3902 1079.3 Q71.2929 1077.54 71.2929 1075.85 Q71.2929 1073.1 69.3485 1071.36 Q67.4272 1069.63 64.3254 1069.63 Q62.1263 1069.63 59.6726 1070.39 Q57.2421 1071.16 54.4643 1072.71 L54.4643 1067.98 Q57.2884 1066.85 59.7421 1066.27 Q62.1958 1065.69 64.2328 1065.69 Q69.6031 1065.69 72.7976 1068.38 Q75.992 1071.06 75.992 1075.55 Q75.992 1077.68 75.1818 1079.6 Q74.3948 1081.5 72.2883 1084.1 Q71.7096 1084.77 68.6078 1087.98 Q65.5059 1091.18 59.8578 1096.94 Z" fill="#000000" fill-rule="evenodd" fill-opacity="1" /><path clip-path="url(#clip980)" d="M69.0476 729.856 Q72.404 730.574 74.279 732.842 Q76.1772 735.111 76.1772 738.444 Q76.1772 743.56 72.6587 746.361 Q69.1402 749.162 62.6587 749.162 Q60.4828 749.162 58.168 748.722 Q55.8764 748.305 53.4227 747.449 L53.4227 742.935 Q55.3671 744.069 57.6819 744.648 Q59.9967 745.227 62.5198 745.227 Q66.918 745.227 69.2096 743.49 Q71.5244 741.754 71.5244 738.444 Q71.5244 735.389 69.3717 733.676 Q67.242 731.94 63.4226 731.94 L59.3949 731.94 L59.3949 728.097 L63.6078 728.097 Q67.0569 728.097 68.8855 726.731 Q70.7142 725.342 70.7142 722.75 Q70.7142 720.088 68.8161 718.676 Q66.9411 717.241 63.4226 717.241 Q61.5013 717.241 59.3023 717.657 Q57.1032 718.074 54.4643 718.954 L54.4643 714.787 Q57.1264 714.046 59.4412 713.676 Q61.7791 713.305 63.8393 713.305 Q69.1633 713.305 72.2652 715.736 Q75.367 718.143 75.367 722.264 Q75.367 725.134 73.7235 727.125 Q72.08 729.092 69.0476 729.856 Z" fill="#000000" fill-rule="evenodd" fill-opacity="1" /><path clip-path="url(#clip980)" d="M66.5939 365.617 L54.7884 384.066 L66.5939 384.066 L66.5939 365.617 M65.367 361.543 L71.2466 361.543 L71.2466 384.066 L76.1772 384.066 L76.1772 387.955 L71.2466 387.955 L71.2466 396.103 L66.5939 396.103 L66.5939 387.955 L50.9921 387.955 L50.9921 383.441 L65.367 361.543 Z" fill="#000000" fill-rule="evenodd" fill-opacity="1" /><path clip-path="url(#clip980)" d="M951.739 12.096 L959.922 12.096 L959.922 65.6895 L989.372 65.6895 L989.372 72.576 L951.739 72.576 L951.739 12.096 Z" fill="#000000" fill-rule="evenodd" fill-opacity="1" /><path clip-path="url(#clip980)" d="M1013.76 32.4315 Q1007.76 32.4315 1004.28 37.1306 Q1000.8 41.7891 1000.8 49.9314 Q1000.8 58.0738 1004.24 62.7728 Q1007.72 67.4314 1013.76 67.4314 Q1019.71 67.4314 1023.2 62.7323 Q1026.68 58.0333 1026.68 49.9314 Q1026.68 41.8701 1023.2 37.1711 Q1019.71 32.4315 1013.76 32.4315 M1013.76 26.1121 Q1023.48 26.1121 1029.03 32.4315 Q1034.58 38.7509 1034.58 49.9314 Q1034.58 61.0714 1029.03 67.4314 Q1023.48 73.7508 1013.76 73.7508 Q1004 73.7508 998.446 67.4314 Q992.937 61.0714 992.937 49.9314 Q992.937 38.7509 998.446 32.4315 Q1004 26.1121 1013.76 26.1121 Z" fill="#000000" fill-rule="evenodd" fill-opacity="1" /><path clip-path="url(#clip980)" d="M1054.31 14.324 L1054.31 27.2059 L1069.66 27.2059 L1069.66 32.9987 L1054.31 32.9987 L1054.31 57.6282 Q1054.31 63.1779 1055.81 64.7578 Q1057.35 66.3376 1062 66.3376 L1069.66 66.3376 L1069.66 72.576 L1062 72.576 Q1053.38 72.576 1050.09 69.3758 Q1046.81 66.1351 1046.81 57.6282 L1046.81 32.9987 L1041.34 32.9987 L1041.34 27.2059 L1046.81 27.2059 L1046.81 14.324 L1054.31 14.324 Z" fill="#000000" fill-rule="evenodd" fill-opacity="1" /><path clip-path="url(#clip980)" d="M1079.18 9.54393 L1086.67 9.54393 L1086.67 46.7717 L1108.91 27.2059 L1118.43 27.2059 L1094.37 48.4326 L1119.45 72.576 L1109.72 72.576 L1086.67 50.4176 L1086.67 72.576 L1079.18 72.576 L1079.18 9.54393 Z" fill="#000000" fill-rule="evenodd" fill-opacity="1" /><path clip-path="url(#clip980)" d="M1146.67 49.7694 Q1137.63 49.7694 1134.15 51.8354 Q1130.67 53.9013 1130.67 58.8839 Q1130.67 62.8538 1133.26 65.2034 Q1135.89 67.5124 1140.39 67.5124 Q1146.59 67.5124 1150.31 63.1374 Q1154.08 58.7219 1154.08 51.4303 L1154.08 49.7694 L1146.67 49.7694 M1161.54 46.6907 L1161.54 72.576 L1154.08 72.576 L1154.08 65.6895 Q1151.53 69.8214 1147.72 71.8063 Q1143.91 73.7508 1138.4 73.7508 Q1131.44 73.7508 1127.31 69.8619 Q1123.21 65.9325 1123.21 59.3701 Q1123.21 51.7138 1128.32 47.825 Q1133.46 43.9361 1143.63 43.9361 L1154.08 43.9361 L1154.08 43.2069 Q1154.08 38.0623 1150.68 35.2672 Q1147.32 32.4315 1141.2 32.4315 Q1137.31 32.4315 1133.62 33.3632 Q1129.94 34.295 1126.54 36.1584 L1126.54 29.2718 Q1130.63 27.692 1134.48 26.9223 Q1138.32 26.1121 1141.97 26.1121 Q1151.81 26.1121 1156.67 31.2163 Q1161.54 36.3204 1161.54 46.6907 Z" fill="#000000" fill-rule="evenodd" fill-opacity="1" /><path clip-path="url(#clip980)" d="M1219.18 72.576 L1196.09 12.096 L1204.64 12.096 L1223.8 63.0159 L1243 12.096 L1251.51 12.096 L1228.46 72.576 L1219.18 72.576 Z" fill="#000000" fill-rule="evenodd" fill-opacity="1" /><path clip-path="url(#clip980)" d="M1271.15 32.4315 Q1265.16 32.4315 1261.67 37.1306 Q1258.19 41.7891 1258.19 49.9314 Q1258.19 58.0738 1261.63 62.7728 Q1265.12 67.4314 1271.15 67.4314 Q1277.11 67.4314 1280.59 62.7323 Q1284.08 58.0333 1284.08 49.9314 Q1284.08 41.8701 1280.59 37.1711 Q1277.11 32.4315 1271.15 32.4315 M1271.15 26.1121 Q1280.87 26.1121 1286.42 32.4315 Q1291.97 38.7509 1291.97 49.9314 Q1291.97 61.0714 1286.42 67.4314 Q1280.87 73.7508 1271.15 73.7508 Q1261.39 73.7508 1255.84 67.4314 Q1250.33 61.0714 1250.33 49.9314 Q1250.33 38.7509 1255.84 32.4315 Q1261.39 26.1121 1271.15 26.1121 Z" fill="#000000" fill-rule="evenodd" fill-opacity="1" /><path clip-path="url(#clip980)" d="M1304.33 9.54393 L1311.78 9.54393 L1311.78 72.576 L1304.33 72.576 L1304.33 9.54393 Z" fill="#000000" fill-rule="evenodd" fill-opacity="1" /><path clip-path="url(#clip980)" d="M1334.75 14.324 L1334.75 27.2059 L1350.1 27.2059 L1350.1 32.9987 L1334.75 32.9987 L1334.75 57.6282 Q1334.75 63.1779 1336.25 64.7578 Q1337.79 66.3376 1342.45 66.3376 L1350.1 66.3376 L1350.1 72.576 L1342.45 72.576 Q1333.82 72.576 1330.54 69.3758 Q1327.26 66.1351 1327.26 57.6282 L1327.26 32.9987 L1321.79 32.9987 L1321.79 27.2059 L1327.26 27.2059 L1327.26 14.324 L1334.75 14.324 Z" fill="#000000" fill-rule="evenodd" fill-opacity="1" /><path clip-path="url(#clip980)" d="M1398.72 48.0275 L1398.72 51.6733 L1364.45 51.6733 Q1364.93 59.3701 1369.06 63.421 Q1373.24 67.4314 1380.65 67.4314 Q1384.94 67.4314 1388.95 66.3781 Q1393 65.3249 1396.97 63.2184 L1396.97 70.267 Q1392.96 71.9684 1388.75 72.8596 Q1384.54 73.7508 1380.2 73.7508 Q1369.35 73.7508 1362.99 67.4314 Q1356.67 61.1119 1356.67 50.3365 Q1356.67 39.1965 1362.66 32.6746 Q1368.7 26.1121 1378.91 26.1121 Q1388.06 26.1121 1393.37 32.0264 Q1398.72 37.9003 1398.72 48.0275 M1391.26 45.84 Q1391.18 39.7232 1387.82 36.0774 Q1384.5 32.4315 1378.99 32.4315 Q1372.75 32.4315 1368.98 35.9558 Q1365.26 39.4801 1364.69 45.8805 L1391.26 45.84 Z" fill="#000000" fill-rule="evenodd" fill-opacity="1" /><path clip-path="url(#clip980)" d="M1437.24 34.1734 Q1435.98 33.4443 1434.49 33.1202 Q1433.03 32.7556 1431.24 32.7556 Q1424.93 32.7556 1421.52 36.8875 Q1418.16 40.9789 1418.16 48.6757 L1418.16 72.576 L1410.67 72.576 L1410.67 27.2059 L1418.16 27.2059 L1418.16 34.2544 Q1420.51 30.1225 1424.28 28.1376 Q1428.04 26.1121 1433.43 26.1121 Q1434.2 26.1121 1435.13 26.2337 Q1436.06 26.3147 1437.2 26.5172 L1437.24 34.1734 Z" fill="#000000" fill-rule="evenodd" fill-opacity="1" /><path clip-path="url(#clip980)" d="M1469.89 34.1734 Q1468.63 33.4443 1467.14 33.1202 Q1465.68 32.7556 1463.89 32.7556 Q1457.58 32.7556 1454.17 36.8875 Q1450.81 40.9789 1450.81 48.6757 L1450.81 72.576 L1443.32 72.576 L1443.32 27.2059 L1450.81 27.2059 L1450.81 34.2544 Q1453.16 30.1225 1456.93 28.1376 Q1460.69 26.1121 1466.08 26.1121 Q1466.85 26.1121 1467.78 26.2337 Q1468.72 26.3147 1469.85 26.5172 L1469.89 34.1734 Z" fill="#000000" fill-rule="evenodd" fill-opacity="1" /><path clip-path="url(#clip980)" d="M1498.33 49.7694 Q1489.29 49.7694 1485.81 51.8354 Q1482.33 53.9013 1482.33 58.8839 Q1482.33 62.8538 1484.92 65.2034 Q1487.55 67.5124 1492.05 67.5124 Q1498.25 67.5124 1501.97 63.1374 Q1505.74 58.7219 1505.74 51.4303 L1505.74 49.7694 L1498.33 49.7694 M1513.19 46.6907 L1513.19 72.576 L1505.74 72.576 L1505.74 65.6895 Q1503.19 69.8214 1499.38 71.8063 Q1495.57 73.7508 1490.06 73.7508 Q1483.1 73.7508 1478.96 69.8619 Q1474.87 65.9325 1474.87 59.3701 Q1474.87 51.7138 1479.98 47.825 Q1485.12 43.9361 1495.29 43.9361 L1505.74 43.9361 L1505.74 43.2069 Q1505.74 38.0623 1502.34 35.2672 Q1498.98 32.4315 1492.86 32.4315 Q1488.97 32.4315 1485.28 33.3632 Q1481.6 34.295 1478.19 36.1584 L1478.19 29.2718 Q1482.29 27.692 1486.13 26.9223 Q1489.98 26.1121 1493.63 26.1121 Q1503.47 26.1121 1508.33 31.2163 Q1513.19 36.3204 1513.19 46.6907 Z" fill="#000000" fill-rule="evenodd" fill-opacity="1" /><polyline clip-path="url(#clip982)" style="stroke:#009af9; stroke-linecap:butt; stroke-linejoin:round; stroke-width:4; stroke-opacity:1; fill:none" points="
  1038.15,1435.63 1042.54,1435.27 1046.95,1434.9 1051.38,1434.53 1055.82,1434.15 1060.27,1433.76 1064.73,1433.37 1069.21,1432.97 1073.71,1432.57 1078.22,1432.16 
  1082.74,1431.74 1087.27,1431.31 1091.82,1430.88 1096.39,1430.45 1100.97,1430 1105.56,1429.56 1110.16,1429.1 1114.78,1428.64 1119.41,1428.17 1124.06,1427.69 
  1128.71,1427.21 1133.39,1426.72 1138.07,1426.22 1142.77,1425.72 1147.48,1425.21 1152.21,1424.69 1156.94,1424.16 1161.7,1423.63 1166.46,1423.09 1171.24,1422.55 
  1176.03,1421.99 1180.83,1421.43 1185.64,1420.86 1190.47,1420.29 1195.31,1419.71 1200.17,1419.12 1205.03,1418.52 1209.91,1417.91 1214.8,1417.3 1219.7,1416.68 
  1224.61,1416.05 1229.54,1415.41 1234.48,1414.77 1239.43,1414.12 1244.39,1413.46 1249.36,1412.79 1254.34,1412.12 1259.34,1411.43 1264.35,1410.74 1269.36,1410.04 
  1274.39,1409.33 1279.43,1408.61 1284.48,1407.89 1289.54,1407.15 1294.61,1406.41 1299.7,1405.66 1304.79,1404.9 1309.89,1404.13 1315,1403.36 1320.12,1402.57 
  1325.26,1401.78 1330.4,1400.97 1335.55,1400.16 1340.71,1399.34 1345.88,1398.51 1351.06,1397.67 1356.25,1396.82 1361.44,1395.96 1366.65,1395.1 1371.86,1394.22 
  1377.08,1393.33 1382.31,1392.44 1387.55,1391.53 1392.8,1390.62 1398.05,1389.69 1403.31,1388.76 1408.58,1387.81 1413.85,1386.86 1419.13,1385.89 1424.42,1384.92 
  1429.72,1383.93 1435.02,1382.94 1440.33,1381.93 1445.64,1380.92 1450.96,1379.89 1456.28,1378.85 1461.61,1377.81 1466.95,1376.75 1472.29,1375.68 1477.63,1374.6 
  1482.98,1373.51 1488.33,1372.4 1493.69,1371.29 1499.05,1370.17 1504.42,1369.03 1509.78,1367.88 1515.15,1366.73 1520.52,1365.56 1525.9,1364.37 1531.28,1363.18 
  1536.66,1361.98 1542.04,1360.76 1547.42,1359.53 1552.8,1358.29 1558.19,1357.04 1563.57,1355.77 1568.96,1354.5 1574.34,1353.21 1579.73,1351.91 1585.11,1350.59 
  1590.49,1349.26 1595.88,1347.92 1601.26,1346.57 1606.63,1345.21 1612.01,1343.83 1617.39,1342.44 1622.76,1341.03 1628.13,1339.62 1633.49,1338.18 1638.85,1336.74 
  1644.21,1335.28 1649.56,1333.81 1654.91,1332.33 1660.26,1330.83 1665.59,1329.31 1670.92,1327.79 1676.25,1326.25 1681.57,1324.69 1686.88,1323.12 1692.19,1321.54 
  1697.48,1319.94 1702.77,1318.33 1708.05,1316.7 1713.33,1315.06 1718.59,1313.4 1723.84,1311.73 1729.08,1310.04 1734.32,1308.34 1739.54,1306.62 1744.75,1304.89 
  1749.94,1303.14 1755.13,1301.37 1760.3,1299.59 1765.46,1297.8 1770.61,1295.99 1775.74,1294.16 1780.86,1292.31 1785.97,1290.45 1791.05,1288.58 1796.13,1286.69 
  1801.18,1284.78 1806.22,1282.85 1811.25,1280.91 1816.25,1278.95 1821.24,1276.97 1826.21,1274.98 1831.15,1272.97 1836.08,1270.94 1840.99,1268.9 1845.88,1266.84 
  1850.75,1264.76 1855.6,1262.66 1860.42,1260.54 1865.22,1258.41 1870,1256.26 1874.75,1254.09 1879.48,1251.9 1884.19,1249.7 1888.87,1247.48 1893.53,1245.23 
  1898.15,1242.97 1902.75,1240.69 1907.33,1238.4 1911.87,1236.08 1916.39,1233.75 1920.88,1231.39 1925.34,1229.02 1929.76,1226.62 1934.16,1224.21 1938.53,1221.78 
  1942.86,1219.33 1947.16,1216.86 1951.43,1214.37 1955.66,1211.86 1959.86,1209.33 1964.02,1206.78 1968.15,1204.21 1972.25,1201.62 1976.31,1199.01 1980.33,1196.37 
  1984.31,1193.72 1988.26,1191.05 1992.16,1188.36 1996.03,1185.65 1999.85,1182.91 2003.64,1180.16 2007.38,1177.38 2011.08,1174.59 2014.74,1171.77 2018.35,1168.93 
  2021.92,1166.07 2025.45,1163.19 2028.92,1160.29 2032.36,1157.36 2035.74,1154.42 2039.08,1151.45 2042.36,1148.46 2045.6,1145.45 2048.79,1142.41 2051.93,1139.36 
  2055.02,1136.28 2058.06,1133.18 2061.04,1130.06 2063.97,1126.91 2066.85,1123.75 2069.67,1120.56 2072.44,1117.35 2075.15,1114.12 2077.81,1110.86 2080.41,1107.58 
  2082.96,1104.28 2085.44,1100.96 2087.87,1097.62 2090.24,1094.25 2092.55,1090.86 2094.8,1087.45 2096.99,1084.01 2099.12,1080.56 2101.18,1077.08 2103.19,1073.58 
  2105.13,1070.05 2107.01,1066.51 2108.82,1062.94 2110.57,1059.35 2112.25,1055.73 2113.87,1052.1 2115.43,1048.44 2116.91,1044.76 2118.33,1041.06 2119.68,1037.34 
  2120.97,1033.59 2122.18,1029.82 2123.33,1026.03 2124.4,1022.22 2125.41,1018.39 2126.34,1014.53 2127.21,1010.65 2128,1006.76 2128.72,1002.84 2129.37,998.894 
  2129.95,994.93 2130.45,990.946 2130.87,986.94 2131.23,982.913 2131.51,978.865 2131.71,974.797 2131.84,970.707 2131.89,966.596 2131.86,962.465 2131.76,958.314 
  2131.58,954.142 2131.32,949.949 2130.98,945.737 2130.57,941.504 2130.07,937.252 2129.5,932.979 2128.85,928.687 2128.11,924.376 2127.3,920.045 2126.4,915.694 
  2125.42,911.325 2124.36,906.937 2123.22,902.529 2122,898.104 2120.69,893.66 2119.3,889.198 2117.83,884.719 2116.28,880.222 2114.65,875.708 2112.93,871.177 
  2111.13,866.63 2109.25,862.066 2107.29,857.486 2105.24,852.89 2103.11,848.279 2100.9,843.653 2098.6,839.012 2096.22,834.357 2093.76,829.687 2091.22,825.003 
  2088.59,820.306 2085.88,815.596 2083.09,810.872 2080.21,806.136 2077.26,801.388 2074.22,796.628 2071.1,791.857 2067.9,787.074 2064.61,782.28 2061.25,777.476 
  2057.8,772.662 2054.27,767.838 2050.66,763.005 2046.97,758.163 2043.21,753.312 2039.36,748.453 2035.43,743.586 2031.42,738.712 2027.33,733.831 2023.17,728.943 
  2018.93,724.049 2014.61,719.149 2010.21,714.243 2005.73,709.333 2001.18,704.418 1996.55,699.499 1991.85,694.577 1987.07,689.651 1982.22,684.722 1977.3,679.791 
  1972.3,674.858 1967.22,669.924 1962.08,664.989 1956.86,660.053 1951.57,655.117 1946.22,650.181 1940.79,645.247 1935.29,640.313 1929.72,635.382 1924.09,630.453 
  1918.39,625.527 1912.62,620.604 1906.79,615.685 1900.89,610.77 1894.93,605.86 1888.9,600.956 1882.81,596.057 1876.66,591.165 1870.45,586.28 1864.18,581.402 
  1857.85,576.532 1851.46,571.671 1845.01,566.818 1838.51,561.976 1831.95,557.143 1825.33,552.322 1818.66,547.511 1811.94,542.713 1805.17,537.927 1798.34,533.153 
  1791.47,528.394 1784.54,523.649 1777.57,518.918 1770.55,514.202 1763.48,509.501 1756.36,504.815 1749.2,500.145 1741.99,495.492 1734.74,490.856 1727.45,486.237 
  1720.12,481.637 1712.74,477.056 1705.33,472.494 1697.88,467.952 1690.39,463.43 1682.87,458.929 1675.32,454.45 1667.73,449.993 1660.11,445.558 1652.46,441.147 
  1644.78,436.759 1637.07,432.394 1629.33,428.055 1621.57,423.74 1613.78,419.45 1605.97,415.187 1598.14,410.95 1590.28,406.739 1582.4,402.556 1574.51,398.4 
  1566.59,394.272 1558.66,390.173 1550.71,386.102 1542.75,382.061 1534.77,378.05 1526.77,374.068 1518.77,370.117 1510.75,366.196 1502.72,362.307 1494.68,358.449 
  1486.64,354.624 1478.58,350.83 1470.52,347.069 1462.46,343.341 1454.38,339.646 1446.31,335.984 1438.23,332.356 1430.15,328.763 1422.07,325.204 1413.98,321.679 
  1405.9,318.19 1397.82,314.736 1389.74,311.317 1381.66,307.934 1373.59,304.588 1365.52,301.277 1357.46,298.003 1349.41,294.766 1341.36,291.566 1333.32,288.404 
  1325.29,285.278 1317.27,282.191 1309.25,279.141 1301.25,276.129 1293.27,273.156 1285.29,270.22 1277.33,267.324 1269.38,264.466 1261.45,261.647 1253.53,258.868 
  1245.63,256.127 1237.74,253.426 1229.88,250.764 1222.03,248.142 1214.2,245.56 1206.39,243.017 1198.6,240.514 1190.83,238.052 1183.09,235.629 1175.36,233.247 
  1167.66,230.905 1159.99,228.603 1152.33,226.342 1144.7,224.121 1137.1,221.941 1129.53,219.801 1121.98,217.702 1114.45,215.644 1106.96,213.626 1099.49,211.649 
  1092.05,209.712 1084.65,207.816 1077.27,205.961 1069.92,204.146 1062.6,202.372 1055.32,200.638 1048.07,198.945 1040.85,197.293 1033.66,195.681 1026.5,194.111 
  1019.38,192.58 1012.29,191.091 1005.24,189.642 998.222,188.233 991.237,186.864 984.286,185.535 977.371,184.246 970.49,182.996 963.644,181.786 956.833,180.615 
  950.058,179.484 943.318,178.391 936.614,177.337 929.946,176.322 923.315,175.345 916.719,174.406 910.16,173.506 903.637,172.643 897.151,171.818 890.701,171.031 
  884.289,170.282 877.913,169.569 871.575,168.894 865.274,168.255 859.01,167.653 852.783,167.088 846.594,166.559 840.443,166.066 834.329,165.609 828.253,165.188 
  822.215,164.802 816.215,164.452 810.252,164.137 804.328,163.856 798.441,163.611 792.593,163.4 786.782,163.224 781.01,163.082 775.276,162.973 769.58,162.899 
  763.922,162.858 758.303,162.85 752.721,162.876 747.178,162.935 741.673,163.026 736.206,163.15 730.778,163.306 725.387,163.494 720.034,163.714 714.72,163.965 
  709.444,164.248 704.205,164.563 699.004,164.908 693.842,165.284 688.717,165.69 683.63,166.127 678.58,166.594 673.568,167.09 668.594,167.617 663.656,168.172 
  658.757,168.757 653.894,169.371 649.069,170.013 644.28,170.684 639.529,171.383 634.814,172.11 630.136,172.864 625.494,173.646 620.889,174.455 616.319,175.291 
  611.786,176.154 607.289,177.044 602.828,177.959 598.402,178.901 594.012,179.868 589.657,180.86 585.337,181.878 581.052,182.921 576.801,183.988 572.585,185.08 
  568.403,186.196 564.256,187.335 560.142,188.499 556.062,189.685 552.016,190.895 548.002,192.127 544.022,193.382 540.074,194.66 536.159,195.959 532.276,197.28 
  528.425,198.622 524.605,199.985 520.818,201.37 517.061,202.774 513.335,204.2 509.64,205.645 505.975,207.11 502.34,208.594 498.735,210.097 495.16,211.619 
  491.613,213.16 488.095,214.719 484.606,216.296 481.146,217.891 477.714,219.504 474.313,221.135 470.94,222.783 467.596,224.449 464.281,226.132 460.994,227.832 
  457.735,229.549 454.505,231.282 451.302,233.031 448.127,234.797 444.979,236.579 441.858,238.376 438.764,240.189 435.697,242.017 432.657,243.86 429.643,245.718 
  426.655,247.59 423.693,249.477 420.756,251.379 417.846,253.294 414.96,255.223 412.1,257.166 409.264,259.123 406.454,261.092 403.668,263.075 400.906,265.07 
  398.169,267.079 395.455,269.099 392.765,271.133 390.099,273.178 387.456,275.235 384.837,277.304 382.24,279.384 379.666,281.476 377.115,283.579 374.587,285.693 
  372.081,287.818 369.597,289.954 367.134,292.1 364.694,294.257 362.275,296.423 359.878,298.6 357.502,300.786 355.147,302.983 352.813,305.188 350.5,307.403 
  348.207,309.627 345.934,311.86 343.682,314.102 341.45,316.353 339.238,318.612 337.046,320.88 334.873,323.155 332.719,325.439 330.585,327.731 328.47,330.03 
  326.374,332.337 324.297,334.652 322.238,336.973 320.198,339.302 318.176,341.638 316.172,343.981 314.186,346.331 312.218,348.687 310.268,351.049 308.336,353.418 
  306.421,355.793 304.523,358.174 302.642,360.561 300.778,362.954 298.932,365.352 297.101,367.756 295.288,370.165 293.491,372.58 291.71,375 289.945,377.424 
  288.197,379.854 286.464,382.288 284.747,384.727 283.046,387.17 281.36,389.618 279.69,392.07 278.034,394.526 276.394,396.987 274.769,399.451 273.159,401.919 
  271.564,404.391 269.983,406.866 268.416,409.345 266.865,411.827 265.327,414.313 263.803,416.801 262.294,419.293 260.798,421.788 259.317,424.286 257.848,426.786 
  256.394,429.289 254.953,431.795 253.525,434.303 252.111,436.814 250.71,439.327 249.321,441.842 247.946,444.359 246.584,446.879 245.234,449.4 243.897,451.923 
  242.572,454.448 241.26,456.975 239.96,459.503 238.672,462.033 237.397,464.565 236.134,467.098 234.882,469.632 233.642,472.167 232.413,474.703 231.196,477.24 
  229.991,479.778 228.796,482.317 227.612,484.856 226.44,487.396 225.278,489.937 224.128,492.478 222.988,495.02 221.858,497.562 220.74,500.104 219.631,502.646 
  218.534,505.189 217.446,507.732 216.369,510.274 215.302,512.817 214.245,515.36 213.198,517.902 212.161,520.445 211.133,522.987 210.116,525.528 209.108,528.069 
  208.109,530.61 207.12,533.15 206.141,535.69 205.171,538.229 204.21,540.767 203.258,543.304 202.316,545.841 201.382,548.377 200.458,550.912 199.542,553.446 
  198.635,555.978 197.737,558.51 196.848,561.04 195.967,563.57 195.095,566.098 194.231,568.625 193.376,571.15 192.528,573.674 191.69,576.196 190.859,578.717 
  190.036,581.237 189.222,583.754 188.415,586.27 187.617,588.785 186.826,591.297 186.043,593.808 185.267,596.317 184.5,598.824 183.74,601.329 182.987,603.832 
  182.242,606.333 181.505,608.832 180.774,611.329 180.052,613.823 179.336,616.316 178.627,618.806 177.926,621.294 177.231,623.779 176.544,626.263 175.864,628.743 
  175.19,631.222 174.524,633.698 173.864,636.171 173.21,638.642 172.564,641.11 171.924,643.575 171.291,646.038 170.664,648.498 170.044,650.956 169.43,653.41 
  168.823,655.862 168.222,658.311 167.627,660.758 167.038,663.201 166.456,665.641 165.879,668.079 165.309,670.513 164.745,672.944 164.187,675.373 163.635,677.798 
  163.089,680.22 162.548,682.639 162.014,685.055 161.485,687.468 160.962,689.877 160.445,692.284 159.933,694.687 159.428,697.087 158.927,699.483 158.433,701.876 
  157.943,704.266 157.46,706.653 156.981,709.036 156.509,711.415 156.041,713.792 155.579,716.165 155.123,718.534 154.671,720.9 154.225,723.262 153.784,725.621 
  153.348,727.977 152.918,730.329 152.492,732.677 152.072,735.022 151.657,737.363 151.247,739.7 150.841,742.034 150.441,744.365 150.046,746.691 149.656,749.015 
  149.271,751.334 148.89,753.65 148.515,755.962 148.144,758.27 147.779,760.575 147.418,762.876 147.061,765.173 146.71,767.467 146.363,769.756 146.02,772.042 
  145.682,774.324 145.348,776.601 145.019,778.875 144.695,781.145 144.375,783.411 144.059,785.674 143.748,787.932 143.441,790.186 143.138,792.436 142.84,794.683 
  142.546,796.925 142.257,799.163 141.971,801.398 141.69,803.628 141.413,805.854 141.141,808.076 140.872,810.295 140.608,812.509 140.347,814.719 140.091,816.925 
  139.839,819.127 139.591,821.324 139.347,823.518 139.107,825.708 138.871,827.893 138.639,830.075 138.411,832.252 138.187,834.425 137.967,836.594 137.751,838.758 
  137.538,840.919 137.33,843.075 137.125,845.228 136.924,847.376 136.727,849.519 136.534,851.659 136.344,853.794 136.159,855.926 135.977,858.053 135.798,860.175 
  135.624,862.294 135.453,864.408 135.286,866.518 135.122,868.624 134.962,870.725 134.806,872.823 134.653,874.915 134.504,877.004 134.359,879.089 134.217,881.169 
  134.078,883.245 133.944,885.316 133.812,887.383 133.684,889.446 133.56,891.505 133.439,893.559 133.321,895.609 133.207,897.655 133.097,899.696 132.99,901.733 
  132.886,903.766 132.785,905.794 132.688,907.818 132.595,909.838 132.504,911.853 132.417,913.864 132.334,915.871 132.253,917.873 132.176,919.871 132.102,921.865 
  132.032,923.854 131.965,925.839 131.901,927.819 131.84,929.795 131.782,931.767 131.728,933.735 131.677,935.698 131.629,937.656 131.584,939.611 131.543,941.561 
  131.505,943.506 131.469,945.447 131.437,947.384 131.408,949.317 131.383,951.245 131.36,953.168 131.341,955.088 131.324,957.003 131.311,958.913 131.301,960.82 
  131.294,962.721 131.29,964.619 131.289,966.512 131.291,968.401 131.296,970.285 131.304,972.165 131.315,974.041 131.33,975.912 131.347,977.779 131.367,979.642 
  131.391,981.5 131.417,983.354 131.447,985.203 131.479,987.048 131.515,988.889 131.553,990.726 131.594,992.558 131.639,994.386 131.686,996.209 131.737,998.028 
  131.79,999.843 131.846,1001.65 131.906,1003.46 131.968,1005.26 132.033,1007.06 132.101,1008.85 132.172,1010.64 132.246,1012.43 132.324,1014.21 132.404,1015.98 
  132.486,1017.75 132.572,1019.52 132.661,1021.29 132.753,1023.04 132.848,1024.8 132.945,1026.55 133.046,1028.3 133.15,1030.04 133.256,1031.77 133.365,1033.51 
  133.477,1035.24 133.593,1036.96 133.711,1038.68 133.832,1040.4 133.955,1042.11 134.082,1043.82 134.212,1045.52 134.344,1047.22 134.48,1048.92 134.618,1050.61 
  134.759,1052.29 134.903,1053.97 135.05,1055.65 135.2,1057.33 135.353,1059 135.509,1060.66 135.667,1062.32 135.829,1063.98 135.993,1065.63 136.16,1067.28 
  136.33,1068.92 136.504,1070.56 136.679,1072.2 136.858,1073.83 137.04,1075.46 137.225,1077.08 137.412,1078.7 137.603,1080.32 137.796,1081.93 137.992,1083.53 
  138.191,1085.14 138.393,1086.73 138.598,1088.33 138.806,1089.92 139.017,1091.5 139.23,1093.09 139.447,1094.66 139.666,1096.24 139.889,1097.81 140.114,1099.37 
  140.342,1100.93 140.573,1102.49 140.808,1104.04 141.045,1105.59 141.285,1107.14 141.527,1108.68 141.773,1110.21 142.022,1111.75 142.274,1113.27 142.528,1114.8 
  142.786,1116.32 143.046,1117.84 143.31,1119.35 143.576,1120.86 143.846,1122.36 144.118,1123.86 144.394,1125.36 144.672,1126.85 144.953,1128.33 145.237,1129.82 
  145.525,1131.3 145.815,1132.77 146.108,1134.25 146.405,1135.71 146.704,1137.18 147.006,1138.64 147.311,1140.09 147.62,1141.54 147.931,1142.99 148.245,1144.44 
  148.563,1145.88 148.883,1147.31 149.207,1148.74 149.533,1150.17 149.863,1151.6 150.196,1153.02 150.531,1154.43 150.87,1155.84 151.212,1157.25 151.557,1158.66 
  151.905,1160.06 152.256,1161.45 152.611,1162.85 152.968,1164.24 153.328,1165.62 153.692,1167 154.059,1168.38 154.429,1169.75 154.802,1171.12 155.178,1172.49 
  155.557,1173.85 155.94,1175.2 156.325,1176.56 156.714,1177.91 157.106,1179.25 157.502,1180.6 157.9,1181.93 158.302,1183.27 158.707,1184.6 159.115,1185.93 
  159.526,1187.25 159.941,1188.57 160.358,1189.88 160.779,1191.19 161.204,1192.5 161.631,1193.81 162.062,1195.11 162.497,1196.4 162.934,1197.7 163.375,1198.98 
  163.819,1200.27 164.267,1201.55 164.717,1202.83 165.172,1204.1 165.629,1205.37 166.09,1206.64 166.554,1207.9 167.022,1209.16 167.493,1210.41 167.968,1211.67 
  168.446,1212.91 168.927,1214.16 169.412,1215.4 169.9,1216.63 170.391,1217.87 170.887,1219.1 171.385,1220.32 171.887,1221.54 172.393,1222.76 172.902,1223.98 
  173.415,1225.19 173.931,1226.39 174.451,1227.6 174.974,1228.8 175.501,1229.99 176.031,1231.19 176.565,1232.38 177.103,1233.56 177.644,1234.74 178.189,1235.92 
  178.737,1237.1 179.289,1238.27 179.845,1239.43 180.405,1240.6 180.968,1241.76 181.535,1242.92 182.106,1244.07 182.68,1245.22 183.258,1246.36 183.84,1247.51 
  184.426,1248.64 185.015,1249.78 185.608,1250.91 186.205,1252.04 186.806,1253.16 187.411,1254.28 188.019,1255.4 188.632,1256.52 189.248,1257.63 189.868,1258.73 
  190.492,1259.84 191.12,1260.94 191.752,1262.03 192.388,1263.13 193.028,1264.21 193.672,1265.3 194.319,1266.38 194.971,1267.46 195.627,1268.54 196.287,1269.61 
  196.951,1270.68 197.618,1271.74 198.29,1272.8 198.967,1273.86 199.647,1274.92 200.331,1275.97 201.019,1277.02 201.712,1278.06 202.409,1279.1 203.11,1280.14 
  203.815,1281.17 204.524,1282.2 205.237,1283.23 205.955,1284.26 206.677,1285.28 207.404,1286.29 208.134,1287.31 208.869,1288.32 209.608,1289.32 210.352,1290.33 
  211.1,1291.33 211.852,1292.33 212.609,1293.32 213.37,1294.31 214.136,1295.3 214.905,1296.28 215.68,1297.26 216.459,1298.24 217.242,1299.21 218.03,1300.18 
  218.823,1301.15 219.62,1302.11 220.421,1303.07 221.228,1304.03 222.038,1304.98 222.854,1305.93 223.674,1306.88 224.498,1307.82 225.328,1308.76 226.162,1309.7 
  227.001,1310.63 227.844,1311.56 228.693,1312.49 229.546,1313.41 230.404,1314.33 231.266,1315.25 232.134,1316.17 233.006,1317.08 233.884,1317.98 234.766,1318.89 
  235.653,1319.79 236.545,1320.69 237.442,1321.58 238.344,1322.47 239.251,1323.36 240.163,1324.25 241.08,1325.13 242.002,1326.01 242.929,1326.88 243.862,1327.75 
  244.799,1328.62 245.742,1329.49 246.689,1330.35 247.642,1331.21 248.6,1332.07 249.564,1332.92 250.532,1333.77 251.506,1334.61 252.485,1335.46 253.47,1336.3 
  254.46,1337.13 255.455,1337.97 256.456,1338.8 257.462,1339.62 258.473,1340.45 259.49,1341.27 260.513,1342.09 261.541,1342.9 262.574,1343.71 263.613,1344.52 
  264.658,1345.33 265.708,1346.13 266.764,1346.93 267.825,1347.72 268.892,1348.51 269.965,1349.3 271.044,1350.09 272.128,1350.87 273.218,1351.65 274.314,1352.43 
  275.416,1353.2 276.523,1353.97 277.637,1354.74 278.756,1355.5 279.881,1356.27 281.012,1357.02 282.15,1357.78 283.293,1358.53 284.442,1359.28 285.597,1360.02 
  286.758,1360.77 287.926,1361.51 289.099,1362.24 290.279,1362.97 291.465,1363.7 292.657,1364.43 293.855,1365.16 295.06,1365.88 296.271,1366.59 297.488,1367.31 
  298.711,1368.02 299.941,1368.73 301.177,1369.43 302.42,1370.13 303.669,1370.83 304.925,1371.53 306.187,1372.22 307.455,1372.91 308.73,1373.6 310.012,1374.28 
  311.301,1374.96 312.596,1375.64 313.897,1376.31 315.206,1376.99 316.521,1377.65 317.843,1378.32 319.171,1378.98 320.507,1379.64 321.849,1380.3 323.198,1380.95 
  324.554,1381.6 325.918,1382.25 327.287,1382.89 328.664,1383.53 330.048,1384.17 331.44,1384.8 332.838,1385.43 334.243,1386.06 335.655,1386.69 337.075,1387.31 
  338.502,1387.93 339.936,1388.55 341.377,1389.16 342.825,1389.77 344.281,1390.38 345.745,1390.98 347.215,1391.58 348.693,1392.18 350.179,1392.77 351.672,1393.37 
  353.172,1393.96 354.68,1394.54 356.196,1395.12 357.719,1395.7 359.25,1396.28 360.788,1396.85 362.334,1397.42 363.888,1397.99 365.45,1398.56 367.02,1399.12 
  368.597,1399.68 370.182,1400.23 371.775,1400.79 373.375,1401.33 374.983,1401.88 376.599,1402.42 378.222,1402.96 379.853,1403.5 381.492,1404.03 383.139,1404.56 
  384.793,1405.09 386.456,1405.62 388.126,1406.14 389.805,1406.65 391.491,1407.17 393.186,1407.68 394.889,1408.19 396.6,1408.7 398.319,1409.2 400.047,1409.7 
  401.783,1410.19 403.527,1410.69 405.28,1411.18 407.042,1411.66 408.812,1412.15 410.59,1412.63 412.378,1413.11 414.174,1413.58 415.978,1414.05 417.792,1414.52 
  419.614,1414.99 421.445,1415.45 423.286,1415.91 425.135,1416.37 426.993,1416.82 428.86,1417.27 430.736,1417.72 432.622,1418.16 434.517,1418.6 436.421,1419.04 
  438.334,1419.47 440.256,1419.91 442.188,1420.33 444.13,1420.76 446.081,1421.18 448.041,1421.6 450.011,1422.02 451.99,1422.43 453.98,1422.84 455.978,1423.25 
  457.987,1423.65 460.005,1424.05 462.034,1424.45 464.072,1424.85 466.119,1425.24 468.177,1425.63 470.245,1426.01 472.323,1426.39 474.411,1426.77 476.509,1427.15 
  478.617,1427.52 480.736,1427.89 482.864,1428.26 485.003,1428.62 487.153,1428.98 489.312,1429.34 491.482,1429.69 493.663,1430.04 495.854,1430.39 498.055,1430.74 
  500.267,1431.08 502.49,1431.42 504.723,1431.75 506.967,1432.08 509.221,1432.41 511.487,1432.74 513.763,1433.06 516.05,1433.38 518.348,1433.69 520.657,1434.01 
  522.976,1434.32 525.307,1434.62 527.649,1434.92 530.002,1435.22 532.366,1435.52 534.741,1435.81 537.127,1436.1 539.524,1436.39 541.933,1436.67 544.353,1436.95 
  546.784,1437.23 549.227,1437.5 551.681,1437.77 554.146,1438.04 556.623,1438.31 559.112,1438.57 561.612,1438.82 564.123,1439.08 566.647,1439.33 569.181,1439.57 
  571.728,1439.82 574.286,1440.06 576.856,1440.29 579.438,1440.53 582.031,1440.76 584.637,1440.98 587.254,1441.21 589.883,1441.43 592.524,1441.64 595.178,1441.85 
  597.843,1442.06 600.52,1442.27 603.209,1442.47 605.911,1442.67 608.624,1442.87 611.35,1443.06 614.088,1443.25 616.838,1443.43 619.601,1443.61 622.376,1443.79 
  625.163,1443.96 627.963,1444.13 630.775,1444.3 633.599,1444.46 636.436,1444.62 639.285,1444.78 642.147,1444.93 645.022,1445.08 647.909,1445.22 650.809,1445.37 
  653.721,1445.5 656.646,1445.64 659.584,1445.77 662.535,1445.89 665.498,1446.02 668.474,1446.13 671.463,1446.25 674.465,1446.36 677.48,1446.47 680.507,1446.57 
  683.548,1446.67 686.601,1446.77 689.668,1446.86 692.748,1446.95 695.84,1447.03 698.946,1447.11 702.065,1447.19 705.197,1447.26 708.342,1447.33 711.501,1447.39 
  714.672,1447.45 717.857,1447.51 721.055,1447.56 724.267,1447.61 727.492,1447.66 730.73,1447.7 733.982,1447.73 737.247,1447.76 740.525,1447.79 743.817,1447.82 
  747.122,1447.84 750.441,1447.85 753.774,1447.86 757.12,1447.87 760.479,1447.87 763.853,1447.87 767.239,1447.87 770.64,1447.86 774.054,1447.84 777.482,1447.82 
  780.924,1447.8 784.379,1447.77 787.848,1447.74 791.332,1447.71 794.828,1447.67 798.339,1447.62 801.864,1447.57 805.402,1447.52 808.955,1447.46 812.521,1447.4 
  816.101,1447.33 819.696,1447.26 823.304,1447.18 826.926,1447.1 830.563,1447.02 834.213,1446.93 837.878,1446.83 841.556,1446.73 845.249,1446.63 848.956,1446.52 
  852.677,1446.41 856.413,1446.29 860.162,1446.17 863.926,1446.04 867.704,1445.91 871.497,1445.77 875.303,1445.63 879.124,1445.48 882.96,1445.33 886.809,1445.17 
  890.673,1445.01 894.552,1444.84 898.445,1444.67 902.352,1444.49 906.274,1444.31 910.21,1444.12 914.161,1443.93 918.126,1443.74 922.106,1443.53 926.1,1443.33 
  930.109,1443.11 934.133,1442.9 938.171,1442.67 942.223,1442.44 946.291,1442.21 950.373,1441.97 954.469,1441.73 958.58,1441.48 962.706,1441.22 966.847,1440.96 
  971.002,1440.7 975.173,1440.43 979.357,1440.15 983.557,1439.87 987.772,1439.58 992.001,1439.29 996.245,1438.99 1000.5,1438.69 1004.77,1438.38 1009.05,1438.06 
  1013.34,1437.74 1017.65,1437.41 1021.97,1437.07 1026.3,1436.73 1030.64,1436.39 1035,1436.03 1039.37,1435.68 1043.75,1435.31 1048.14,1434.94 1052.55,1434.56 
  1056.97,1434.18 1061.41,1433.79 1065.86,1433.39 1070.32,1432.99 1074.79,1432.58 1079.28,1432.16 1083.78,1431.74 1088.29,1431.31 1092.82,1430.88 1097.36,1430.44 
  1101.92,1429.99 1106.48,1429.53 1111.07,1429.07 1115.66,1428.6 1120.27,1428.13 1124.89,1427.65 1129.53,1427.16 1134.18,1426.66 1138.84,1426.16 1143.52,1425.65 
  1148.21,1425.13 1152.91,1424.61 1157.63,1424.08 1162.36,1423.54 1167.1,1423 1171.86,1422.44 1176.63,1421.88 1181.41,1421.32 1186.21,1420.74 1191.02,1420.16 
  1195.84,1419.57 1200.68,1418.97 1205.53,1418.37 1210.39,1417.76 1215.26,1417.14 1220.15,1416.51 1225.05,1415.88 1229.97,1415.24 1234.89,1414.58 1239.83,1413.93 
  1244.78,1413.26 1249.74,1412.59 1254.72,1411.9 1259.71,1411.21 1264.71,1410.51 1269.72,1409.81 1274.74,1409.09 1279.78,1408.37 1284.83,1407.64 1289.89,1406.9 
  1294.96,1406.15 1300.04,1405.39 1305.13,1404.63 1310.23,1403.85 1315.35,1403.07 1320.47,1402.28 1325.61,1401.48 1330.76,1400.67 1335.91,1399.85 1341.08,1399.02 
  1346.26,1398.18 1351.44,1397.34 1356.64,1396.48 1361.85,1395.62 1367.06,1394.74 1372.29,1393.86 1377.52,1392.97 1382.76,1392.07 1388.01,1391.15 1393.27,1390.23 
  1398.54,1389.3 1403.82,1388.36 1409.1,1387.41 1414.39,1386.45 1419.69,1385.48 1425,1384.5 1430.31,1383.51 1435.63,1382.51 1440.96,1381.49 1446.29,1380.47 
  1451.63,1379.44 1456.97,1378.4 1462.32,1377.35 1467.68,1376.28 1473.04,1375.21 1478.41,1374.12 1483.78,1373.03 1489.15,1371.92 1494.53,1370.8 1499.91,1369.67 
  1505.3,1368.53 1510.69,1367.38 1516.09,1366.22 1521.48,1365.04 1526.88,1363.86 1532.28,1362.66 1537.69,1361.45 1543.09,1360.23 1548.5,1359 1553.91,1357.75 
  1559.31,1356.5 1564.72,1355.23 1570.13,1353.95 1575.54,1352.65 1580.95,1351.35 1586.36,1350.03 1591.77,1348.7 1597.17,1347.36 1602.58,1346.01 1607.98,1344.64 
  1613.38,1343.26 1618.78,1341.86 1624.17,1340.46 1629.56,1339.04 1634.95,1337.61 1640.33,1336.16 1645.71,1334.7 1651.09,1333.23 1656.46,1331.74 1661.82,1330.24 
  1667.18,1328.73 1672.53,1327.2 1677.88,1325.66 1683.21,1324.1 1688.54,1322.54 1693.87,1320.95 1699.18,1319.35 1704.49,1317.74 1709.79,1316.12 1715.07,1314.48 
  1720.35,1312.82 1725.62,1311.15 1730.88,1309.46 1736.13,1307.76 1741.36,1306.05 1746.58,1304.32 1751.8,1302.57 1756.99,1300.81 1762.18,1299.04 1767.35,1297.24 
  1772.51,1295.44 1777.65,1293.61 1782.78,1291.77 1787.9,1289.92 1792.99,1288.05 1798.08,1286.16 1803.14,1284.26 1808.19,1282.34 1813.22,1280.4 1818.23,1278.45 
  1823.23,1276.48 1828.2,1274.49 1833.15,1272.49 1838.09,1270.47 1843,1268.43 1847.9,1266.38 1852.77,1264.31 1857.62,1262.22 1862.45,1260.11 1867.25,1257.98 
  1872.03,1255.84 1876.79,1253.68 1881.52,1251.5 1886.23,1249.31 1890.91,1247.09 1895.57,1244.86 1900.2,1242.61 1904.8,1240.34 1909.38,1238.05 1913.92,1235.74 
  1918.44,1233.41 1922.93,1231.07 1927.39,1228.7 1931.81,1226.32 1936.21,1223.92 1940.57,1221.49 1944.91,1219.05 1949.21,1216.59 1953.48,1214.11 1957.71,1211.6 
  1961.91,1209.08 1966.07,1206.54 1970.2,1203.98 1974.29,1201.39 1978.35,1198.79 1982.36,1196.16 1986.34,1193.52 1990.28,1190.85 1994.18,1188.16 1998.05,1185.45 
  2001.87,1182.72 2005.65,1179.97 2009.39,1177.2 2013.08,1174.4 2016.74,1171.58 2020.35,1168.75 2023.91,1165.88 2027.43,1163 2030.91,1160.09 2034.34,1157.17 
  2037.72,1154.21 2041.05,1151.24 2044.34,1148.24 2047.59,1145.23 2050.78,1142.18 2053.93,1139.12 2057.02,1136.04 2060.07,1132.93 2063.06,1129.8 2066,1126.64 
  2068.89,1123.47 2071.73,1120.27 2074.51,1117.05 2077.23,1113.81 2079.9,1110.54 2082.51,1107.25 2085.07,1103.94 2087.56,1100.6 2090,1097.24 2092.38,1093.86 
  2094.7,1090.46 2096.95,1087.03 2099.15,1083.58 2101.28,1080.11 2103.35,1076.62 2105.35,1073.1 2107.3,1069.56 2109.17,1066 2110.98,1062.41 2112.73,1058.8 
  2114.41,1055.17 2116.02,1051.52 2117.56,1047.84 2119.03,1044.15 2120.44,1040.43 2121.78,1036.68 2123.04,1032.92 2124.24,1029.13 2125.36,1025.32 2126.42,1021.49 
  2127.4,1017.64 2128.31,1013.76 2129.15,1009.86 2129.91,1005.95 2130.6,1002.01 2131.22,998.045 2131.76,994.063 2132.22,990.059 2132.61,986.034 2132.93,981.989 
  2133.17,977.922 2133.33,973.835 2133.42,969.728 2133.43,965.6 2133.36,961.451 2133.22,957.283 2133,953.095 2132.69,948.887 2132.32,944.66 2131.86,940.413 
  2131.32,936.146 2130.7,931.861 2130.01,927.557 2129.23,923.234 2128.38,918.893 2127.45,914.533 2126.43,910.155 2125.34,905.76 2124.16,901.346 2122.9,896.915 
  2121.57,892.467 2120.15,888.002 2118.65,883.52 2117.07,879.022 2115.41,874.507 2113.67,869.975 2111.85,865.429 2109.94,860.866 2107.95,856.288 2105.89,851.695 
  2103.74,847.087 2101.51,842.464 2099.2,837.827 2096.8,833.177 2094.33,828.512 2091.77,823.834 2089.13,819.142 2086.41,814.438 2083.61,809.721 2080.73,804.992 
  2077.77,800.25 2074.73,795.497 2071.6,790.733 2068.4,785.957 2065.11,781.171 2061.75,776.374 2058.3,771.568 2054.77,766.751 2051.17,761.925 2047.48,757.09 
  2043.71,752.246 2039.87,747.394 2035.95,742.533 2031.94,737.665 2027.86,732.79 2023.7,727.908 2019.46,723.019 2015.15,718.124 2010.75,713.223 2006.28,708.317 
  2001.73,703.405 1997.11,698.489 1992.41,693.569 1987.63,688.645 1982.78,683.717 1977.85,678.787 1972.85,673.853 1967.77,668.918 1962.62,663.981 1957.4,659.042 
  1952.1,654.103 1946.73,649.163 1941.29,644.223 1935.77,639.284 1930.19,634.345 1924.53,629.407 1918.8,624.471 1913,619.537 1907.13,614.606 1901.19,609.678 
  1895.18,604.754 1889.11,599.835 1882.97,594.921 1876.77,590.014 1870.5,585.113 1864.18,580.219 1857.79,575.333 1851.35,570.456 1844.85,565.588 1838.29,560.729 
  1831.67,555.882 1825,551.045 1818.28,546.219 1811.5,541.406 1804.67,536.605 1797.79,531.818 1790.87,527.045 1783.89,522.286 1776.87,517.542 1769.8,512.813 
  1762.69,508.101 1755.53,503.405 1748.33,498.726 1741.09,494.065 1733.81,489.422 1726.49,484.798 1719.13,480.193 1711.73,475.608 1704.3,471.043 1696.83,466.499 
  1689.33,461.975 1681.8,457.474 1674.23,452.995 1666.63,448.538 1659,444.104 1651.34,439.694 1643.65,435.308 1635.94,430.946 1628.2,426.609 1620.44,422.298 
  1612.65,418.012 1604.83,413.752 1597,409.519 1589.14,405.313 1581.27,401.134 1573.37,396.983 1565.46,392.86 1557.52,388.766 1549.58,384.7 1541.61,380.664 
  1533.63,376.658 1525.64,372.681 1517.64,368.736 1509.62,364.82 1501.59,360.936 1493.55,357.084 1485.51,353.263 1477.45,349.474 1469.39,345.718 1461.32,341.994 
  1453.25,338.304 1445.17,334.646 1437.08,331.023 1429,327.434 1420.91,323.878 1412.82,320.358 1404.73,316.872 1396.64,313.421 1388.55,310.005 1380.47,306.625 
  1372.39,303.281 1364.31,299.973 1356.23,296.702 1348.16,293.467 1340.1,290.269 1332.05,287.108 1324,283.984 1315.96,280.897 1307.93,277.849 1299.92,274.838 
  1291.91,271.865 1283.91,268.931 1275.93,266.035 1267.96,263.177 1260.01,260.359 1252.07,257.579 1244.15,254.839 1236.24,252.138 1228.35,249.476 1220.48,246.854 
  1212.63,244.271 1204.79,241.729 1196.98,239.226 1189.19,236.764 1181.42,234.341 1173.67,231.959 1165.95,229.618 1158.25,227.317 1150.57,225.057 1142.92,222.837 
  1135.3,220.658 1127.7,218.52 1120.13,216.423 1112.59,214.367 1105.07,212.352 1097.59,210.378 1090.13,208.445 1082.71,206.553 1075.32,204.703 1067.96,202.893 
  1060.63,201.125 1053.34,199.399 1046.08,197.713 1038.85,196.069 1031.66,194.466 1024.51,192.905 1017.39,191.383 1010.3,189.903 1003.24,188.462 996.223,187.061 
  989.236,185.7 982.284,184.379 975.367,183.098 968.485,181.856 961.637,180.653 954.825,179.49 948.049,178.366 941.308,177.28 934.604,176.234 927.935,175.227 
  921.303,174.257 914.707,173.327 908.148,172.434 901.626,171.58 895.141,170.764 888.693,169.985 882.283,169.244 875.91,168.541 869.574,167.874 863.276,167.245 
  857.016,166.653 850.794,166.097 844.61,165.578 838.464,165.096 832.356,164.65 826.286,164.239 820.255,163.865 814.262,163.526 808.308,163.223 802.392,162.955 
  796.514,162.722 790.675,162.523 784.875,162.36 779.113,162.23 773.39,162.135 767.705,162.074 762.059,162.047 756.452,162.053 750.883,162.093 745.352,162.165 
  739.86,162.271 734.407,162.409 728.991,162.58 723.615,162.782 718.276,163.017 712.975,163.283 707.713,163.581 702.488,163.91 697.302,164.269 692.153,164.66 
  687.042,165.081 681.968,165.532 676.932,166.013 671.933,166.523 666.971,167.063 662.047,167.632 657.159,168.23 652.307,168.856 647.492,169.51 642.714,170.193 
  
  "/>
<path clip-path="url(#clip980)" d="
M1873.74 272.585 L2278.07 272.585 L2278.07 168.905 L1873.74 168.905  Z
  " fill="#ffffff" fill-rule="evenodd" fill-opacity="1"/>
<polyline clip-path="url(#clip980)" style="stroke:#000000; stroke-linecap:butt; stroke-linejoin:round; stroke-width:4; stroke-opacity:1; fill:none" points="
  1873.74,272.585 2278.07,272.585 2278.07,168.905 1873.74,168.905 1873.74,272.585 
  "/>
<polyline clip-path="url(#clip980)" style="stroke:#009af9; stroke-linecap:butt; stroke-linejoin:round; stroke-width:4; stroke-opacity:1; fill:none" points="
  1897.74,220.745 2041.74,220.745 
  "/>
<path clip-path="url(#clip980)" d="M2076.37 202.053 Q2073.27 207.377 2071.76 212.585 Q2070.26 217.793 2070.26 223.14 Q2070.26 228.488 2071.76 233.742 Q2073.29 238.974 2076.37 244.275 L2072.66 244.275 Q2069.19 238.835 2067.46 233.58 Q2065.74 228.326 2065.74 223.14 Q2065.74 217.978 2067.46 212.747 Q2069.17 207.516 2072.66 202.053 L2076.37 202.053 Z" fill="#000000" fill-rule="evenodd" fill-opacity="1" /><path clip-path="url(#clip980)" d="M2084.19 227.793 L2084.19 212.099 L2088.45 212.099 L2088.45 227.631 Q2088.45 231.312 2089.89 233.164 Q2091.32 234.992 2094.19 234.992 Q2097.64 234.992 2099.63 232.793 Q2101.64 230.594 2101.64 226.798 L2101.64 212.099 L2105.9 212.099 L2105.9 238.025 L2101.64 238.025 L2101.64 234.043 Q2100.09 236.404 2098.03 237.562 Q2096 238.696 2093.29 238.696 Q2088.82 238.696 2086.51 235.918 Q2084.19 233.14 2084.19 227.793 M2094.91 211.474 L2094.91 211.474 Z" fill="#000000" fill-rule="evenodd" fill-opacity="1" /><path clip-path="url(#clip980)" d="M2116.09 234.089 L2123.73 234.089 L2123.73 207.724 L2115.42 209.391 L2115.42 205.131 L2123.68 203.465 L2128.36 203.465 L2128.36 234.089 L2136 234.089 L2136 238.025 L2116.09 238.025 L2116.09 234.089 Z" fill="#000000" fill-rule="evenodd" fill-opacity="1" /><path clip-path="url(#clip980)" d="M2145.93 232.145 L2150.81 232.145 L2150.81 236.127 L2147.01 243.534 L2144.03 243.534 L2145.93 236.127 L2145.93 232.145 Z" fill="#000000" fill-rule="evenodd" fill-opacity="1" /><path clip-path="url(#clip980)" d="M2159.47 227.793 L2159.47 212.099 L2163.73 212.099 L2163.73 227.631 Q2163.73 231.312 2165.16 233.164 Q2166.6 234.992 2169.47 234.992 Q2172.92 234.992 2174.91 232.793 Q2176.92 230.594 2176.92 226.798 L2176.92 212.099 L2181.18 212.099 L2181.18 238.025 L2176.92 238.025 L2176.92 234.043 Q2175.37 236.404 2173.31 237.562 Q2171.27 238.696 2168.57 238.696 Q2164.1 238.696 2161.78 235.918 Q2159.47 233.14 2159.47 227.793 M2170.19 211.474 L2170.19 211.474 Z" fill="#000000" fill-rule="evenodd" fill-opacity="1" /><path clip-path="url(#clip980)" d="M2194.58 234.089 L2210.9 234.089 L2210.9 238.025 L2188.96 238.025 L2188.96 234.089 Q2191.62 231.335 2196.2 226.705 Q2200.81 222.053 2201.99 220.71 Q2204.24 218.187 2205.12 216.451 Q2206.02 214.691 2206.02 213.002 Q2206.02 210.247 2204.07 208.511 Q2202.15 206.775 2199.05 206.775 Q2196.85 206.775 2194.4 207.539 Q2191.97 208.303 2189.19 209.854 L2189.19 205.131 Q2192.01 203.997 2194.47 203.418 Q2196.92 202.84 2198.96 202.84 Q2204.33 202.84 2207.52 205.525 Q2210.72 208.21 2210.72 212.701 Q2210.72 214.83 2209.91 216.752 Q2209.12 218.65 2207.01 221.242 Q2206.44 221.914 2203.33 225.131 Q2200.23 228.326 2194.58 234.089 Z" fill="#000000" fill-rule="evenodd" fill-opacity="1" /><path clip-path="url(#clip980)" d="M2219.45 202.053 L2223.15 202.053 Q2226.62 207.516 2228.33 212.747 Q2230.07 217.978 2230.07 223.14 Q2230.07 228.326 2228.33 233.58 Q2226.62 238.835 2223.15 244.275 L2219.45 244.275 Q2222.52 238.974 2224.03 233.742 Q2225.56 228.488 2225.56 223.14 Q2225.56 217.793 2224.03 212.585 Q2222.52 207.377 2219.45 202.053 Z" fill="#000000" fill-rule="evenodd" fill-opacity="1" /></svg>
