<?xml version="1.0" encoding="utf-8"?>
<svg xmlns="http://www.w3.org/2000/svg" xmlns:xlink="http://www.w3.org/1999/xlink" width="600" height="400" viewBox="0 0 2400 1600">
<defs>
  <clipPath id="clip380">
    <rect x="0" y="0" width="2400" height="1600"/>
  </clipPath>
</defs>
<path clip-path="url(#clip380)" d="
M0 1600 L2400 1600 L2400 0 L0 0  Z
  " fill="#ffffff" fill-rule="evenodd" fill-opacity="1"/>
<defs>
  <clipPath id="clip381">
    <rect x="480" y="0" width="1681" height="1600"/>
  </clipPath>
</defs>
<path clip-path="url(#clip380)" d="
M192.941 1486.45 L2352.76 1486.45 L2352.76 47.2441 L192.941 47.2441  Z
  " fill="#ffffff" fill-rule="evenodd" fill-opacity="1"/>
<defs>
  <clipPath id="clip382">
    <rect x="192" y="47" width="2161" height="1440"/>
  </clipPath>
</defs>
<polyline clip-path="url(#clip382)" style="stroke:#000000; stroke-linecap:butt; stroke-linejoin:round; stroke-width:2; stroke-opacity:0.1; fill:none" points="
  484.689,1486.45 484.689,47.2441 
  "/>
<polyline clip-path="url(#clip382)" style="stroke:#000000; stroke-linecap:butt; stroke-linejoin:round; stroke-width:2; stroke-opacity:0.1; fill:none" points="
  814.829,1486.45 814.829,47.2441 
  "/>
<polyline clip-path="url(#clip382)" style="stroke:#000000; stroke-linecap:butt; stroke-linejoin:round; stroke-width:2; stroke-opacity:0.1; fill:none" points="
  1144.97,1486.45 1144.97,47.2441 
  "/>
<polyline clip-path="url(#clip382)" style="stroke:#000000; stroke-linecap:butt; stroke-linejoin:round; stroke-width:2; stroke-opacity:0.1; fill:none" points="
  1475.11,1486.45 1475.11,47.2441 
  "/>
<polyline clip-path="url(#clip382)" style="stroke:#000000; stroke-linecap:butt; stroke-linejoin:round; stroke-width:2; stroke-opacity:0.1; fill:none" points="
  1805.25,1486.45 1805.25,47.2441 
  "/>
<polyline clip-path="url(#clip382)" style="stroke:#000000; stroke-linecap:butt; stroke-linejoin:round; stroke-width:2; stroke-opacity:0.1; fill:none" points="
  2135.39,1486.45 2135.39,47.2441 
  "/>
<polyline clip-path="url(#clip380)" style="stroke:#000000; stroke-linecap:butt; stroke-linejoin:round; stroke-width:4; stroke-opacity:1; fill:none" points="
  192.941,1486.45 2352.76,1486.45 
  "/>
<polyline clip-path="url(#clip380)" style="stroke:#000000; stroke-linecap:butt; stroke-linejoin:round; stroke-width:4; stroke-opacity:1; fill:none" points="
  484.689,1486.45 484.689,1467.55 
  "/>
<polyline clip-path="url(#clip380)" style="stroke:#000000; stroke-linecap:butt; stroke-linejoin:round; stroke-width:4; stroke-opacity:1; fill:none" points="
  814.829,1486.45 814.829,1467.55 
  "/>
<polyline clip-path="url(#clip380)" style="stroke:#000000; stroke-linecap:butt; stroke-linejoin:round; stroke-width:4; stroke-opacity:1; fill:none" points="
  1144.97,1486.45 1144.97,1467.55 
  "/>
<polyline clip-path="url(#clip380)" style="stroke:#000000; stroke-linecap:butt; stroke-linejoin:round; stroke-width:4; stroke-opacity:1; fill:none" points="
  1475.11,1486.45 1475.11,1467.55 
  "/>
<polyline clip-path="url(#clip380)" style="stroke:#000000; stroke-linecap:butt; stroke-linejoin:round; stroke-width:4; stroke-opacity:1; fill:none" points="
  1805.25,1486.45 1805.25,1467.55 
  "/>
<polyline clip-path="url(#clip380)" style="stroke:#000000; stroke-linecap:butt; stroke-linejoin:round; stroke-width:4; stroke-opacity:1; fill:none" points="
  2135.39,1486.45 2135.39,1467.55 
  "/>
<path clip-path="url(#clip380)" d="M431.136 1532.02 L460.812 1532.02 L460.812 1535.95 L431.136 1535.95 L431.136 1532.02 Z" fill="#000000" fill-rule="evenodd" fill-opacity="1" /><path clip-path="url(#clip380)" d="M480.904 1517.37 Q477.293 1517.37 475.465 1520.93 Q473.659 1524.47 473.659 1531.6 Q473.659 1538.71 475.465 1542.27 Q477.293 1545.82 480.904 1545.82 Q484.539 1545.82 486.344 1542.27 Q488.173 1538.71 488.173 1531.6 Q488.173 1524.47 486.344 1520.93 Q484.539 1517.37 480.904 1517.37 M480.904 1513.66 Q486.715 1513.66 489.77 1518.27 Q492.849 1522.85 492.849 1531.6 Q492.849 1540.33 489.77 1544.94 Q486.715 1549.52 480.904 1549.52 Q475.094 1549.52 472.016 1544.94 Q468.96 1540.33 468.96 1531.6 Q468.96 1522.85 472.016 1518.27 Q475.094 1513.66 480.904 1513.66 Z" fill="#000000" fill-rule="evenodd" fill-opacity="1" /><path clip-path="url(#clip380)" d="M501.066 1542.97 L505.951 1542.97 L505.951 1548.85 L501.066 1548.85 L501.066 1542.97 Z" fill="#000000" fill-rule="evenodd" fill-opacity="1" /><path clip-path="url(#clip380)" d="M526.714 1529.7 Q523.566 1529.7 521.714 1531.86 Q519.886 1534.01 519.886 1537.76 Q519.886 1541.49 521.714 1543.66 Q523.566 1545.82 526.714 1545.82 Q529.863 1545.82 531.691 1543.66 Q533.543 1541.49 533.543 1537.76 Q533.543 1534.01 531.691 1531.86 Q529.863 1529.7 526.714 1529.7 M535.997 1515.05 L535.997 1519.31 Q534.238 1518.48 532.432 1518.04 Q530.65 1517.6 528.89 1517.6 Q524.261 1517.6 521.807 1520.72 Q519.376 1523.85 519.029 1530.17 Q520.395 1528.15 522.455 1527.09 Q524.515 1526 526.992 1526 Q532.2 1526 535.21 1529.17 Q538.242 1532.32 538.242 1537.76 Q538.242 1543.08 535.094 1546.3 Q531.946 1549.52 526.714 1549.52 Q520.719 1549.52 517.548 1544.94 Q514.376 1540.33 514.376 1531.6 Q514.376 1523.41 518.265 1518.55 Q522.154 1513.66 528.705 1513.66 Q530.464 1513.66 532.247 1514.01 Q534.052 1514.36 535.997 1515.05 Z" fill="#000000" fill-rule="evenodd" fill-opacity="1" /><path clip-path="url(#clip380)" d="M761.114 1532.02 L790.79 1532.02 L790.79 1535.95 L761.114 1535.95 L761.114 1532.02 Z" fill="#000000" fill-rule="evenodd" fill-opacity="1" /><path clip-path="url(#clip380)" d="M810.883 1517.37 Q807.271 1517.37 805.443 1520.93 Q803.637 1524.47 803.637 1531.6 Q803.637 1538.71 805.443 1542.27 Q807.271 1545.82 810.883 1545.82 Q814.517 1545.82 816.322 1542.27 Q818.151 1538.71 818.151 1531.6 Q818.151 1524.47 816.322 1520.93 Q814.517 1517.37 810.883 1517.37 M810.883 1513.66 Q816.693 1513.66 819.748 1518.27 Q822.827 1522.85 822.827 1531.6 Q822.827 1540.33 819.748 1544.94 Q816.693 1549.52 810.883 1549.52 Q805.072 1549.52 801.994 1544.94 Q798.938 1540.33 798.938 1531.6 Q798.938 1522.85 801.994 1518.27 Q805.072 1513.66 810.883 1513.66 Z" fill="#000000" fill-rule="evenodd" fill-opacity="1" /><path clip-path="url(#clip380)" d="M831.044 1542.97 L835.929 1542.97 L835.929 1548.85 L831.044 1548.85 L831.044 1542.97 Z" fill="#000000" fill-rule="evenodd" fill-opacity="1" /><path clip-path="url(#clip380)" d="M858.961 1518.36 L847.155 1536.81 L858.961 1536.81 L858.961 1518.36 M857.734 1514.29 L863.614 1514.29 L863.614 1536.81 L868.544 1536.81 L868.544 1540.7 L863.614 1540.7 L863.614 1548.85 L858.961 1548.85 L858.961 1540.7 L843.359 1540.7 L843.359 1536.19 L857.734 1514.29 Z" fill="#000000" fill-rule="evenodd" fill-opacity="1" /><path clip-path="url(#clip380)" d="M1092.3 1532.02 L1121.97 1532.02 L1121.97 1535.95 L1092.3 1535.95 L1092.3 1532.02 Z" fill="#000000" fill-rule="evenodd" fill-opacity="1" /><path clip-path="url(#clip380)" d="M1142.06 1517.37 Q1138.45 1517.37 1136.62 1520.93 Q1134.82 1524.47 1134.82 1531.6 Q1134.82 1538.71 1136.62 1542.27 Q1138.45 1545.82 1142.06 1545.82 Q1145.7 1545.82 1147.5 1542.27 Q1149.33 1538.71 1149.33 1531.6 Q1149.33 1524.47 1147.5 1520.93 Q1145.7 1517.37 1142.06 1517.37 M1142.06 1513.66 Q1147.87 1513.66 1150.93 1518.27 Q1154.01 1522.85 1154.01 1531.6 Q1154.01 1540.33 1150.93 1544.94 Q1147.87 1549.52 1142.06 1549.52 Q1136.25 1549.52 1133.18 1544.94 Q1130.12 1540.33 1130.12 1531.6 Q1130.12 1522.85 1133.18 1518.27 Q1136.25 1513.66 1142.06 1513.66 Z" fill="#000000" fill-rule="evenodd" fill-opacity="1" /><path clip-path="url(#clip380)" d="M1162.23 1542.97 L1167.11 1542.97 L1167.11 1548.85 L1162.23 1548.85 L1162.23 1542.97 Z" fill="#000000" fill-rule="evenodd" fill-opacity="1" /><path clip-path="url(#clip380)" d="M1181.32 1544.91 L1197.64 1544.91 L1197.64 1548.85 L1175.7 1548.85 L1175.7 1544.91 Q1178.36 1542.16 1182.94 1537.53 Q1187.55 1532.88 1188.73 1531.53 Q1190.98 1529.01 1191.86 1527.27 Q1192.76 1525.51 1192.76 1523.82 Q1192.76 1521.07 1190.81 1519.33 Q1188.89 1517.6 1185.79 1517.6 Q1183.59 1517.6 1181.14 1518.36 Q1178.71 1519.13 1175.93 1520.68 L1175.93 1515.95 Q1178.75 1514.82 1181.21 1514.24 Q1183.66 1513.66 1185.7 1513.66 Q1191.07 1513.66 1194.26 1516.35 Q1197.46 1519.03 1197.46 1523.52 Q1197.46 1525.65 1196.65 1527.57 Q1195.86 1529.47 1193.75 1532.07 Q1193.18 1532.74 1190.07 1535.95 Q1186.97 1539.15 1181.32 1544.91 Z" fill="#000000" fill-rule="evenodd" fill-opacity="1" /><path clip-path="url(#clip380)" d="M1452.49 1517.37 Q1448.88 1517.37 1447.05 1520.93 Q1445.25 1524.47 1445.25 1531.6 Q1445.25 1538.71 1447.05 1542.27 Q1448.88 1545.82 1452.49 1545.82 Q1456.13 1545.82 1457.93 1542.27 Q1459.76 1538.71 1459.76 1531.6 Q1459.76 1524.47 1457.93 1520.93 Q1456.13 1517.37 1452.49 1517.37 M1452.49 1513.66 Q1458.3 1513.66 1461.36 1518.27 Q1464.44 1522.85 1464.44 1531.6 Q1464.44 1540.33 1461.36 1544.94 Q1458.3 1549.52 1452.49 1549.52 Q1446.68 1549.52 1443.6 1544.94 Q1440.55 1540.33 1440.55 1531.6 Q1440.55 1522.85 1443.6 1518.27 Q1446.68 1513.66 1452.49 1513.66 Z" fill="#000000" fill-rule="evenodd" fill-opacity="1" /><path clip-path="url(#clip380)" d="M1472.66 1542.97 L1477.54 1542.97 L1477.54 1548.85 L1472.66 1548.85 L1472.66 1542.97 Z" fill="#000000" fill-rule="evenodd" fill-opacity="1" /><path clip-path="url(#clip380)" d="M1497.73 1517.37 Q1494.11 1517.37 1492.29 1520.93 Q1490.48 1524.47 1490.48 1531.6 Q1490.48 1538.71 1492.29 1542.27 Q1494.11 1545.82 1497.73 1545.82 Q1501.36 1545.82 1503.16 1542.27 Q1504.99 1538.71 1504.99 1531.6 Q1504.99 1524.47 1503.16 1520.93 Q1501.36 1517.37 1497.73 1517.37 M1497.73 1513.66 Q1503.54 1513.66 1506.59 1518.27 Q1509.67 1522.85 1509.67 1531.6 Q1509.67 1540.33 1506.59 1544.94 Q1503.54 1549.52 1497.73 1549.52 Q1491.91 1549.52 1488.84 1544.94 Q1485.78 1540.33 1485.78 1531.6 Q1485.78 1522.85 1488.84 1518.27 Q1491.91 1513.66 1497.73 1513.66 Z" fill="#000000" fill-rule="evenodd" fill-opacity="1" /><path clip-path="url(#clip380)" d="M1783.43 1517.37 Q1779.82 1517.37 1777.99 1520.93 Q1776.19 1524.47 1776.19 1531.6 Q1776.19 1538.71 1777.99 1542.27 Q1779.82 1545.82 1783.43 1545.82 Q1787.07 1545.82 1788.87 1542.27 Q1790.7 1538.71 1790.7 1531.6 Q1790.7 1524.47 1788.87 1520.93 Q1787.07 1517.37 1783.43 1517.37 M1783.43 1513.66 Q1789.24 1513.66 1792.3 1518.27 Q1795.38 1522.85 1795.38 1531.6 Q1795.38 1540.33 1792.3 1544.94 Q1789.24 1549.52 1783.43 1549.52 Q1777.62 1549.52 1774.54 1544.94 Q1771.49 1540.33 1771.49 1531.6 Q1771.49 1522.85 1774.54 1518.27 Q1777.62 1513.66 1783.43 1513.66 Z" fill="#000000" fill-rule="evenodd" fill-opacity="1" /><path clip-path="url(#clip380)" d="M1803.59 1542.97 L1808.48 1542.97 L1808.48 1548.85 L1803.59 1548.85 L1803.59 1542.97 Z" fill="#000000" fill-rule="evenodd" fill-opacity="1" /><path clip-path="url(#clip380)" d="M1822.69 1544.91 L1839.01 1544.91 L1839.01 1548.85 L1817.07 1548.85 L1817.07 1544.91 Q1819.73 1542.16 1824.31 1537.53 Q1828.92 1532.88 1830.1 1531.53 Q1832.34 1529.01 1833.22 1527.27 Q1834.13 1525.51 1834.13 1523.82 Q1834.13 1521.07 1832.18 1519.33 Q1830.26 1517.6 1827.16 1517.6 Q1824.96 1517.6 1822.51 1518.36 Q1820.08 1519.13 1817.3 1520.68 L1817.3 1515.95 Q1820.12 1514.82 1822.58 1514.24 Q1825.03 1513.66 1827.07 1513.66 Q1832.44 1513.66 1835.63 1516.35 Q1838.83 1519.03 1838.83 1523.52 Q1838.83 1525.65 1838.02 1527.57 Q1837.23 1529.47 1835.12 1532.07 Q1834.54 1532.74 1831.44 1535.95 Q1828.34 1539.15 1822.69 1544.91 Z" fill="#000000" fill-rule="evenodd" fill-opacity="1" /><path clip-path="url(#clip380)" d="M2112.53 1517.37 Q2108.92 1517.37 2107.09 1520.93 Q2105.29 1524.47 2105.29 1531.6 Q2105.29 1538.71 2107.09 1542.27 Q2108.92 1545.82 2112.53 1545.82 Q2116.17 1545.82 2117.97 1542.27 Q2119.8 1538.71 2119.8 1531.6 Q2119.8 1524.47 2117.97 1520.93 Q2116.17 1517.37 2112.53 1517.37 M2112.53 1513.66 Q2118.34 1513.66 2121.4 1518.27 Q2124.48 1522.85 2124.48 1531.6 Q2124.48 1540.33 2121.4 1544.94 Q2118.34 1549.52 2112.53 1549.52 Q2106.72 1549.52 2103.64 1544.94 Q2100.59 1540.33 2100.59 1531.6 Q2100.59 1522.85 2103.64 1518.27 Q2106.72 1513.66 2112.53 1513.66 Z" fill="#000000" fill-rule="evenodd" fill-opacity="1" /><path clip-path="url(#clip380)" d="M2132.69 1542.97 L2137.58 1542.97 L2137.58 1548.85 L2132.69 1548.85 L2132.69 1542.97 Z" fill="#000000" fill-rule="evenodd" fill-opacity="1" /><path clip-path="url(#clip380)" d="M2160.61 1518.36 L2148.8 1536.81 L2160.61 1536.81 L2160.61 1518.36 M2159.38 1514.29 L2165.26 1514.29 L2165.26 1536.81 L2170.19 1536.81 L2170.19 1540.7 L2165.26 1540.7 L2165.26 1548.85 L2160.61 1548.85 L2160.61 1540.7 L2145.01 1540.7 L2145.01 1536.19 L2159.38 1514.29 Z" fill="#000000" fill-rule="evenodd" fill-opacity="1" /><polyline clip-path="url(#clip382)" style="stroke:#000000; stroke-linecap:butt; stroke-linejoin:round; stroke-width:2; stroke-opacity:0.1; fill:none" points="
  192.941,1304.04 2352.76,1304.04 
  "/>
<polyline clip-path="url(#clip382)" style="stroke:#000000; stroke-linecap:butt; stroke-linejoin:round; stroke-width:2; stroke-opacity:0.1; fill:none" points="
  192.941,984.329 2352.76,984.329 
  "/>
<polyline clip-path="url(#clip382)" style="stroke:#000000; stroke-linecap:butt; stroke-linejoin:round; stroke-width:2; stroke-opacity:0.1; fill:none" points="
  192.941,664.622 2352.76,664.622 
  "/>
<polyline clip-path="url(#clip382)" style="stroke:#000000; stroke-linecap:butt; stroke-linejoin:round; stroke-width:2; stroke-opacity:0.1; fill:none" points="
  192.941,344.915 2352.76,344.915 
  "/>
<polyline clip-path="url(#clip380)" style="stroke:#000000; stroke-linecap:butt; stroke-linejoin:round; stroke-width:4; stroke-opacity:1; fill:none" points="
  192.941,1486.45 192.941,47.2441 
  "/>
<polyline clip-path="url(#clip380)" style="stroke:#000000; stroke-linecap:butt; stroke-linejoin:round; stroke-width:4; stroke-opacity:1; fill:none" points="
  192.941,1304.04 211.838,1304.04 
  "/>
<polyline clip-path="url(#clip380)" style="stroke:#000000; stroke-linecap:butt; stroke-linejoin:round; stroke-width:4; stroke-opacity:1; fill:none" points="
  192.941,984.329 211.838,984.329 
  "/>
<polyline clip-path="url(#clip380)" style="stroke:#000000; stroke-linecap:butt; stroke-linejoin:round; stroke-width:4; stroke-opacity:1; fill:none" points="
  192.941,664.622 211.838,664.622 
  "/>
<polyline clip-path="url(#clip380)" style="stroke:#000000; stroke-linecap:butt; stroke-linejoin:round; stroke-width:4; stroke-opacity:1; fill:none" points="
  192.941,344.915 211.838,344.915 
  "/>
<path clip-path="url(#clip380)" d="M50.9921 1304.49 L80.6679 1304.49 L80.6679 1308.42 L50.9921 1308.42 L50.9921 1304.49 Z" fill="#000000" fill-rule="evenodd" fill-opacity="1" /><path clip-path="url(#clip380)" d="M100.76 1289.83 Q97.1493 1289.83 95.3206 1293.4 Q93.515 1296.94 93.515 1304.07 Q93.515 1311.18 95.3206 1314.74 Q97.1493 1318.28 100.76 1318.28 Q104.395 1318.28 106.2 1314.74 Q108.029 1311.18 108.029 1304.07 Q108.029 1296.94 106.2 1293.4 Q104.395 1289.83 100.76 1289.83 M100.76 1286.13 Q106.571 1286.13 109.626 1290.74 Q112.705 1295.32 112.705 1304.07 Q112.705 1312.8 109.626 1317.4 Q106.571 1321.99 100.76 1321.99 Q94.9502 1321.99 91.8715 1317.4 Q88.816 1312.8 88.816 1304.07 Q88.816 1295.32 91.8715 1290.74 Q94.9502 1286.13 100.76 1286.13 Z" fill="#000000" fill-rule="evenodd" fill-opacity="1" /><path clip-path="url(#clip380)" d="M120.922 1315.44 L125.807 1315.44 L125.807 1321.32 L120.922 1321.32 L120.922 1315.44 Z" fill="#000000" fill-rule="evenodd" fill-opacity="1" /><path clip-path="url(#clip380)" d="M136.038 1286.76 L154.394 1286.76 L154.394 1290.69 L140.32 1290.69 L140.32 1299.16 Q141.339 1298.82 142.357 1298.65 Q143.376 1298.47 144.394 1298.47 Q150.181 1298.47 153.561 1301.64 Q156.941 1304.81 156.941 1310.23 Q156.941 1315.81 153.468 1318.91 Q149.996 1321.99 143.677 1321.99 Q141.501 1321.99 139.232 1321.62 Q136.987 1321.25 134.58 1320.51 L134.58 1315.81 Q136.663 1316.94 138.885 1317.5 Q141.107 1318.05 143.584 1318.05 Q147.589 1318.05 149.927 1315.95 Q152.265 1313.84 152.265 1310.23 Q152.265 1306.62 149.927 1304.51 Q147.589 1302.4 143.584 1302.4 Q141.709 1302.4 139.834 1302.82 Q137.982 1303.24 136.038 1304.12 L136.038 1286.76 Z" fill="#000000" fill-rule="evenodd" fill-opacity="1" /><path clip-path="url(#clip380)" d="M99.765 970.127 Q96.1539 970.127 94.3252 973.692 Q92.5197 977.234 92.5197 984.363 Q92.5197 991.47 94.3252 995.035 Q96.1539 998.576 99.765 998.576 Q103.399 998.576 105.205 995.035 Q107.033 991.47 107.033 984.363 Q107.033 977.234 105.205 973.692 Q103.399 970.127 99.765 970.127 M99.765 966.424 Q105.575 966.424 108.631 971.03 Q111.709 975.614 111.709 984.363 Q111.709 993.09 108.631 997.697 Q105.575 1002.28 99.765 1002.28 Q93.9549 1002.28 90.8762 997.697 Q87.8206 993.09 87.8206 984.363 Q87.8206 975.614 90.8762 971.03 Q93.9549 966.424 99.765 966.424 Z" fill="#000000" fill-rule="evenodd" fill-opacity="1" /><path clip-path="url(#clip380)" d="M119.927 995.729 L124.811 995.729 L124.811 1001.61 L119.927 1001.61 L119.927 995.729 Z" fill="#000000" fill-rule="evenodd" fill-opacity="1" /><path clip-path="url(#clip380)" d="M144.996 970.127 Q141.385 970.127 139.556 973.692 Q137.751 977.234 137.751 984.363 Q137.751 991.47 139.556 995.035 Q141.385 998.576 144.996 998.576 Q148.63 998.576 150.436 995.035 Q152.265 991.47 152.265 984.363 Q152.265 977.234 150.436 973.692 Q148.63 970.127 144.996 970.127 M144.996 966.424 Q150.806 966.424 153.862 971.03 Q156.941 975.614 156.941 984.363 Q156.941 993.09 153.862 997.697 Q150.806 1002.28 144.996 1002.28 Q139.186 1002.28 136.107 997.697 Q133.052 993.09 133.052 984.363 Q133.052 975.614 136.107 971.03 Q139.186 966.424 144.996 966.424 Z" fill="#000000" fill-rule="evenodd" fill-opacity="1" /><path clip-path="url(#clip380)" d="M100.76 650.421 Q97.1493 650.421 95.3206 653.985 Q93.515 657.527 93.515 664.657 Q93.515 671.763 95.3206 675.328 Q97.1493 678.869 100.76 678.869 Q104.395 678.869 106.2 675.328 Q108.029 671.763 108.029 664.657 Q108.029 657.527 106.2 653.985 Q104.395 650.421 100.76 650.421 M100.76 646.717 Q106.571 646.717 109.626 651.323 Q112.705 655.907 112.705 664.657 Q112.705 673.383 109.626 677.99 Q106.571 682.573 100.76 682.573 Q94.9502 682.573 91.8715 677.99 Q88.816 673.383 88.816 664.657 Q88.816 655.907 91.8715 651.323 Q94.9502 646.717 100.76 646.717 Z" fill="#000000" fill-rule="evenodd" fill-opacity="1" /><path clip-path="url(#clip380)" d="M120.922 676.022 L125.807 676.022 L125.807 681.902 L120.922 681.902 L120.922 676.022 Z" fill="#000000" fill-rule="evenodd" fill-opacity="1" /><path clip-path="url(#clip380)" d="M136.038 647.342 L154.394 647.342 L154.394 651.277 L140.32 651.277 L140.32 659.749 Q141.339 659.402 142.357 659.24 Q143.376 659.055 144.394 659.055 Q150.181 659.055 153.561 662.226 Q156.941 665.397 156.941 670.814 Q156.941 676.393 153.468 679.494 Q149.996 682.573 143.677 682.573 Q141.501 682.573 139.232 682.203 Q136.987 681.832 134.58 681.092 L134.58 676.393 Q136.663 677.527 138.885 678.082 Q141.107 678.638 143.584 678.638 Q147.589 678.638 149.927 676.531 Q152.265 674.425 152.265 670.814 Q152.265 667.203 149.927 665.096 Q147.589 662.99 143.584 662.99 Q141.709 662.99 139.834 663.407 Q137.982 663.823 136.038 664.703 L136.038 647.342 Z" fill="#000000" fill-rule="evenodd" fill-opacity="1" /><path clip-path="url(#clip380)" d="M90.5752 358.26 L98.2141 358.26 L98.2141 331.894 L89.904 333.561 L89.904 329.302 L98.1678 327.635 L102.844 327.635 L102.844 358.26 L110.483 358.26 L110.483 362.195 L90.5752 362.195 L90.5752 358.26 Z" fill="#000000" fill-rule="evenodd" fill-opacity="1" /><path clip-path="url(#clip380)" d="M119.927 356.315 L124.811 356.315 L124.811 362.195 L119.927 362.195 L119.927 356.315 Z" fill="#000000" fill-rule="evenodd" fill-opacity="1" /><path clip-path="url(#clip380)" d="M144.996 330.714 Q141.385 330.714 139.556 334.278 Q137.751 337.82 137.751 344.95 Q137.751 352.056 139.556 355.621 Q141.385 359.163 144.996 359.163 Q148.63 359.163 150.436 355.621 Q152.265 352.056 152.265 344.95 Q152.265 337.82 150.436 334.278 Q148.63 330.714 144.996 330.714 M144.996 327.01 Q150.806 327.01 153.862 331.616 Q156.941 336.2 156.941 344.95 Q156.941 353.676 153.862 358.283 Q150.806 362.866 144.996 362.866 Q139.186 362.866 136.107 358.283 Q133.052 353.676 133.052 344.95 Q133.052 336.2 136.107 331.616 Q139.186 327.01 144.996 327.01 Z" fill="#000000" fill-rule="evenodd" fill-opacity="1" /><polyline clip-path="url(#clip382)" style="stroke:#009af9; stroke-linecap:butt; stroke-linejoin:round; stroke-width:4; stroke-opacity:1; fill:none" points="
  2137.53,919.299 2139.67,918.199 2141.81,917.096 2143.94,915.986 2146.07,914.869 2148.19,913.746 2150.31,912.615 2152.42,911.478 2154.52,910.334 2156.63,909.183 
  2158.72,908.024 2160.81,906.859 2162.89,905.686 2164.97,904.505 2167.04,903.318 2169.1,902.122 2171.15,900.92 2173.2,899.71 2175.24,898.492 2177.28,897.267 
  2179.3,896.033 2181.32,894.792 2183.33,893.543 2185.33,892.286 2187.32,891.021 2189.3,889.748 2191.28,888.466 2193.24,887.176 2195.19,885.878 2197.13,884.571 
  2199.06,883.255 2200.98,881.931 2202.89,880.598 2204.79,879.256 2206.67,877.905 2208.55,876.546 2210.41,875.177 2212.25,873.799 2214.09,872.412 2215.91,871.015 
  2217.71,869.609 2219.51,868.194 2221.29,866.769 2223.05,865.334 2224.8,863.89 2226.53,862.436 2228.25,860.972 2229.95,859.498 2231.64,858.014 2233.31,856.52 
  2234.96,855.015 2236.6,853.5 2238.22,851.975 2239.82,850.44 2241.41,848.894 2242.97,847.337 2244.5,845.768 2246.02,844.189 2247.53,842.599 2249.01,840.998 
  2250.47,839.386 2251.91,837.763 2253.33,836.128 2254.74,834.482 2256.11,832.825 2257.47,831.155 2258.81,829.475 2260.12,827.782 2261.41,826.077 2262.67,824.361 
  2263.91,822.632 2265.12,820.891 2266.31,819.138 2267.47,817.372 2268.61,815.594 2269.72,813.803 2270.8,812 2271.85,810.184 2272.88,808.355 2273.87,806.512 
  2274.84,804.657 2275.77,802.788 2276.68,800.907 2277.55,799.011 2278.4,797.103 2279.21,795.18 2279.99,793.244 2280.73,791.294 2281.44,789.33 2282.12,787.353 
  2282.76,785.361 2283.37,783.354 2283.94,781.334 2284.48,779.299 2284.98,777.25 2285.44,775.185 2285.86,773.107 2286.25,771.013 2286.6,768.905 2286.91,766.781 
  2287.18,764.642 2287.41,762.489 2287.6,760.319 2287.74,758.135 2287.85,755.935 2287.91,753.719 2287.94,751.487 2287.92,749.24 2287.85,746.977 2287.74,744.698 
  2287.59,742.402 2287.39,740.091 2287.15,737.763 2286.86,735.418 2286.52,733.058 2286.13,730.683 2285.7,728.294 2285.21,725.889 2284.68,723.466 2284.09,721.025 
  2283.45,718.567 2282.76,716.09 2282.01,713.595 2281.21,711.083 2280.36,708.552 2279.45,706.003 2278.49,703.437 2277.47,700.852 2276.39,698.249 2275.26,695.629 
  2274.07,692.99 2272.82,690.333 2271.51,687.658 2270.14,684.965 2268.71,682.254 2267.21,679.525 2265.66,676.778 2264.04,674.013 2262.37,671.229 2260.62,668.427 
  2258.82,665.607 2256.94,662.769 2255.01,659.913 2253,657.039 2250.93,654.146 2248.8,651.235 2246.59,648.306 2244.32,645.358 2241.97,642.393 2239.56,639.409 
  2237.08,636.406 2234.52,633.386 2231.9,630.347 2229.2,627.289 2226.43,624.214 2223.58,621.12 2220.66,618.008 2217.67,614.877 2214.6,611.728 2211.45,608.56 
  2208.23,605.374 2204.93,602.17 2201.55,598.947 2198.09,595.706 2194.56,592.446 2190.94,589.168 2187.25,585.871 2183.47,582.556 2179.61,579.222 2175.67,575.87 
  2171.65,572.499 2167.54,569.109 2163.35,565.701 2159.07,562.275 2154.71,558.83 2150.26,555.366 2145.73,551.883 2141.11,548.382 2136.4,544.863 2131.6,541.324 
  2126.71,537.767 2121.74,534.192 2116.67,530.597 2111.51,526.984 2106.3,523.366 2101.07,519.758 2095.77,516.143 2090.36,512.505 2084.84,508.844 2079.22,505.162 
  2073.49,501.459 2067.65,497.736 2061.71,493.992 2055.66,490.229 2049.51,486.448 2043.25,482.648 2036.89,478.831 2030.43,474.997 2023.86,471.147 2017.19,467.281 
  2010.43,463.4 2003.56,459.504 1996.59,455.595 1989.52,451.672 1982.35,447.736 1975.09,443.788 1967.72,439.829 1960.26,435.859 1952.71,431.879 1945.06,427.888 
  1937.31,423.889 1929.47,419.881 1921.53,415.865 1913.5,411.842 1905.38,407.812 1897.17,403.776 1888.87,399.734 1880.47,395.687 1871.98,391.636 1863.41,387.582 
  1854.74,383.524 1845.99,379.463 1837.15,375.4 1828.22,371.337 1819.21,367.272 1810.11,363.207 1800.92,359.143 1791.65,355.079 1782.29,351.017 1772.85,346.958 
  1763.33,342.901 1753.73,338.847 1744.04,334.798 1734.27,330.753 1724.42,326.713 1714.49,322.679 1704.49,318.652 1694.4,314.631 1684.23,310.618 1673.99,306.614 
  1663.67,302.618 1653.28,298.631 1642.8,294.654 1632.26,290.688 1621.63,286.733 1610.94,282.79 1600.17,278.859 1589.33,274.941 1578.41,271.037 1567.43,267.147 
  1556.37,263.271 1545.24,259.411 1534.04,255.567 1522.78,251.739 1511.44,247.929 1500.04,244.136 1488.57,240.361 1477.03,236.606 1465.43,232.87 1453.76,229.154 
  1442.03,225.458 1430.23,221.784 1418.36,218.132 1406.44,214.503 1394.45,210.896 1382.4,207.314 1370.29,203.755 1358.12,200.222 1345.89,196.714 1333.59,193.232 
  1321.26,189.777 1308.93,186.358 1296.62,182.982 1284.29,179.652 1271.93,176.369 1259.54,173.133 1247.13,169.945 1234.7,166.807 1222.25,163.718 1209.79,160.68 
  1197.32,157.693 1184.83,154.758 1172.34,151.876 1159.84,149.047 1147.33,146.273 1134.83,143.554 1122.32,140.891 1109.82,138.285 1097.33,135.736 1084.84,133.245 
  1072.37,130.813 1059.91,128.441 1047.46,126.13 1035.03,123.88 1022.62,121.692 1010.24,119.567 997.879,117.505 985.546,115.508 973.243,113.576 960.973,111.71 
  948.737,109.91 936.538,108.178 924.378,106.515 912.26,104.92 900.186,103.395 888.159,101.94 876.18,100.557 864.253,99.2463 852.38,98.0082 840.562,96.8436 
  828.803,95.7534 817.105,94.7384 805.47,93.7994 793.901,92.937 782.399,92.1521 770.968,91.4455 759.609,90.8179 748.326,90.27 737.12,89.8027 725.994,89.4168 
  714.95,89.1129 703.991,88.8919 693.119,88.7545 682.336,88.7015 671.645,88.7337 661.048,88.8519 650.547,89.0567 640.146,89.349 629.845,89.7296 619.649,90.1992 
  609.558,90.7587 599.576,91.4086 589.705,92.1499 579.947,92.9833 570.304,93.9096 560.78,94.9295 551.375,96.0439 542.094,97.2534 532.937,98.5589 523.908,99.9611 
  515.009,101.461 506.242,103.059 497.61,104.756 489.115,106.552 480.759,108.45 472.545,110.449 464.475,112.549 456.552,114.753 448.777,117.06 441.154,119.472 
  433.685,121.989 426.368,124.611 419.072,127.272 411.738,129.939 404.517,132.679 397.484,135.526 390.637,138.48 383.975,141.538 377.497,144.7 371.203,147.964 
  365.089,151.33 359.156,154.795 353.402,158.358 347.826,162.019 342.427,165.776 337.203,169.628 332.153,173.573 327.276,177.61 322.57,181.739 318.035,185.957 
  313.669,190.264 309.471,194.657 305.44,199.137 301.575,203.702 297.873,208.35 294.335,213.08 290.958,217.891 287.742,222.782 284.685,227.751 281.786,232.797 
  279.044,237.92 276.457,243.117 274.025,248.387 271.746,253.729 269.618,259.143 267.642,264.626 265.815,270.177 264.135,275.795 262.603,281.48 261.217,287.229 
  259.975,293.041 258.876,298.915 257.919,304.85 257.103,310.845 256.426,316.898 255.887,323.008 255.486,329.174 255.22,335.394 255.089,341.668 255.091,347.993 
  255.225,354.37 255.491,360.795 255.885,367.27 256.408,373.791 257.058,380.358 257.834,386.969 258.735,393.623 259.759,400.32 260.905,407.057 262.172,413.834 
  263.559,420.649 265.064,427.501 266.687,434.388 268.425,441.31 270.278,448.265 272.245,455.252 274.324,462.269 276.514,469.316 278.814,476.392 281.222,483.493 
  283.738,490.621 286.36,497.773 289.086,504.948 291.916,512.145 294.849,519.362 297.883,526.599 301.016,533.854 304.249,541.126 307.578,548.413 311.004,555.715 
  314.525,563.029 318.14,570.356 321.847,577.693 325.645,585.039 329.533,592.393 333.51,599.754 337.575,607.12 341.725,614.491 345.961,621.865 350.281,629.24 
  354.683,636.616 359.167,643.991 363.731,651.364 368.373,658.734 373.093,666.099 377.89,673.459 382.762,680.812 387.703,688.189 392.696,695.596 397.725,702.993 
  402.789,710.363 407.886,717.706 413.015,725.021 418.177,732.308 423.369,739.567 428.591,746.798 433.842,754 439.122,761.173 444.43,768.316 449.764,775.431 
  455.124,782.515 460.51,789.57 465.92,796.594 471.353,803.588 476.81,810.551 482.288,817.483 487.787,824.383 493.307,831.252 498.846,838.09 504.403,844.895 
  509.979,851.668 515.572,858.408 521.181,865.115 526.805,871.789 532.444,878.43 538.097,885.037 543.763,891.611 549.441,898.15 555.13,904.654 560.83,911.124 
  566.54,917.559 572.259,923.959 577.986,930.323 583.72,936.652 589.46,942.944 595.206,949.201 600.958,955.42 606.713,961.603 612.471,967.749 618.232,973.858 
  623.995,979.929 629.758,985.962 635.521,991.957 641.284,997.914 647.044,1003.83 652.803,1009.71 658.558,1015.55 664.309,1021.35 670.055,1027.11 675.796,1032.83 
  681.53,1038.52 687.256,1044.16 692.975,1049.76 698.684,1055.31 704.384,1060.83 710.073,1066.31 715.751,1071.74 721.417,1077.14 727.069,1082.49 732.708,1087.79 
  738.332,1093.06 743.941,1098.28 749.534,1103.46 755.109,1108.59 760.666,1113.68 766.205,1118.73 771.724,1123.73 777.223,1128.69 782.701,1133.6 788.157,1138.47 
  793.59,1143.29 799,1148.07 804.385,1152.8 809.745,1157.49 815.078,1162.13 820.385,1166.72 825.665,1171.26 830.916,1175.76 836.137,1180.21 841.329,1184.61 
  846.49,1188.97 851.619,1193.27 856.715,1197.53 861.778,1201.74 866.807,1205.9 871.801,1210.01 876.76,1214.07 881.681,1218.08 886.565,1222.04 891.412,1225.95 
  896.219,1229.81 900.986,1233.62 905.712,1237.37 910.397,1241.08 915.04,1244.74 919.64,1248.34 924.196,1251.89 928.707,1255.39 933.172,1258.83 937.592,1262.22 
  941.964,1265.56 946.288,1268.85 950.595,1272.1 954.977,1275.35 959.412,1278.61 963.818,1281.83 968.192,1285.01 972.533,1288.15 976.841,1291.25 981.117,1294.31 
  985.36,1297.33 989.571,1300.31 993.75,1303.25 997.898,1306.16 1002.01,1309.03 1006.1,1311.85 1010.15,1314.64 1014.17,1317.4 1018.16,1320.11 1022.12,1322.79 
  1026.05,1325.43 1029.95,1328.03 1033.82,1330.6 1037.66,1333.13 1041.47,1335.63 1045.25,1338.09 1049,1340.51 1052.72,1342.9 1056.41,1345.26 1060.07,1347.58 
  1063.7,1349.86 1067.31,1352.12 1070.89,1354.33 1074.43,1356.52 1077.95,1358.67 1081.44,1360.78 1084.91,1362.87 1088.34,1364.92 1091.75,1366.94 1095.13,1368.92 
  1098.49,1370.88 1101.81,1372.8 1105.11,1374.69 1108.39,1376.55 1111.63,1378.38 1114.86,1380.18 1118.05,1381.95 1121.22,1383.68 1124.36,1385.39 1127.48,1387.07 
  1130.57,1388.71 1133.64,1390.33 1136.68,1391.92 1139.7,1393.48 1142.69,1395.01 1145.66,1396.52 1148.6,1397.99 1151.52,1399.44 1154.41,1400.86 1157.28,1402.25 
  1160.13,1403.62 1162.96,1404.96 1165.76,1406.27 1168.53,1407.55 1171.29,1408.81 1174.02,1410.05 1176.73,1411.25 1179.41,1412.43 1182.08,1413.59 1184.72,1414.72 
  1187.34,1415.83 1189.94,1416.91 1192.51,1417.97 1195.07,1419.01 1197.6,1420.02 1200.12,1421 1202.61,1421.97 1205.08,1422.91 1207.53,1423.83 1209.96,1424.72 
  1212.37,1425.6 1214.76,1426.45 1217.13,1427.28 1219.48,1428.09 1221.81,1428.87 1224.12,1429.64 1226.41,1430.38 1228.69,1431.11 1230.94,1431.81 1233.18,1432.5 
  1235.39,1433.16 1237.59,1433.81 1239.77,1434.43 1241.93,1435.04 1244.08,1435.62 1246.2,1436.19 1248.31,1436.74 1250.41,1437.27 1252.48,1437.79 1254.54,1438.29 
  1256.58,1438.76 1258.61,1439.23 1260.61,1439.67 1262.61,1440.1 1264.58,1440.51 1266.54,1440.91 1268.49,1441.29 1270.41,1441.65 1272.33,1442 1274.22,1442.33 
  1276.11,1442.65 1277.98,1442.96 1279.83,1443.25 1281.67,1443.52 1283.49,1443.78 1285.3,1444.03 1287.07,1444.24 1288.81,1444.43 1290.54,1444.61 1292.25,1444.77 
  1293.95,1444.92 1295.63,1445.05 1297.3,1445.17 1298.96,1445.28 1300.6,1445.38 1302.23,1445.47 1303.85,1445.54 1305.45,1445.6 1307.04,1445.65 1308.62,1445.68 
  1310.18,1445.7 1311.73,1445.72 1313.27,1445.72 1314.8,1445.7 1316.31,1445.68 1317.81,1445.64 1319.3,1445.6 1320.77,1445.54 1322.24,1445.47 1323.69,1445.39 
  1325.13,1445.3 1326.56,1445.2 1327.97,1445.08 1329.38,1444.96 1330.77,1444.83 1332.15,1444.68 1333.52,1444.53 1334.88,1444.36 1336.23,1444.19 1337.57,1444 
  1338.89,1443.81 1340.21,1443.6 1341.51,1443.38 1342.8,1443.16 1344.08,1442.92 1345.35,1442.68 1346.61,1442.43 1347.86,1442.16 1349.1,1441.89 1350.33,1441.61 
  1351.55,1441.32 1352.76,1441.02 1353.96,1440.72 1355.15,1440.4 1356.33,1440.08 1357.5,1439.74 1358.66,1439.4 1359.82,1439.05 1360.96,1438.69 1362.09,1438.33 
  1363.21,1437.95 1364.33,1437.57 1365.43,1437.18 1366.53,1436.79 1367.62,1436.38 1368.7,1435.97 1369.77,1435.55 1370.83,1435.12 1371.88,1434.69 1372.93,1434.25 
  1373.96,1433.8 1374.99,1433.35 1376.01,1432.89 1377.03,1432.42 1378.03,1431.94 1379.03,1431.46 1380.02,1430.98 1381,1430.48 1381.97,1429.98 1382.94,1429.48 
  1383.9,1428.97 1384.85,1428.45 1385.79,1427.93 1386.73,1427.4 1387.66,1426.87 1388.59,1426.33 1389.5,1425.78 1390.41,1425.23 1391.32,1424.68 1392.22,1424.12 
  1393.11,1423.55 1393.99,1422.99 1394.87,1422.41 1395.74,1421.83 1396.61,1421.25 1397.47,1420.66 1398.32,1420.07 1399.17,1419.48 1400.02,1418.88 1400.85,1418.27 
  1401.69,1417.67 1402.51,1417.05 1403.33,1416.44 1404.15,1415.82 1404.96,1415.2 1405.77,1414.57 1406.57,1413.95 1407.37,1413.31 1408.16,1412.68 1408.95,1412.04 
  1409.73,1411.4 1410.51,1410.76 1411.28,1410.11 1412.05,1409.46 1412.82,1408.81 1413.58,1408.16 1414.34,1407.51 1415.09,1406.85 1415.84,1406.19 1416.59,1405.53 
  1417.33,1404.86 1418.07,1404.2 1418.8,1403.53 1419.54,1402.87 1420.26,1402.19 1420.97,1401.51 1421.67,1400.81 1422.37,1400.11 1423.06,1399.41 1423.75,1398.71 
  1424.43,1398 1425.11,1397.3 1425.79,1396.59 1426.46,1395.87 1427.13,1395.16 1427.79,1394.45 1428.46,1393.73 1429.11,1393.01 1429.77,1392.29 1430.42,1391.56 
  1431.07,1390.84 1431.71,1390.11 1432.35,1389.38 1432.99,1388.65 1433.63,1387.92 1434.26,1387.19 1434.88,1386.45 1435.51,1385.72 1436.13,1384.98 1436.75,1384.24 
  1437.36,1383.49 1437.98,1382.75 1438.58,1382 1439.19,1381.26 1439.79,1380.51 1440.39,1379.76 1440.99,1379.01 1441.58,1378.26 1442.17,1377.5 1442.76,1376.75 
  1443.34,1375.99 1443.93,1375.23 1444.51,1374.47 1445.08,1373.71 1445.66,1372.95 1446.23,1372.18 1446.79,1371.42 1447.36,1370.65 1447.92,1369.89 1448.48,1369.12 
  1449.04,1368.35 1449.6,1367.58 1450.15,1366.81 1450.7,1366.04 1451.25,1365.26 1451.79,1364.49 1452.33,1363.71 1452.87,1362.94 1453.41,1362.16 1453.95,1361.38 
  1454.48,1360.6 1455.01,1359.82 1455.54,1359.04 1456.07,1358.26 1456.59,1357.48 1457.12,1356.7 1457.64,1355.91 1458.15,1355.13 1458.67,1354.34 1459.18,1353.56 
  1459.7,1352.77 1460.21,1351.98 1460.71,1351.2 1461.22,1350.41 1461.72,1349.62 1462.23,1348.83 1462.73,1348.04 1463.23,1347.25 1463.72,1346.46 1464.22,1345.67 
  1464.71,1344.88 1465.2,1344.09 1465.69,1343.3 1466.18,1342.51 1466.67,1341.71 1467.16,1340.92 1467.64,1340.13 1468.12,1339.34 1468.6,1338.54 1469.08,1337.75 
  1469.56,1336.96 1470.04,1336.17 1470.51,1335.37 1470.99,1334.58 1471.46,1333.79 1471.93,1332.99 1472.4,1332.2 1472.87,1331.41 1473.34,1330.61 1473.8,1329.82 
  1474.27,1329.03 1474.73,1328.23 1475.2,1327.44 1475.66,1326.65 1476.12,1325.86 1476.58,1325.07 1477.04,1324.27 1477.5,1323.48 1477.96,1322.69 1478.41,1321.9 
  1478.87,1321.11 1479.32,1320.32 1479.78,1319.53 1480.23,1318.75 1480.68,1317.96 1481.14,1317.17 1481.59,1316.38 1482.04,1315.6 1482.49,1314.81 1482.94,1314.02 
  1483.39,1313.24 1483.84,1312.46 1484.28,1311.67 1484.73,1310.89 1485.18,1310.11 1485.62,1309.33 1486.07,1308.55 1486.52,1307.77 1486.96,1306.99 1487.41,1306.21 
  1487.85,1305.43 1488.3,1304.66 1488.74,1303.88 1489.19,1303.11 1489.63,1302.34 1490.07,1301.56 1490.51,1300.78 1490.95,1300.01 1491.39,1299.23 1491.83,1298.45 
  1492.27,1297.67 1492.71,1296.9 1493.14,1296.12 1493.58,1295.35 1494.02,1294.57 1494.46,1293.8 1494.89,1293.03 1495.33,1292.26 1495.77,1291.49 1496.21,1290.72 
  1496.64,1289.95 1497.08,1289.18 1497.52,1288.41 1497.95,1287.64 1498.39,1286.88 1498.83,1286.11 1499.26,1285.35 1499.7,1284.58 1500.14,1283.82 1500.57,1283.06 
  1501.01,1282.3 1501.45,1281.53 1501.88,1280.77 1502.32,1280.01 1502.76,1279.26 1503.19,1278.5 1503.63,1277.74 1504.07,1276.98 1504.51,1276.23 1504.95,1275.47 
  1505.38,1274.72 1505.82,1273.97 1506.26,1273.21 1506.7,1272.46 1507.14,1271.71 1507.58,1270.96 1508.02,1270.21 1508.46,1269.46 1508.9,1268.72 1509.34,1267.97 
  1509.78,1267.22 1510.22,1266.48 1510.66,1265.73 1511.11,1264.99 1511.55,1264.25 1511.99,1263.5 1512.43,1262.76 1512.88,1262.02 1513.32,1261.28 1513.77,1260.55 
  1514.21,1259.81 1514.66,1259.07 1515.11,1258.33 1515.55,1257.6 1516,1256.86 1516.45,1256.13 1516.9,1255.4 1517.35,1254.67 1517.8,1253.94 1518.25,1253.21 
  1518.7,1252.48 1519.15,1251.75 1519.6,1251.02 1520.06,1250.29 1520.51,1249.57 1520.96,1248.84 1521.42,1248.12 1521.88,1247.4 1522.33,1246.67 1522.79,1245.95 
  1523.25,1245.23 1523.71,1244.51 1524.17,1243.79 1524.63,1243.07 1525.09,1242.36 1525.55,1241.64 1526.02,1240.93 1526.48,1240.21 1526.95,1239.5 1527.41,1238.79 
  1527.88,1238.07 1528.35,1237.36 1528.82,1236.65 1529.29,1235.95 1529.76,1235.24 1530.23,1234.53 1530.7,1233.82 1531.18,1233.12 1531.65,1232.42 1532.13,1231.71 
  1532.61,1231.01 1533.09,1230.31 1533.57,1229.61 1534.05,1228.91 1534.53,1228.21 1535.01,1227.51 1535.49,1226.82 1535.98,1226.12 1536.47,1225.42 1536.95,1224.73 
  1537.44,1224.04 1537.93,1223.35 1538.42,1222.66 1538.92,1221.97 1539.41,1221.28 1539.91,1220.59 1540.4,1219.9 1540.9,1219.21 1541.4,1218.53 1541.9,1217.85 
  1542.4,1217.16 1542.91,1216.48 1543.41,1215.8 1543.92,1215.12 1544.43,1214.44 1544.93,1213.76 1545.45,1213.08 1545.96,1212.41 1546.47,1211.73 1546.99,1211.06 
  1547.5,1210.39 1548.02,1209.71 1548.54,1209.04 1549.06,1208.37 1549.58,1207.7 1550.11,1207.03 1550.63,1206.37 1551.16,1205.7 1551.69,1205.04 1552.22,1204.37 
  1552.76,1203.71 1553.29,1203.05 1553.83,1202.39 1554.36,1201.73 1554.9,1201.07 1555.44,1200.41 1555.99,1199.75 1556.53,1199.1 1557.08,1198.44 1557.63,1197.79 
  1558.18,1197.13 1558.73,1196.48 1559.29,1195.82 1559.84,1195.17 1560.4,1194.52 1560.96,1193.87 1561.53,1193.22 1562.09,1192.57 1562.66,1191.92 1563.23,1191.27 
  1563.8,1190.62 1564.37,1189.98 1564.94,1189.33 1565.52,1188.69 1566.09,1188.05 1566.67,1187.41 1567.26,1186.77 1567.84,1186.13 1568.43,1185.49 1569.01,1184.85 
  1569.6,1184.21 1570.2,1183.58 1570.79,1182.94 1571.39,1182.31 1571.98,1181.68 1572.58,1181.04 1573.19,1180.41 1573.79,1179.78 1574.4,1179.15 1575.01,1178.52 
  1575.62,1177.9 1576.23,1177.27 1576.85,1176.64 1577.47,1176.02 1578.09,1175.39 1578.71,1174.77 1579.33,1174.15 1579.96,1173.53 1580.59,1172.91 1581.22,1172.29 
  1581.86,1171.67 1582.49,1171.05 1583.13,1170.43 1583.77,1169.82 1584.42,1169.2 1585.06,1168.58 1585.71,1167.97 1586.36,1167.36 1587.02,1166.74 1587.68,1166.13 
  1588.33,1165.52 1589,1164.91 1589.66,1164.3 1590.33,1163.69 1591,1163.09 1591.67,1162.48 1592.34,1161.87 1593.02,1161.27 1593.7,1160.66 1594.39,1160.06 
  1595.07,1159.45 1595.76,1158.85 1596.45,1158.25 1597.14,1157.65 1597.84,1157.05 1598.54,1156.45 1599.24,1155.85 1599.95,1155.25 1600.66,1154.65 1601.37,1154.06 
  1602.08,1153.46 1602.8,1152.86 1603.52,1152.27 1604.24,1151.68 1604.97,1151.08 1605.7,1150.49 1606.43,1149.9 1607.16,1149.3 1607.9,1148.71 1608.64,1148.12 
  1609.38,1147.53 1610.13,1146.94 1610.88,1146.36 1611.63,1145.77 1612.39,1145.18 1613.15,1144.59 1613.91,1144.01 1614.68,1143.42 1615.45,1142.84 1616.22,1142.25 
  1616.99,1141.67 1617.77,1141.09 1618.55,1140.5 1619.34,1139.92 1620.13,1139.34 1620.92,1138.76 1621.72,1138.18 1622.51,1137.6 1623.32,1137.02 1624.12,1136.44 
  1624.93,1135.87 1625.74,1135.29 1626.56,1134.71 1627.38,1134.13 1628.2,1133.56 1629.02,1132.98 1629.85,1132.41 1630.69,1131.83 1631.52,1131.26 1632.36,1130.69 
  1633.21,1130.11 1634.05,1129.54 1634.91,1128.97 1635.76,1128.4 1636.62,1127.83 1637.48,1127.25 1638.35,1126.68 1639.21,1126.11 1640.09,1125.55 1640.96,1124.98 
  1641.84,1124.41 1642.73,1123.84 1643.62,1123.27 1644.51,1122.71 1645.4,1122.14 1646.3,1121.57 1647.21,1121.01 1648.11,1120.44 1649.02,1119.88 1649.94,1119.31 
  1650.86,1118.75 1651.78,1118.18 1652.71,1117.62 1653.64,1117.06 1654.57,1116.49 1655.51,1115.93 1656.45,1115.37 1657.4,1114.81 1658.35,1114.24 1659.31,1113.68 
  1660.27,1113.12 1661.23,1112.56 1662.2,1112 1663.17,1111.44 1664.14,1110.88 1665.12,1110.32 1666.1,1109.76 1667.09,1109.21 1668.09,1108.65 1669.08,1108.09 
  1670.08,1107.53 1671.09,1106.97 1672.1,1106.42 1673.11,1105.86 1674.13,1105.3 1675.15,1104.75 1676.18,1104.19 1677.21,1103.63 1678.24,1103.08 1679.28,1102.52 
  1680.33,1101.97 1681.37,1101.41 1682.43,1100.86 1683.49,1100.3 1684.55,1099.75 1685.61,1099.2 1686.68,1098.64 1687.76,1098.09 1688.84,1097.53 1689.93,1096.98 
  1691.01,1096.43 1692.11,1095.87 1693.21,1095.32 1694.31,1094.77 1695.42,1094.22 1696.53,1093.66 1697.65,1093.11 1698.77,1092.56 1699.9,1092.01 1701.03,1091.46 
  1702.16,1090.9 1703.3,1090.35 1704.45,1089.8 1705.6,1089.25 1706.76,1088.7 1707.92,1088.15 1709.08,1087.6 1710.25,1087.05 1711.43,1086.49 1712.61,1085.94 
  1713.79,1085.39 1714.96,1084.84 1716.11,1084.27 1717.25,1083.7 1718.4,1083.13 1719.55,1082.57 1720.72,1082 1721.89,1081.43 1723.07,1080.87 1724.25,1080.3 
  1725.45,1079.74 1726.65,1079.17 1727.86,1078.61 1729.07,1078.05 1730.3,1077.48 1731.53,1076.92 1732.77,1076.36 1734.01,1075.8 1735.26,1075.24 1736.52,1074.68 
  1737.79,1074.12 1739.06,1073.56 1740.34,1073 1741.63,1072.44 1742.93,1071.88 1744.23,1071.32 1745.54,1070.76 1746.86,1070.2 1748.18,1069.64 1749.51,1069.08 
  1750.85,1068.53 1752.19,1067.97 1753.55,1067.41 1754.9,1066.85 1756.27,1066.29 1757.64,1065.73 1759.02,1065.18 1760.41,1064.62 1761.8,1064.06 1763.2,1063.5 
  1764.6,1062.94 1766.02,1062.38 1767.44,1061.82 1768.86,1061.26 1770.29,1060.7 1771.73,1060.15 1773.18,1059.58 1774.63,1059.02 1776.09,1058.46 1777.56,1057.9 
  1779.03,1057.34 1780.51,1056.78 1781.99,1056.22 1783.48,1055.65 1784.98,1055.09 1786.49,1054.52 1788,1053.96 1789.51,1053.39 1791.04,1052.83 1792.57,1052.26 
  1794.1,1051.7 1795.64,1051.13 1797.19,1050.56 1798.74,1049.99 1800.3,1049.42 1801.87,1048.85 1803.44,1048.28 1805.02,1047.71 1806.61,1047.13 1808.2,1046.56 
  1809.79,1045.98 1811.4,1045.41 1813.01,1044.83 1814.62,1044.25 1816.24,1043.68 1817.87,1043.1 1819.5,1042.51 1821.14,1041.93 1822.78,1041.35 1824.43,1040.77 
  1826.09,1040.18 1827.75,1039.59 1829.41,1039.01 1831.09,1038.42 1832.77,1037.83 1834.45,1037.24 1836.14,1036.64 1837.83,1036.05 1839.53,1035.46 1841.24,1034.86 
  1842.95,1034.26 1844.67,1033.66 1846.39,1033.06 1848.12,1032.46 1849.85,1031.86 1851.59,1031.25 1853.34,1030.64 1855.09,1030.04 1856.84,1029.43 1858.6,1028.82 
  1860.37,1028.2 1862.14,1027.59 1863.92,1026.97 1865.7,1026.35 1867.48,1025.73 1869.27,1025.11 1871.07,1024.49 1872.87,1023.86 1874.68,1023.24 1876.49,1022.61 
  1878.31,1021.98 1880.13,1021.35 1881.96,1020.71 1883.79,1020.08 1885.63,1019.44 1887.47,1018.8 1889.32,1018.15 1891.17,1017.51 1893.03,1016.86 1894.89,1016.22 
  1896.75,1015.56 1898.62,1014.91 1900.5,1014.26 1902.38,1013.6 1904.26,1012.94 1906.15,1012.28 1908.05,1011.62 1909.95,1010.95 1911.85,1010.28 1913.76,1009.61 
  1915.67,1008.94 1917.59,1008.26 1919.51,1007.58 1921.44,1006.9 1923.37,1006.22 1925.3,1005.54 1927.24,1004.85 1929.19,1004.16 1931.14,1003.47 1933.09,1002.77 
  1935.05,1002.07 1937.01,1001.37 1938.97,1000.67 1940.94,999.963 1942.92,999.254 1944.9,998.543 1946.88,997.829 1948.86,997.112 1950.85,996.393 1952.85,995.67 
  1954.85,994.945 1956.85,994.217 1958.86,993.486 1960.87,992.752 1962.88,992.015 1964.9,991.275 1966.93,990.532 1968.95,989.786 1970.98,989.037 1973.02,988.285 
  1975.06,987.53 1977.1,986.772 1979.14,986.011 1981.19,985.246 1983.25,984.478 1985.3,983.708 1987.36,982.933 1989.43,982.156 1991.5,981.375 1993.57,980.591 
  1995.64,979.804 1997.72,979.013 1999.81,978.219 2001.89,977.422 2003.98,976.621 2006.07,975.817 2008.17,975.009 2010.27,974.198 2012.37,973.383 2014.48,972.564 
  2016.59,971.742 2018.7,970.917 2020.82,970.088 2022.94,969.255 2025.06,968.418 2027.19,967.578 2029.32,966.734 2031.45,965.886 2033.58,965.035 2035.72,964.179 
  2037.87,963.32 2040.01,962.457 2042.16,961.591 2044.31,960.72 2046.46,959.845 2048.62,958.967 2050.78,958.084 2052.94,957.197 2055.11,956.307 2057.28,955.412 
  2059.45,954.514 2061.63,953.611 2063.8,952.704 2065.98,951.793 2068.17,950.878 2070.35,949.958 2072.54,949.035 2074.73,948.107 2076.93,947.175 2079.12,946.238 
  2081.32,945.298 2083.52,944.353 2085.73,943.403 2087.93,942.45 2090.14,941.491 2092.35,940.529 2094.57,939.562 2096.79,938.59 2099,937.614 2101.23,936.634 
  2103.45,935.648 2105.68,934.659 2107.91,933.664 2110.14,932.665 2112.37,931.662 2114.58,930.65 2116.62,929.61 2118.48,928.541 2120.33,927.462 2122.19,926.379 
  2124.07,925.291 2125.96,924.199 2127.86,923.101 2129.77,921.998 2131.7,920.889 2133.63,919.776 2135.58,918.657 2137.54,917.533 2139.5,916.403 2141.47,915.267 
  2143.46,914.126 2145.45,912.979 2147.44,911.826 2149.45,910.666 2151.46,909.501 2153.47,908.33 2155.49,907.152 2157.52,905.968 2159.55,904.777 2161.58,903.58 
  2163.62,902.376 2165.65,901.165 2167.69,899.948 2169.73,898.724 2171.78,897.492 2173.82,896.254 2175.86,895.008 2177.9,893.755 2179.94,892.494 2181.98,891.226 
  2184.01,889.951 2186.05,888.667 2188.07,887.376 2190.1,886.078 2192.12,884.771 2194.13,883.456 2196.14,882.133 2198.15,880.802 2200.14,879.463 2202.13,878.115 
  2204.11,876.758 2206.09,875.394 2208.05,874.02 2210,872.638 2211.95,871.246 2213.88,869.846 2215.81,868.437 2217.72,867.019 2219.62,865.591 2221.51,864.154 
  2223.38,862.708 2225.24,861.252 2227.09,859.787 2228.92,858.312 2230.73,856.827 2232.53,855.333 2234.32,853.828 2236.08,852.313 2237.83,850.789 2239.57,849.254 
  2241.28,847.708 2242.97,846.153 2244.65,844.587 2246.3,843.01 2247.94,841.422 2249.55,839.824 2251.14,838.215 2252.71,836.595 2254.26,834.964 2255.78,833.322 
  2257.28,831.668 2258.75,830.003 2260.2,828.327 2261.63,826.639 2263.02,824.94 2264.4,823.229 2265.74,821.506 2267.06,819.772 2268.35,818.025 2269.61,816.267 
  2270.84,814.496 2272.04,812.713 2273.21,810.918 2274.35,809.11 2275.46,807.29 2276.54,805.457 2277.58,803.611 2278.59,801.753 2279.57,799.882 2280.52,797.998 
  2281.43,796.101 2282.3,794.19 2283.14,792.267 2283.95,790.33 2284.71,788.379 2285.44,786.416 2286.13,784.438 2286.79,782.447 2287.4,780.442 2287.98,778.423 
  2288.51,776.391 2289.01,774.344 2289.46,772.283 2289.87,770.208 2290.24,768.118 2290.57,766.014 2290.86,763.896 2291.1,761.763 2291.29,759.615 2291.45,757.453 
  2291.55,755.275 2291.61,753.083 2291.63,750.875 2291.6,748.653 2291.52,746.415 2291.39,744.162 2291.22,741.893 2290.99,739.609 2290.72,737.31 2290.39,734.994 
  2290.02,732.663 2289.59,730.316 2289.12,727.953 2288.59,725.574 2288,723.178 2287.37,720.767 2286.68,718.339 2285.94,715.895 2285.14,713.434 2284.28,710.956 
  2283.37,708.462 2282.41,705.951 2281.38,703.424 2280.3,700.879 2279.16,698.317 2277.97,695.738 2276.71,693.142 2275.39,690.528 2274.02,687.897 2272.58,685.248 
  2271.08,682.582 2269.52,679.898 2267.9,677.197 2266.21,674.477 2264.47,671.74 2262.65,668.984 2260.78,666.21 2258.83,663.418 2256.83,660.608 2254.75,657.779 
  2252.61,654.931 2250.4,652.065 2248.13,649.181 2245.78,646.277 2243.37,643.355 2240.89,640.414 2238.34,637.453 2235.72,634.473 2233.02,631.475 2230.26,628.456 
  2227.42,625.419 2224.52,622.361 2221.53,619.285 2218.48,616.188 2215.35,613.072 2212.14,609.936 2208.87,606.779 2205.51,603.603 2202.08,600.406 2198.57,597.19 
  2194.99,593.953 2191.32,590.695 2187.58,587.417 2183.76,584.118 2179.86,580.799 2175.88,577.459 2171.82,574.097 2167.68,570.715 2163.46,567.312 2159.15,563.888 
  2154.76,560.442 2150.29,556.975 2145.74,553.487 2141.1,549.977 2136.38,546.445 2131.57,542.892 2126.67,539.316 2121.69,535.719 2116.62,532.1 2111.47,528.459 
  2106.22,524.796 2100.89,521.11 2095.47,517.402 2089.96,513.672 2084.36,509.919 2078.66,506.143 2072.88,502.345 2067.01,498.524 2061.04,494.68 2054.98,490.812 
  2048.83,486.922 2042.58,483.009 2036.24,479.072 2029.8,475.112 2023.27,471.129 2016.64,467.122 2009.92,463.091 2003.09,459.037 1996.17,454.959 1989.16,450.857 
  1982.1,446.756 1975.09,442.701 1968.05,438.669 1960.87,434.625 1953.56,430.57 1946.13,426.502 1938.57,422.425 1930.88,418.338 1923.07,414.242 1915.14,410.138 
  1907.09,406.026 1898.91,401.909 1890.62,397.785 1882.22,393.656 1873.7,389.524 1865.07,385.388 1856.33,381.249 1847.48,377.108 1838.53,372.967 1829.47,368.825 
  1820.3,364.684 1811.03,360.544 1801.67,356.406 1792.2,352.272 1782.64,348.14 1772.98,344.014 1763.23,339.892 1753.39,335.777 1743.46,331.668 1733.43,327.567 
  1723.33,323.475 1713.13,319.391 1702.86,315.318 1692.5,311.255 1682.06,307.204 1671.55,303.165 1660.95,299.14 1650.28,295.128 1639.54,291.13 1628.73,287.149 
  1617.85,283.183 1606.9,279.235 1595.88,275.304 1584.8,271.392 1573.65,267.499 1562.45,263.627 1551.18,259.775 1539.86,255.945 1528.47,252.138 1517.04,248.354 
  1505.55,244.594 1494.01,240.859 1482.42,237.149 1470.78,233.466 1459.1,229.81 1447.37,226.183 1435.6,222.584 1423.78,219.014 1411.93,215.475 1400.04,211.967 
  1388.12,208.491 1376.15,205.048 1364.16,201.638 1352.14,198.262 1340.08,194.922 1328,191.617 1315.89,188.349 1303.76,185.119 1291.6,181.926 1279.43,178.773 
  1267.23,175.659 1255.02,172.586 1242.79,169.554 1230.54,166.565 1218.29,163.618 1206.02,160.715 1193.74,157.857 1181.46,155.043 1169.17,152.276 1156.87,149.556 
  1144.58,146.883 1132.28,144.259 1119.98,141.683 1107.69,139.158 1095.4,136.684 1083.11,134.261 1070.84,131.89 1058.57,129.573 1046.31,127.309 1034.07,125.1 
  1021.84,122.947 1009.63,120.849 997.431,118.809 985.254,116.827 973.099,114.903 960.967,113.038 948.859,111.234 936.777,109.491 924.723,107.809 912.698,106.19 
  900.705,104.635 888.744,103.143 876.818,101.716 864.929,100.355 853.077,99.0603 841.264,97.8328 829.493,96.6733 817.765,95.5827 806.082,94.5616 794.445,93.6109 
  782.856,92.7313 771.316,91.9237 759.828,91.1888 748.394,90.5274 737.013,89.9403 725.69,89.4282 714.424,88.992 703.218,88.6324 692.074,88.3503 680.993,88.1464 
  669.977,88.0214 659.027,87.9763 648.145,88.0117 637.332,88.1279 626.49,88.2959 615.603,88.5141 604.823,88.8326 594.223,89.2734 583.801,89.8355 573.556,90.5178 
  563.489,91.3193 553.597,92.2389 543.882,93.2755 534.341,94.4282 524.974,95.6959 515.781,97.0774 506.76,98.5718 497.911,100.178 489.233,101.895 480.726,103.722 
  472.389,105.657 464.22,107.7 456.22,109.849 448.387,112.104 440.722,114.464 433.222,116.927 425.888,119.492 418.719,122.158 411.713,124.925 404.871,127.791 
  398.191,130.755 391.673,133.816 385.316,136.973 379.12,140.225 373.083,143.571 367.205,147.01 361.485,150.54 355.922,154.162 350.516,157.873 345.267,161.673 
  340.172,165.56 335.232,169.534 330.446,173.594 325.813,177.738 321.333,181.965 317.004,186.275 312.826,190.666 308.798,195.137 304.92,199.688 301.19,204.316 
  297.609,209.022 294.175,213.804 290.887,218.66 287.745,223.591 284.749,228.595 281.897,233.67 279.188,238.816 276.623,244.032 274.199,249.317 271.918,254.669 
  269.777,260.088 267.776,265.572 265.915,271.121 264.192,276.733 262.607,282.408 261.159,288.144 259.848,293.94 258.672,299.796 257.632,305.709 256.725,311.68 
  255.953,317.707 255.313,323.788 254.805,329.924 254.429,336.113 254.183,342.353 254.067,348.644 254.081,354.985 254.223,361.375 254.493,367.813 254.89,374.296 
  255.413,380.826 256.062,387.4 256.835,394.017 257.733,400.677 258.754,407.378 259.898,414.12 261.164,420.9 262.552,427.719 264.059,434.575 265.687,441.467 
  267.434,448.394 269.299,455.355 271.281,462.349 273.381,469.375 275.597,476.431 277.928,483.518 280.374,490.633 282.934,497.775 285.608,504.945 288.394,512.139 
  291.291,519.359 294.3,526.602 297.42,533.867 300.649,541.153 303.987,548.46 307.433,555.786 310.987,563.131 314.647,570.492 318.414,577.87 322.286,585.262 
  326.262,592.669 330.343,600.088 334.526,607.52 338.813,614.962 343.2,622.414 347.689,629.875 352.278,637.343 356.967,644.818 361.754,652.298 366.64,659.784 
  371.623,667.272 376.703,674.763 381.878,682.255 387.149,689.748 392.485,697.23 397.686,704.638 402.726,711.961 407.776,719.253 412.868,726.525 418,733.775 
  423.171,741.003 428.381,748.209 433.627,755.392 438.908,762.552 444.225,769.688 449.575,776.799 454.957,783.886 460.37,790.947 465.813,797.982 471.285,804.991 
  476.785,811.973 482.312,818.927 487.864,825.854 493.44,832.752 499.04,839.622 504.661,846.462 510.303,853.272 515.966,860.051 521.646,866.8 527.345,873.517 
  533.059,880.203 538.789,886.856 544.533,893.476 550.29,900.063 556.059,906.615 561.838,913.133 567.627,919.617 573.424,926.065 579.229,932.477 585.039,938.852 
  590.855,945.191 596.674,951.492 602.496,957.755 608.32,963.98 614.144,970.165 619.967,976.312 625.788,982.418 631.606,988.484 637.421,994.509 643.229,1000.49 
  649.032,1006.43 654.827,1012.33 660.613,1018.19 666.389,1024 672.154,1029.77 677.908,1035.49 683.647,1041.17 689.373,1046.81 695.083,1052.39 700.776,1057.94 
  706.451,1063.43 712.108,1068.88 717.744,1074.27 723.359,1079.62 728.952,1084.93 734.521,1090.18 740.066,1095.38 745.584,1100.53 751.076,1105.63 756.554,1110.7 
  
  "/>
<path clip-path="url(#clip380)" d="
M1988.33 198.898 L2280.76 198.898 L2280.76 95.2176 L1988.33 95.2176  Z
  " fill="#ffffff" fill-rule="evenodd" fill-opacity="1"/>
<polyline clip-path="url(#clip380)" style="stroke:#000000; stroke-linecap:butt; stroke-linejoin:round; stroke-width:4; stroke-opacity:1; fill:none" points="
  1988.33,198.898 2280.76,198.898 2280.76,95.2176 1988.33,95.2176 1988.33,198.898 
  "/>
<polyline clip-path="url(#clip380)" style="stroke:#009af9; stroke-linecap:butt; stroke-linejoin:round; stroke-width:4; stroke-opacity:1; fill:none" points="
  2012.33,147.058 2156.33,147.058 
  "/>
<path clip-path="url(#clip380)" d="M2194.17 166.745 Q2192.37 171.375 2190.66 172.787 Q2188.94 174.199 2186.07 174.199 L2182.67 174.199 L2182.67 170.634 L2185.17 170.634 Q2186.93 170.634 2187.9 169.8 Q2188.87 168.967 2190.05 165.865 L2190.82 163.921 L2180.33 138.412 L2184.85 138.412 L2192.95 158.689 L2201.05 138.412 L2205.56 138.412 L2194.17 166.745 Z" fill="#000000" fill-rule="evenodd" fill-opacity="1" /><path clip-path="url(#clip380)" d="M2212.85 160.402 L2220.49 160.402 L2220.49 134.037 L2212.18 135.703 L2212.18 131.444 L2220.45 129.778 L2225.12 129.778 L2225.12 160.402 L2232.76 160.402 L2232.76 164.338 L2212.85 164.338 L2212.85 160.402 Z" fill="#000000" fill-rule="evenodd" fill-opacity="1" /></svg>
